SplineFontDB: 3.0
FontName: Inconsoliga-Bold
FullName: Inconsoliga Bold
FamilyName: Inconsoliga
Weight: Bold
Copyright: Copyright 2006 The Inconsolata Project Authors
Version: 2.001
ItalicAngle: 0
UnderlinePosition: -1047
UnderlineWidth: 208
Ascent: 1638
Descent: 410
InvalidEm: 0
sfntRevision: 0x00020041
LayerCount: 2
Layer: 0 1 "Back" 1
Layer: 1 1 "Fore" 0
XUID: [1021 364 -2095688903 2386458]
StyleMap: 0x0020
FSType: 0
OS2Version: 4
OS2_WeightWidthSlopeOnly: 0
OS2_UseTypoMetrics: 1
CreationTime: 1528038829
ModificationTime: 1528071923
PfmFamily: 81
TTFWeight: 700
TTFWidth: 5
LineGap: 0
VLineGap: 0
Panose: 0 0 8 9 0 0 0 0 0 0
OS2TypoAscent: 1759
OS2TypoAOffset: 0
OS2TypoDescent: -389
OS2TypoDOffset: 0
OS2TypoLinegap: 0
OS2WinAscent: 2056
OS2WinAOffset: 0
OS2WinDescent: 627
OS2WinDOffset: 0
HheadAscent: 1759
HheadAOffset: 0
HheadDescent: -389
HheadDOffset: 0
OS2SubXSize: 1331
OS2SubYSize: 1228
OS2SubXOff: 0
OS2SubYOff: 153
OS2SupXSize: 1331
OS2SupYSize: 1228
OS2SupXOff: 0
OS2SupYOff: 716
OS2StrikeYSize: 102
OS2StrikeYPos: 573
OS2CapHeight: 1276
OS2XHeight: 956
OS2Vendor: 'CYRE'
OS2CodePages: 20000193.00000000
OS2UnicodeRanges: 20000007.00000001.00000000.00000000
Lookup: 6 0 0 "'&&&' Contextual Alternates" { "'&&&' Contextual Alternates 1"  "'&&&' Contextual Alternates 2"  "'&&&' Contextual Alternates 3"  } ['calt' ('DFLT' <'dflt' > 'arab' <'dflt' > 'armn' <'dflt' > 'cyrl' <'SRB ' 'dflt' > 'geor' <'dflt' > 'grek' <'dflt' > 'lao ' <'dflt' > 'latn' <'CAT ' 'ESP ' 'GAL ' 'ISM ' 'KSM ' 'LSM ' 'MOL ' 'NSM ' 'ROM ' 'SKS ' 'SSM ' 'dflt' > 'math' <'dflt' > 'thai' <'dflt' > ) ]
Lookup: 1 0 0 "ampers_ampers_ampers.liga Single Substitution (1rd)" { "ampers_ampers_ampers.liga Single Substitution (1rd)"  } []
Lookup: 1 0 0 "ampers_ampers_ampers.liga Single Substitution (2nd)" { "ampers_ampers_ampers.liga Single Substitution (2nd)"  } []
Lookup: 1 0 0 "ampers_ampers_ampers.liga Single Substitution" { "ampers_ampers_ampers.liga Single Substitution"  } []

StartChar: grave
Encoding: 96 96 3
Width: 1024
GlyphClass: 2
Flags: W
LayerCount: 2
Fore
SplineSet
305 1348 m 1,0,-1
 444 1448 l 1,1,-1
 608 1110 l 1,2,-1
 520 1059 l 1,3,-1
 305 1348 l 1,0,-1
EndSplineSet
EndChar

StartChar: exclam
Encoding: 33 33 5
Width: 1024
GlyphClass: 2
Flags: W
LayerCount: 2
Fore
SplineSet
350 1178 m 5,0,-1
 349 1202 l 6,1,2
 349 1291 349 1291 387.5 1332.5 c 132,-1,3
 426 1374 426 1374 494 1374 c 4,4,5
 560 1374 560 1374 599 1334 c 132,-1,6
 638 1294 638 1294 638 1206 c 4,7,8
 638 1188 638 1188 637 1178 c 6,9,-1
 584 406 l 5,10,-1
 399 406 l 5,11,-1
 350 1178 l 5,0,-1
410.5 -0.5 m 132,-1,13
 374 19 374 19 353 53 c 132,-1,14
 332 87 332 87 332 127 c 4,15,16
 332 166 332 166 353.5 200.5 c 132,-1,17
 375 235 375 235 411 255.5 c 132,-1,18
 447 276 447 276 489 276 c 4,19,20
 534 276 534 276 571 254.5 c 132,-1,21
 608 233 608 233 629.5 198.5 c 132,-1,22
 651 164 651 164 651 127 c 4,23,24
 651 88 651 88 628.5 54 c 132,-1,25
 606 20 606 20 568.5 0 c 132,-1,26
 531 -20 531 -20 489 -20 c 260,27,12
 447 -20 447 -20 410.5 -0.5 c 132,-1,13
EndSplineSet
Substitution2: "exclam_exclam_exclam.liga Single Substitution (1rd)" exclam_exclam_exclam.liga
Substitution2: "exclam_exclam_exclam.liga Single Substitution (2nd)" LIG2
Substitution2: "exclam_exclam_exclam.liga Single Substitution" LIG
Substitution2: "less_exclam_greater.liga Single Substitution" LIG2
Substitution2: "equal_exclam_equal.liga Single Substitution" LIG2
Substitution2: "exclam_equal.liga Single Substitution" LIG
EndChar

StartChar: numbersign
Encoding: 35 35 7
Width: 1024
GlyphClass: 2
Flags: W
LayerCount: 2
Fore
SplineSet
541 360 m 1,0,-1
 426 360 l 1,1,-1
 385 25 l 1,2,-1
 180 23 l 1,3,-1
 217 358 l 1,4,-1
 39 358 l 1,5,-1
 51 518 l 1,6,-1
 240 518 l 1,7,-1
 270 797 l 1,8,-1
 68 797 l 1,9,-1
 78 958 l 1,10,-1
 289 958 l 1,11,-1
 326 1282 l 1,12,-1
 537 1284 l 1,13,-1
 498 963 l 1,14,-1
 608 963 l 1,15,-1
 645 1278 l 1,16,-1
 856 1280 l 1,17,-1
 819 967 l 1,18,-1
 991 967 l 1,19,-1
 971 803 l 1,20,-1
 799 803 l 1,21,-1
 768 526 l 1,22,-1
 950 526 l 1,23,-1
 938 367 l 1,24,-1
 750 367 l 1,25,-1
 709 27 l 1,26,-1
 498 14 l 1,27,-1
 541 360 l 1,0,-1
557 522 m 1,28,-1
 590 799 l 1,29,-1
 475 799 l 1,30,-1
 444 522 l 1,31,-1
 557 522 l 1,28,-1
EndSplineSet
EndChar

StartChar: dollar
Encoding: 36 36 8
Width: 1024
GlyphClass: 2
Flags: W
LayerCount: 2
Fore
SplineSet
436 14 m 1,0,1
 341 30 341 30 254 77.5 c 128,-1,2
 167 125 167 125 100 199 c 1,3,-1
 225 375 l 1,4,5
 245 369 245 369 255 356 c 128,-1,6
 265 343 265 343 273 323 c 0,7,8
 278 308 278 308 283 303 c 0,9,10
 320 263 320 263 358.5 238 c 128,-1,11
 397 213 397 213 446 203 c 1,12,-1
 446 569 l 1,13,14
 294 625 294 625 215.5 705.5 c 128,-1,15
 137 786 137 786 137 901 c 0,16,17
 137 976 137 976 174 1040.5 c 128,-1,18
 211 1105 211 1105 278.5 1150.5 c 128,-1,19
 346 1196 346 1196 436 1214 c 1,20,-1
 436 1333 l 1,21,-1
 641 1333 l 1,22,23
 653 1328 653 1328 653 1313 c 0,24,25
 653 1307 653 1307 648 1290 c 0,26,27
 641 1255 641 1255 641 1249 c 2,28,-1
 641 1217 l 1,29,30
 724 1200 724 1200 797 1152.5 c 128,-1,31
 870 1105 870 1105 930 1032 c 1,32,-1
 809 879 l 1,33,34
 791 879 791 879 782.5 889.5 c 128,-1,35
 774 900 774 900 767 920 c 0,36,37
 761 938 761 938 756 946 c 0,38,39
 734 971 734 971 700.5 992 c 128,-1,40
 667 1013 667 1013 631 1022 c 1,41,-1
 631 721 l 1,42,43
 799 668 799 668 880 586.5 c 128,-1,44
 961 505 961 505 961 375 c 0,45,46
 961 291 961 291 922 217.5 c 128,-1,47
 883 144 883 144 811 92 c 128,-1,48
 739 40 739 40 641 20 c 1,49,-1
 641 -90 l 1,50,-1
 436 -90 l 1,51,-1
 436 14 l 1,0,1
446 1024 m 1,52,53
 403 1013 403 1013 377.5 984 c 128,-1,54
 352 955 352 955 352 913 c 0,55,56
 352 877 352 877 375 844.5 c 128,-1,57
 398 812 398 812 446 795 c 1,58,-1
 446 1024 l 1,52,53
752 362 m 0,60,61
 752 461 752 461 631 504 c 1,62,-1
 631 215 l 1,63,59
 752 258 752 258 752 362 c 0,60,61
EndSplineSet
Substitution2: "less_dollar_greater.liga Single Substitution" LIG2
EndChar

StartChar: percent
Encoding: 37 37 9
Width: 1024
GlyphClass: 2
Flags: W
LayerCount: 2
Fore
SplineSet
154.5 775.5 m 128,-1,1
 96 812 96 812 61.5 876.5 c 128,-1,2
 27 941 27 941 27 1020 c 0,3,4
 27 1096 27 1096 61.5 1160 c 128,-1,5
 96 1224 96 1224 154.5 1261 c 128,-1,6
 213 1298 213 1298 281 1298 c 0,7,8
 350 1298 350 1298 408 1260.5 c 128,-1,9
 466 1223 466 1223 500.5 1159 c 128,-1,10
 535 1095 535 1095 535 1018 c 0,11,12
 535 937 535 937 502 873.5 c 128,-1,13
 469 810 469 810 411 774.5 c 128,-1,14
 353 739 353 739 281 739 c 0,15,0
 213 739 213 739 154.5 775.5 c 128,-1,1
811 1276 m 1,16,-1
 958 1276 l 1,17,-1
 227 0 l 1,18,-1
 86 0 l 1,19,-1
 811 1276 l 1,16,-1
351.5 909.5 m 128,-1,21
 377 951 377 951 377 1018 c 0,22,23
 377 1084 377 1084 351.5 1126.5 c 128,-1,24
 326 1169 326 1169 276 1169 c 0,25,26
 227 1169 227 1169 201.5 1126.5 c 128,-1,27
 176 1084 176 1084 176 1018 c 0,28,29
 176 951 176 951 201.5 909.5 c 128,-1,30
 227 868 227 868 276 868 c 0,31,20
 326 868 326 868 351.5 909.5 c 128,-1,21
621 16.5 m 128,-1,33
 563 53 563 53 528.5 117 c 128,-1,34
 494 181 494 181 494 260 c 0,35,36
 494 336 494 336 528.5 400.5 c 128,-1,37
 563 465 563 465 621.5 502 c 128,-1,38
 680 539 680 539 748 539 c 256,39,40
 816 539 816 539 874.5 501.5 c 128,-1,41
 933 464 933 464 967 399.5 c 128,-1,42
 1001 335 1001 335 1001 258 c 0,43,44
 1001 177 1001 177 968 114 c 128,-1,45
 935 51 935 51 877.5 15.5 c 128,-1,46
 820 -20 820 -20 748 -20 c 0,47,32
 679 -20 679 -20 621 16.5 c 128,-1,33
818.5 150 m 128,-1,49
 844 191 844 191 844 258 c 0,50,51
 844 324 844 324 818.5 367 c 128,-1,52
 793 410 793 410 743 410 c 0,53,54
 694 410 694 410 668.5 367 c 128,-1,55
 643 324 643 324 643 258 c 0,56,57
 643 191 643 191 668 150 c 128,-1,58
 693 109 693 109 743 109 c 256,59,48
 793 109 793 109 818.5 150 c 128,-1,49
EndSplineSet
EndChar

StartChar: ampersand
Encoding: 38 38 10
Width: 1024
GlyphClass: 2
Flags: W
LayerCount: 2
Fore
SplineSet
725 115 m 1,0,1
 660 50 660 50 575 8.5 c 128,-1,2
 490 -33 490 -33 406 -33 c 0,3,4
 296 -33 296 -33 218 10.5 c 128,-1,5
 140 54 140 54 100.5 131 c 128,-1,6
 61 208 61 208 61 305 c 0,7,8
 61 382 61 382 94 459.5 c 128,-1,9
 127 537 127 537 185 601.5 c 128,-1,10
 243 666 243 666 315 707 c 1,11,12
 245 784 245 784 208.5 863 c 128,-1,13
 172 942 172 942 172 1010 c 0,14,15
 172 1089 172 1089 213 1154.5 c 128,-1,16
 254 1220 254 1220 323.5 1258 c 128,-1,17
 393 1296 393 1296 475 1296 c 0,18,19
 561 1296 561 1296 629 1255.5 c 128,-1,20
 697 1215 697 1215 734.5 1149 c 128,-1,21
 772 1083 772 1083 772 1010 c 0,22,23
 772 947 772 947 746.5 881 c 128,-1,24
 721 815 721 815 675 760 c 128,-1,25
 629 705 629 705 569 672 c 1,26,-1
 743 422 l 1,27,28
 777 467 777 467 797 532 c 0,29,30
 798 541 798 541 798 558 c 0,31,32
 799 584 799 584 802.5 599 c 128,-1,33
 806 614 806 614 821 625 c 1,34,-1
 1006 496 l 1,35,36
 920 351 920 351 860 264 c 1,37,-1
 997 84 l 1,38,-1
 825 -43 l 1,39,-1
 725 115 l 1,0,1
544 890.5 m 128,-1,41
 569 943 569 943 569 999 c 0,42,43
 569 1053 569 1053 544 1089.5 c 128,-1,44
 519 1126 519 1126 477 1126 c 0,45,46
 431 1126 431 1126 406 1093 c 128,-1,47
 381 1060 381 1060 381 1008 c 0,48,49
 381 926 381 926 471 809 c 1,50,40
 519 838 519 838 544 890.5 c 128,-1,41
533.5 179 m 128,-1,52
 579 211 579 211 614 264 c 1,53,-1
 406 563 l 1,54,55
 344 525 344 525 314.5 461 c 128,-1,56
 285 397 285 397 285 328 c 0,57,58
 285 283 285 283 304.5 241 c 128,-1,59
 324 199 324 199 358 173 c 128,-1,60
 392 147 392 147 434 147 c 0,61,51
 488 147 488 147 533.5 179 c 128,-1,52
EndSplineSet
Substitution2: "ampers_ampers_ampers.liga Single Substitution (1rd)" ampers_ampers_ampers.liga
Substitution2: "ampers_ampers_ampers.liga Single Substitution (2nd)" LIG2
Substitution2: "ampers_ampers_ampers.liga Single Substitution" LIG
Substitution2: "ampersand_ampersand.liga Single Substitution (2nd)" ampersand_ampersand.liga
Substitution2: "ampersand_ampersand.liga Single Substitution" LIG
EndChar

StartChar: quotesingle
Encoding: 39 39 11
Width: 1024
GlyphClass: 2
Flags: W
LayerCount: 2
Fore
SplineSet
614 1362 m 1,0,1
 614 1191 614 1191 609 1111 c 128,-1,2
 604 1031 604 1031 593 933 c 2,3,-1
 582 834 l 1,4,-1
 442 834 l 1,5,-1
 431 933 l 2,6,7
 420 1030 420 1030 415 1110 c 128,-1,8
 410 1190 410 1190 410 1362 c 1,9,-1
 614 1362 l 1,0,1
EndSplineSet
EndChar

StartChar: parenleft
Encoding: 40 40 12
Width: 1024
GlyphClass: 2
Flags: W
LayerCount: 2
Fore
SplineSet
497.5 -161 m 128,-1,1
 362 -24 362 -24 288.5 150.5 c 128,-1,2
 215 325 215 325 215 510 c 0,3,4
 215 693 215 693 286 862.5 c 128,-1,5
 357 1032 357 1032 489.5 1165.5 c 128,-1,6
 622 1299 622 1299 801 1374 c 1,7,-1
 854 1196 l 1,8,9
 649 1091 649 1091 538.5 912 c 128,-1,10
 428 733 428 733 428 504 c 0,11,12
 428 355 428 355 480 218 c 128,-1,13
 532 81 532 81 631 -27 c 128,-1,14
 730 -135 730 -135 866 -199 c 1,15,-1
 813 -373 l 1,16,0
 633 -298 633 -298 497.5 -161 c 128,-1,1
EndSplineSet
EndChar

StartChar: parenright
Encoding: 41 41 13
Width: 1024
GlyphClass: 2
Flags: W
LayerCount: 2
Fore
SplineSet
215 -199 m 1,0,1
 351 -135 351 -135 450 -27 c 128,-1,2
 549 81 549 81 601 218 c 128,-1,3
 653 355 653 355 653 504 c 0,4,5
 653 733 653 733 542.5 912 c 128,-1,6
 432 1091 432 1091 227 1196 c 1,7,-1
 280 1374 l 1,8,9
 459 1299 459 1299 591.5 1165.5 c 128,-1,10
 724 1032 724 1032 795 862.5 c 128,-1,11
 866 693 866 693 866 510 c 0,12,13
 866 325 866 325 792.5 150.5 c 128,-1,14
 719 -24 719 -24 583.5 -161 c 128,-1,15
 448 -298 448 -298 268 -373 c 1,16,-1
 215 -199 l 1,0,1
EndSplineSet
EndChar

StartChar: asterisk
Encoding: 42 42 14
Width: 1024
GlyphClass: 2
Flags: W
LayerCount: 2
Fore
SplineSet
145 369 m 1,0,-1
 385 647 l 1,1,-1
 66 746 l 1,2,-1
 137 932 l 1,3,-1
 430 795 l 1,4,-1
 401 1110 l 1,5,-1
 643 1110 l 1,6,-1
 600 795 l 1,7,-1
 885 924 l 1,8,-1
 961 748 l 1,9,-1
 641 649 l 1,10,-1
 874 369 l 1,11,-1
 711 242 l 1,12,-1
 512 543 l 1,13,-1
 307 240 l 1,14,-1
 145 369 l 1,0,-1
EndSplineSet
Substitution2: "asterisk_asterisk_asterisk.liga Single Substitution (1rd)" asterisk_asterisk_asterisk.liga
Substitution2: "asterisk_asterisk_asterisk.liga Single Substitution (2nd)" LIG2
Substitution2: "asterisk_asterisk_asterisk.liga Single Substitution" LIG
Substitution2: "less_asterisk_greater.liga Single Substitution" LIG2
Substitution2: "asterisk_equal.liga Single Substitution" LIG
Substitution2: "asterisk_greater.liga Single Substitution" LIG
Substitution2: "less_asterisk.liga Single Substitution" less_asterisk.liga
EndChar

StartChar: plus
Encoding: 43 43 15
Width: 1024
GlyphClass: 2
Flags: W
LayerCount: 2
Fore
SplineSet
424 580 m 1,0,-1
 84 580 l 1,1,-1
 84 754 l 1,2,-1
 424 754 l 1,3,-1
 424 1083 l 1,4,-1
 623 1083 l 1,5,-1
 623 754 l 1,6,-1
 950 754 l 1,7,-1
 950 580 l 1,8,-1
 623 580 l 1,9,-1
 623 221 l 1,10,-1
 424 221 l 1,11,-1
 424 580 l 1,0,-1
EndSplineSet
Substitution2: "plus_plus_plus.liga Single Substitution (1rd)" plus_plus_plus.liga
Substitution2: "plus_plus_plus.liga Single Substitution (2nd)" LIG2
Substitution2: "plus_plus_plus.liga Single Substitution" LIG
Substitution2: "less_plus_greater.liga Single Substitution" LIG2
Substitution2: "plus_plus.liga Single Substitution (2nd)" plus_plus.liga
Substitution2: "plus_plus.liga Single Substitution" LIG
EndChar

StartChar: comma
Encoding: 44 44 16
Width: 1024
GlyphClass: 2
Flags: W
LayerCount: 2
Fore
SplineSet
305 -242 m 1,0,1
 362 -188 362 -188 400 -130.5 c 128,-1,2
 438 -73 438 -73 438 -41 c 0,3,4
 438 -32 438 -32 429.5 -22 c 128,-1,5
 421 -12 421 -12 403 5 c 0,6,7
 374 32 374 32 357 55 c 128,-1,8
 340 78 340 78 340 106 c 0,9,10
 340 146 340 146 359 179 c 128,-1,11
 378 212 378 212 413.5 231 c 128,-1,12
 449 250 449 250 494 250 c 0,13,14
 537 250 537 250 576 225.5 c 128,-1,15
 615 201 615 201 638.5 158 c 128,-1,16
 662 115 662 115 662 61 c 0,17,18
 662 -20 662 -20 602 -120.5 c 128,-1,19
 542 -221 542 -221 420 -346 c 1,20,-1
 305 -242 l 1,0,1
EndSplineSet
EndChar

StartChar: hyphen
Encoding: 45 45 17
Width: 1024
GlyphClass: 2
Flags: W
LayerCount: 2
Fore
SplineSet
131 750 m 1,0,-1
 899 750 l 1,1,-1
 899 563 l 1,2,-1
 131 563 l 1,3,-1
 131 750 l 1,0,-1
EndSplineSet
Substitution2: "less_hyphen_greater.liga Single Substitution" LIG2
Substitution2: "hyphen_less_less.liga Single Substitution" LIG
Substitution2: "greater_greater_hyphen.liga Single Substitution" greater_greater_hyphen.liga
Substitution2: "greater_hyphen.liga Single Substitution" greater_hyphen.liga
Substitution2: "hyphen_less.liga Single Substitution" LIG
Substitution2: "less_hyphen.liga Single Substitution" less_hyphen.liga
Substitution2: "hyphen_greater.liga Single Substitution" LIG
EndChar

StartChar: period
Encoding: 46 46 18
Width: 1024
GlyphClass: 2
Flags: W
LayerCount: 2
Fore
SplineSet
421.5 -8.5 m 128,-1,1
 389 10 389 10 370.5 42.5 c 128,-1,2
 352 75 352 75 352 113 c 0,3,4
 352 150 352 150 370.5 181.5 c 128,-1,5
 389 213 389 213 421.5 231.5 c 128,-1,6
 454 250 454 250 492 250 c 0,7,8
 529 250 529 250 560.5 231.5 c 128,-1,9
 592 213 592 213 610.5 181.5 c 128,-1,10
 629 150 629 150 629 113 c 0,11,12
 629 75 629 75 610.5 42.5 c 128,-1,13
 592 10 592 10 560.5 -8.5 c 128,-1,14
 529 -27 529 -27 492 -27 c 0,15,0
 454 -27 454 -27 421.5 -8.5 c 128,-1,1
EndSplineSet
Substitution2: "period_period_period.liga Single Substitution (1rd)" period_period_period.liga
Substitution2: "period_period_period.liga Single Substitution (2nd)" LIG2
Substitution2: "period_period_period.liga Single Substitution" LIG
Substitution2: "less_period_greater.liga Single Substitution" LIG2
EndChar

StartChar: slash
Encoding: 47 47 19
Width: 1024
GlyphClass: 2
Flags: W
LayerCount: 2
Fore
SplineSet
106 -10 m 1,0,-1
 741 1366 l 1,1,-1
 920 1274 l 1,2,-1
 287 -96 l 1,3,-1
 106 -10 l 1,0,-1
EndSplineSet
Substitution2: "less_slash_greater.liga Single Substitution" LIG2
Substitution2: "slash_equal.liga Single Substitution" LIG
EndChar

StartChar: zero
Encoding: 48 48 20
Width: 1024
GlyphClass: 2
Flags: W
LayerCount: 2
Fore
SplineSet
750 1221 m 128,-1,1
 849 1142 849 1142 901.5 991.5 c 128,-1,2
 954 841 954 841 954 631 c 256,3,4
 954 421 954 421 901.5 270.5 c 128,-1,5
 849 120 849 120 750 40.5 c 128,-1,6
 651 -39 651 -39 512 -39 c 256,7,8
 373 -39 373 -39 274 40.5 c 128,-1,9
 175 120 175 120 122.5 270.5 c 128,-1,10
 70 421 70 421 70 631 c 256,11,12
 70 841 70 841 122.5 991.5 c 128,-1,13
 175 1142 175 1142 274 1221 c 128,-1,14
 373 1300 373 1300 512 1300 c 256,15,0
 651 1300 651 1300 750 1221 c 128,-1,1
392 1058.5 m 128,-1,17
 342 1001 342 1001 315.5 892 c 128,-1,18
 289 783 289 783 289 631 c 0,19,20
 289 553 289 553 297 478 c 1,21,-1
 692 947 l 1,22,23
 664 1029 664 1029 618 1072.5 c 128,-1,24
 572 1116 572 1116 512 1116 c 0,25,16
 442 1116 442 1116 392 1058.5 c 128,-1,17
632 203 m 128,-1,27
 682 261 682 261 708.5 370 c 128,-1,28
 735 479 735 479 735 631 c 0,29,30
 735 721 735 721 726 794 c 1,31,-1
 329 322 l 1,32,33
 357 236 357 236 403.5 190.5 c 128,-1,34
 450 145 450 145 512 145 c 0,35,26
 582 145 582 145 632 203 c 128,-1,27
EndSplineSet
EndChar

StartChar: one
Encoding: 49 49 21
Width: 1024
GlyphClass: 2
Flags: W
LayerCount: 2
Fore
SplineSet
428 1016 m 1,0,-1
 209 950 l 1,1,-1
 154 1090 l 1,2,-1
 500 1276 l 1,3,-1
 653 1276 l 1,4,-1
 653 0 l 1,5,-1
 428 0 l 1,6,-1
 428 1016 l 1,0,-1
EndSplineSet
EndChar

StartChar: two
Encoding: 50 50 22
Width: 1024
GlyphClass: 2
Flags: W
LayerCount: 2
Fore
SplineSet
117 168 m 1,0,1
 364 405 364 405 471.5 518 c 128,-1,2
 579 631 579 631 635.5 728.5 c 128,-1,3
 692 826 692 826 692 928 c 0,4,5
 692 1009 692 1009 641 1056.5 c 128,-1,6
 590 1104 590 1104 504 1104 c 0,7,8
 377 1104 377 1104 297 1024 c 0,9,10
 279 1006 279 1006 272 991.5 c 128,-1,11
 265 977 265 977 265 963 c 2,12,-1
 266 952 l 1,13,-1
 252 933 l 1,14,-1
 238 944 l 1,15,-1
 86 1059 l 1,16,17
 160 1178 160 1178 267.5 1241.5 c 128,-1,18
 375 1305 375 1305 508 1305 c 0,19,20
 622 1305 622 1305 713 1257.5 c 128,-1,21
 804 1210 804 1210 855.5 1125 c 128,-1,22
 907 1040 907 1040 907 930 c 0,23,24
 907 821 907 821 855.5 721 c 128,-1,25
 804 621 804 621 720.5 527 c 128,-1,26
 637 433 637 433 475 271 c 2,27,-1
 393 190 l 1,28,-1
 810 190 l 2,29,30
 843 190 843 190 858.5 193.5 c 128,-1,31
 874 197 874 197 886 208 c 1,32,-1
 909 208 l 1,33,-1
 909 0 l 1,34,-1
 117 0 l 1,35,-1
 117 168 l 1,0,1
EndSplineSet
EndChar

StartChar: three
Encoding: 51 51 23
Width: 1024
GlyphClass: 2
Flags: W
LayerCount: 2
Fore
SplineSet
76 133 m 1,1,-1
 171 324 l 1,2,-1
 179 340 l 1,3,-1
 200 330 l 2,4,5
 202 325 202 325 203 317.5 c 128,-1,6
 204 310 204 310 204 307 c 0,7,8
 205 289 205 289 209.5 275 c 128,-1,9
 214 261 214 261 228 246 c 0,10,11
 272 201 272 201 332 180.5 c 128,-1,12
 392 160 392 160 477 160 c 0,13,14
 571 160 571 160 623.5 216.5 c 128,-1,15
 676 273 676 273 676 367 c 0,16,17
 676 470 676 470 618.5 520.5 c 128,-1,18
 561 571 561 571 424 571 c 0,19,20
 376 571 376 571 317 565 c 1,21,-1
 317 750 l 1,22,23
 332 749 332 749 360 749 c 0,24,25
 518 749 518 749 579.5 800 c 128,-1,26
 641 851 641 851 641 942 c 0,27,28
 641 1016 641 1016 597.5 1062 c 128,-1,29
 554 1108 554 1108 475 1108 c 0,30,31
 406 1108 406 1108 347.5 1084 c 128,-1,32
 289 1060 289 1060 225 1001 c 1,33,-1
 96 1133 l 1,34,35
 169 1220 169 1220 266 1262.5 c 128,-1,36
 363 1305 363 1305 473 1305 c 0,37,38
 590 1305 590 1305 680.5 1260.5 c 128,-1,39
 771 1216 771 1216 821.5 1138.5 c 128,-1,40
 872 1061 872 1061 872 965 c 0,41,42
 872 862 872 862 819.5 787.5 c 128,-1,43
 767 713 767 713 694 680 c 1,44,45
 783 649 783 649 844 567.5 c 128,-1,46
 905 486 905 486 905 358 c 0,47,48
 905 247 905 247 853.5 156.5 c 128,-1,49
 802 66 802 66 705 13.5 c 128,-1,50
 608 -39 608 -39 475 -39 c 0,51,0
 213 -39 213 -39 76 133 c 1,1,-1
EndSplineSet
EndChar

StartChar: four
Encoding: 52 52 24
Width: 1024
GlyphClass: 2
Flags: W
LayerCount: 2
Fore
SplineSet
557 315 m 1,0,-1
 70 315 l 1,1,-1
 70 459 l 1,2,-1
 623 1276 l 1,3,-1
 788 1276 l 1,4,-1
 788 506 l 1,5,-1
 958 506 l 1,6,-1
 958 313 l 1,7,-1
 788 313 l 1,8,-1
 788 0 l 1,9,-1
 557 0 l 1,10,-1
 557 315 l 1,0,-1
565 500 m 1,11,-1
 565 881 l 1,12,-1
 307 500 l 1,13,-1
 565 500 l 1,11,-1
EndSplineSet
EndChar

StartChar: five
Encoding: 53 53 25
Width: 1024
GlyphClass: 2
Flags: W
LayerCount: 2
Fore
SplineSet
109 203 m 1,1,-1
 279 333 l 1,2,-1
 294 344 l 1,3,-1
 308 325 l 2,4,5
 307 320 307 320 307 309 c 0,6,7
 307 282 307 282 332 251 c 0,8,9
 364 210 364 210 407 187 c 128,-1,10
 450 164 450 164 512 164 c 0,11,12
 571 164 571 164 617 192.5 c 128,-1,13
 663 221 663 221 690 277 c 128,-1,14
 717 333 717 333 717 414 c 0,15,16
 717 533 717 533 663 599.5 c 128,-1,17
 609 666 609 666 520 666 c 0,18,19
 459 666 459 666 412 636.5 c 128,-1,20
 365 607 365 607 319 543 c 1,21,-1
 172 606 l 1,22,-1
 219 1276 l 1,23,-1
 905 1276 l 1,24,-1
 905 1081 l 1,25,-1
 420 1081 l 1,26,-1
 403 834 l 1,27,28
 478 856 478 856 545 856 c 0,29,30
 666 856 666 856 756 803 c 128,-1,31
 846 750 846 750 895 650 c 128,-1,32
 944 550 944 550 944 412 c 0,33,34
 944 279 944 279 892 177 c 128,-1,35
 840 75 840 75 744 18 c 128,-1,36
 648 -39 648 -39 520 -39 c 0,37,0
 238 -39 238 -39 109 203 c 1,1,-1
EndSplineSet
EndChar

StartChar: six
Encoding: 54 54 26
Width: 1024
GlyphClass: 2
Flags: W
LayerCount: 2
Fore
SplineSet
302.5 41 m 128,-1,1
 206 121 206 121 155 263 c 128,-1,2
 104 405 104 405 104 588 c 0,3,4
 104 807 104 807 163.5 968.5 c 128,-1,5
 223 1130 223 1130 331 1216.5 c 128,-1,6
 439 1303 439 1303 580 1303 c 0,7,8
 666 1303 666 1303 748 1264.5 c 128,-1,9
 830 1226 830 1226 901 1153 c 1,10,-1
 757 1000 l 1,11,-1
 745 987 l 1,12,-1
 728 1003 l 1,13,14
 726 1025 726 1025 720 1039 c 128,-1,15
 714 1053 714 1053 691 1072 c 0,16,17
 670 1089 670 1089 644 1097.5 c 128,-1,18
 618 1106 618 1106 580 1106 c 0,19,20
 526 1106 526 1106 475 1071 c 128,-1,21
 424 1036 424 1036 385.5 957.5 c 128,-1,22
 347 879 347 879 334 754 c 1,23,24
 375 795 375 795 433 822.5 c 128,-1,25
 491 850 491 850 545 850 c 0,26,27
 651 850 651 850 739 794 c 128,-1,28
 827 738 827 738 878.5 638.5 c 128,-1,29
 930 539 930 539 930 414 c 0,30,31
 930 288 930 288 876.5 184.5 c 128,-1,32
 823 81 823 81 731.5 21 c 128,-1,33
 640 -39 640 -39 530 -39 c 0,34,0
 399 -39 399 -39 302.5 41 c 128,-1,1
620 200.5 m 128,-1,36
 658 229 658 229 680 283.5 c 128,-1,37
 702 338 702 338 702 414 c 256,38,39
 702 490 702 490 677 543 c 128,-1,40
 652 596 652 596 613 621.5 c 128,-1,41
 574 647 574 647 532 647 c 0,42,43
 477 647 477 647 424.5 613.5 c 128,-1,44
 372 580 372 580 338 524 c 1,45,46
 338 416 338 416 363.5 336.5 c 128,-1,47
 389 257 389 257 433.5 214.5 c 128,-1,48
 478 172 478 172 535 172 c 0,49,35
 582 172 582 172 620 200.5 c 128,-1,36
EndSplineSet
EndChar

StartChar: seven
Encoding: 55 55 27
Width: 1024
GlyphClass: 2
Flags: W
LayerCount: 2
Fore
SplineSet
433.5 576 m 128,-1,1
 528 837 528 837 627 1075 c 1,2,-1
 135 1075 l 1,3,-1
 135 1276 l 1,4,-1
 903 1276 l 1,5,-1
 903 1159 l 1,6,7
 682 656 682 656 481 0 c 1,8,-1
 233 0 l 1,9,0
 339 315 339 315 433.5 576 c 128,-1,1
EndSplineSet
EndChar

StartChar: eight
Encoding: 56 56 28
Width: 1024
GlyphClass: 2
Flags: W
LayerCount: 2
Fore
SplineSet
295.5 10.5 m 128,-1,1
 198 60 198 60 142 145 c 128,-1,2
 86 230 86 230 86 332 c 0,3,4
 86 432 86 432 150.5 525.5 c 128,-1,5
 215 619 215 619 322 678 c 1,6,7
 243 730 243 730 194 807 c 128,-1,8
 145 884 145 884 145 965 c 0,9,10
 145 1058 145 1058 196 1137 c 128,-1,11
 247 1216 247 1216 334 1262.5 c 128,-1,12
 421 1309 421 1309 524 1309 c 0,13,14
 628 1309 628 1309 713.5 1264 c 128,-1,15
 799 1219 799 1219 848 1142.5 c 128,-1,16
 897 1066 897 1066 897 977 c 0,17,18
 897 896 897 896 844.5 817 c 128,-1,19
 792 738 792 738 711 684 c 1,20,21
 813 627 813 627 876.5 534 c 128,-1,22
 940 441 940 441 940 338 c 0,23,24
 940 233 940 233 883 147 c 128,-1,25
 826 61 826 61 728 11 c 128,-1,26
 630 -39 630 -39 512 -39 c 0,27,0
 393 -39 393 -39 295.5 10.5 c 128,-1,1
632.5 866 m 128,-1,29
 666 917 666 917 666 971 c 0,30,31
 666 1007 666 1007 646 1038.5 c 128,-1,32
 626 1070 626 1070 592 1089 c 128,-1,33
 558 1108 558 1108 518 1108 c 256,34,35
 478 1108 478 1108 445.5 1090 c 128,-1,36
 413 1072 413 1072 395 1041.5 c 128,-1,37
 377 1011 377 1011 377 975 c 0,38,39
 377 866 377 866 545 778 c 1,40,28
 599 815 599 815 632.5 866 c 128,-1,29
609.5 191 m 128,-1,42
 651 214 651 214 674.5 253 c 128,-1,43
 698 292 698 292 698 340 c 0,44,45
 698 413 698 413 641 477 c 128,-1,46
 584 541 584 541 489 575 c 1,47,48
 418 538 418 538 373 477 c 128,-1,49
 328 416 328 416 328 346 c 0,50,51
 328 299 328 299 353.5 258 c 128,-1,52
 379 217 379 217 422.5 192.5 c 128,-1,53
 466 168 466 168 516 168 c 0,54,41
 568 168 568 168 609.5 191 c 128,-1,42
EndSplineSet
EndChar

StartChar: nine
Encoding: 57 57 29
Width: 1024
GlyphClass: 2
Flags: W
LayerCount: 2
Fore
SplineSet
810.5 1147.5 m 128,-1,1
 911 992 911 992 911 676 c 0,2,3
 911 -39 911 -39 473 -39 c 0,4,5
 372 -39 372 -39 273 -1 c 128,-1,6
 174 37 174 37 94 113 c 1,7,-1
 232 267 l 1,8,-1
 244 280 l 1,9,-1
 261 265 l 1,10,11
 263 248 263 248 272.5 235.5 c 128,-1,12
 282 223 282 223 310 206 c 0,13,14
 377 166 377 166 461 166 c 0,15,16
 541 166 541 166 587 200.5 c 128,-1,17
 633 235 633 235 655 309 c 128,-1,18
 677 383 677 383 685 512 c 1,19,20
 594 414 594 414 469 414 c 0,21,22
 373 414 373 414 284.5 471 c 128,-1,23
 196 528 196 528 141 629 c 128,-1,24
 86 730 86 730 86 856 c 0,25,26
 86 980 86 980 141 1082.5 c 128,-1,27
 196 1185 196 1185 294 1244 c 128,-1,28
 392 1303 392 1303 516 1303 c 0,29,0
 710 1303 710 1303 810.5 1147.5 c 128,-1,1
614.5 652.5 m 128,-1,31
 656 689 656 689 690 762 c 1,32,33
 687 896 687 896 667.5 969 c 128,-1,34
 648 1042 648 1042 612.5 1070 c 128,-1,35
 577 1098 577 1098 520 1098 c 0,36,37
 423 1098 423 1098 368 1031 c 128,-1,38
 313 964 313 964 313 842 c 0,39,40
 313 729 313 729 361.5 672.5 c 128,-1,41
 410 616 410 616 500 616 c 0,42,30
 573 616 573 616 614.5 652.5 c 128,-1,31
EndSplineSet
EndChar

StartChar: colon
Encoding: 58 58 30
Width: 1024
GlyphClass: 2
Flags: W
LayerCount: 2
Fore
SplineSet
403 631 m 128,-1,1
 368 650 368 650 347 682.5 c 128,-1,2
 326 715 326 715 326 752 c 256,3,4
 326 789 326 789 347 821 c 128,-1,5
 368 853 368 853 403 872 c 128,-1,6
 438 891 438 891 477 891 c 0,7,8
 514 891 514 891 550 873 c 128,-1,9
 586 855 586 855 608.5 823 c 128,-1,10
 631 791 631 791 631 752 c 0,11,12
 631 715 631 715 610 682.5 c 128,-1,13
 589 650 589 650 553.5 631 c 128,-1,14
 518 612 518 612 477 612 c 0,15,0
 438 612 438 612 403 631 c 128,-1,1
401 -8.5 m 128,-1,17
 366 10 366 10 346 42 c 128,-1,18
 326 74 326 74 326 111 c 0,19,20
 326 149 326 149 347 181.5 c 128,-1,21
 368 214 368 214 403 233 c 128,-1,22
 438 252 438 252 477 252 c 0,23,24
 514 252 514 252 550 233.5 c 128,-1,25
 586 215 586 215 608.5 182.5 c 128,-1,26
 631 150 631 150 631 111 c 0,27,28
 631 74 631 74 610.5 42.5 c 128,-1,29
 590 11 590 11 554.5 -8 c 128,-1,30
 519 -27 519 -27 477 -27 c 0,31,16
 436 -27 436 -27 401 -8.5 c 128,-1,17
EndSplineSet
Substitution2: "equal_colon_equal.liga Single Substitution" LIG2
Substitution2: "colon_equal.liga Single Substitution" LIG
Substitution2: "colon_colon.liga Single Substitution (2nd)" colon_colon.liga
Substitution2: "colon_colon.liga Single Substitution" LIG
EndChar

StartChar: semicolon
Encoding: 59 59 31
Width: 1024
GlyphClass: 2
Flags: W
LayerCount: 2
Fore
SplineSet
403 631 m 128,-1,1
 368 650 368 650 347 682.5 c 128,-1,2
 326 715 326 715 326 752 c 256,3,4
 326 789 326 789 347 821 c 128,-1,5
 368 853 368 853 403 872 c 128,-1,6
 438 891 438 891 477 891 c 0,7,8
 514 891 514 891 550 873 c 128,-1,9
 586 855 586 855 608.5 823 c 128,-1,10
 631 791 631 791 631 752 c 0,11,12
 631 715 631 715 610 682.5 c 128,-1,13
 589 650 589 650 553.5 631 c 128,-1,14
 518 612 518 612 477 612 c 0,15,0
 438 612 438 612 403 631 c 128,-1,1
289 -242 m 1,16,17
 347 -188 347 -188 385.5 -130.5 c 128,-1,18
 424 -73 424 -73 424 -41 c 0,19,20
 424 -32 424 -32 415.5 -22 c 128,-1,21
 407 -12 407 -12 389 5 c 0,22,23
 360 32 360 32 343 55 c 128,-1,24
 326 78 326 78 326 106 c 0,25,26
 326 146 326 146 345 179 c 128,-1,27
 364 212 364 212 398.5 231 c 128,-1,28
 433 250 433 250 477 250 c 256,29,30
 521 250 521 250 560 225.5 c 128,-1,31
 599 201 599 201 623 158 c 128,-1,32
 647 115 647 115 647 61 c 0,33,34
 647 -20 647 -20 587 -120.5 c 128,-1,35
 527 -221 527 -221 406 -346 c 1,36,-1
 289 -242 l 1,16,17
EndSplineSet
EndChar

StartChar: less
Encoding: 60 60 32
Width: 1024
GlyphClass: 2
Flags: W
LayerCount: 2
Fore
SplineSet
66 604 m 5,0,-1
 66 723 l 5,1,-1
 954 1192 l 5,2,-1
 954 989 l 5,3,-1
 315 662 l 5,4,-1
 961 299 l 5,5,-1
 961 80 l 5,6,-1
 66 604 l 5,0,-1
EndSplineSet
Substitution2: "less_period_greater.liga Single Substitution" LIG
Substitution2: "less_asterisk_greater.liga Single Substitution" LIG
Substitution2: "less_plus_greater.liga Single Substitution" LIG
Substitution2: "less_exclam_greater.liga Single Substitution" LIG
Substitution2: "less_hyphen_greater.liga Single Substitution" LIG
Substitution2: "less_backslash_greater.liga Single Substitution" LIG
Substitution2: "less_slash_greater.liga Single Substitution" LIG
Substitution2: "less_question_greater.liga Single Substitution" LIG
Substitution2: "less_dollar_greater.liga Single Substitution" LIG
Substitution2: "less_bar_greater.liga Single Substitution" LIG
Substitution2: "hyphen_less_less.liga Single Substitution (1rd)" hyphen_less_less.liga
Substitution2: "hyphen_less_less.liga Single Substitution" LIG2
Substitution2: "less_less_less.liga Single Substitution (1rd)" less_less_less.liga
Substitution2: "less_less_less.liga Single Substitution (2nd)" LIG2
Substitution2: "less_less_less.liga Single Substitution" LIG
Substitution2: "less_equal_greater.liga Single Substitution" LIG
Substitution2: "less_equal_less.liga Single Substitution (1rd)" less_equal_less.liga
Substitution2: "less_equal_less.liga Single Substitution" LIG
Substitution2: "equal_less_less.liga Single Substitution (1rd)" equal_less_less.liga
Substitution2: "equal_less_less.liga Single Substitution" LIG2
Substitution2: "hyphen_less.liga Single Substitution" hyphen_less.liga
Substitution2: "less_asterisk.liga Single Substitution" LIG
Substitution2: "less_bar.liga Single Substitution" LIG
Substitution2: "less_hyphen.liga Single Substitution" LIG
Substitution2: "less_greater.liga Single Substitution" LIG
Substitution2: "less_less.liga Single Substitution (2nd)" less_less.liga
Substitution2: "less_less.liga Single Substitution" LIG
EndChar

StartChar: equal
Encoding: 61 61 33
Width: 1024
GlyphClass: 2
Flags: W
LayerCount: 2
Fore
SplineSet
84 940 m 5,0,-1
 950 940 l 5,1,-1
 950 766 l 5,2,-1
 84 766 l 5,3,-1
 84 940 l 5,0,-1
84 563 m 5,4,-1
 950 563 l 5,5,-1
 950 389 l 5,6,-1
 84 389 l 5,7,-1
 84 563 l 5,4,-1
EndSplineSet
Substitution2: "equal_colon_equal.liga Single Substitution (1rd)" equal_colon_equal.liga
Substitution2: "equal_colon_equal.liga Single Substitution" LIG
Substitution2: "equal_exclam_equal.liga Single Substitution (1rd)" equal_exclam_equal.liga
Substitution2: "equal_exclam_equal.liga Single Substitution" LIG
Substitution2: "less_equal_greater.liga Single Substitution" LIG2
Substitution2: "less_equal_less.liga Single Substitution" LIG2
Substitution2: "greater_equal_greater.liga Single Substitution" LIG2
Substitution2: "equal_less_less.liga Single Substitution" LIG
Substitution2: "greater_greater_equal.liga Single Substitution" greater_greater_equal.liga
Substitution2: "equal_equal_equal.liga Single Substitution (1rd)" equal_equal_equal.liga
Substitution2: "equal_equal_equal.liga Single Substitution (2nd)" LIG2
Substitution2: "equal_equal_equal.liga Single Substitution" LIG
Substitution2: "colon_equal.liga Single Substitution" colon_equal.liga
Substitution2: "asterisk_equal.liga Single Substitution" asterisk_equal.liga
Substitution2: "asciicircum_equal.liga Single Substitution" asciicircum_equal.liga
Substitution2: "question_equal.liga Single Substitution" question_equal.liga
Substitution2: "slash_equal.liga Single Substitution" slash_equal.liga
Substitution2: "exclam_equal.liga Single Substitution" exclam_equal.liga
Substitution2: "equal_greater.liga Single Substitution" LIG
Substitution2: "equal_equal.liga Single Substitution (2nd)" equal_equal.liga
Substitution2: "equal_equal.liga Single Substitution" LIG
EndChar

StartChar: greater
Encoding: 62 62 34
Width: 1024
GlyphClass: 2
Flags: W
LayerCount: 2
Fore
SplineSet
76 299 m 1,0,-1
 719 662 l 1,1,-1
 78 989 l 1,2,-1
 78 1192 l 1,3,-1
 971 723 l 1,4,-1
 971 604 l 1,5,-1
 76 80 l 1,6,-1
 76 299 l 1,0,-1
EndSplineSet
Substitution2: "less_period_greater.liga Single Substitution" less_period_greater.liga
Substitution2: "less_asterisk_greater.liga Single Substitution" less_asterisk_greater.liga
Substitution2: "less_plus_greater.liga Single Substitution" less_plus_greater.liga
Substitution2: "less_exclam_greater.liga Single Substitution" less_exclam_greater.liga
Substitution2: "less_hyphen_greater.liga Single Substitution" less_hyphen_greater.liga
Substitution2: "less_backslash_greater.liga Single Substitution" less_backslash_greater.liga
Substitution2: "less_slash_greater.liga Single Substitution" less_slash_greater.liga
Substitution2: "less_question_greater.liga Single Substitution" less_question_greater.liga
Substitution2: "less_dollar_greater.liga Single Substitution" less_dollar_greater.liga
Substitution2: "less_bar_greater.liga Single Substitution" less_bar_greater.liga
Substitution2: "greater_greater_hyphen.liga Single Substitution (2nd)" LIG2
Substitution2: "greater_greater_hyphen.liga Single Substitution" LIG
Substitution2: "greater_greater_greater.liga Single Substitution (1rd)" greater_greater_greater.liga
Substitution2: "greater_greater_greater.liga Single Substitution (2nd)" LIG2
Substitution2: "greater_greater_greater.liga Single Substitution" LIG
Substitution2: "less_equal_greater.liga Single Substitution" less_equal_greater.liga
Substitution2: "greater_equal_greater.liga Single Substitution (1rd)" greater_equal_greater.liga
Substitution2: "greater_equal_greater.liga Single Substitution" LIG
Substitution2: "greater_greater_equal.liga Single Substitution (2nd)" LIG2
Substitution2: "greater_greater_equal.liga Single Substitution" LIG
Substitution2: "greater_hyphen.liga Single Substitution" LIG
Substitution2: "asterisk_greater.liga Single Substitution" asterisk_greater.liga
Substitution2: "bar_greater.liga Single Substitution" bar_greater.liga
Substitution2: "hyphen_greater.liga Single Substitution" hyphen_greater.liga
Substitution2: "less_greater.liga Single Substitution" less_greater.liga
Substitution2: "greater_greater.liga Single Substitution (2nd)" greater_greater.liga
Substitution2: "greater_greater.liga Single Substitution" LIG
Substitution2: "equal_greater.liga Single Substitution" equal_greater.liga
EndChar

StartChar: question
Encoding: 63 63 35
Width: 1024
GlyphClass: 2
Flags: W
LayerCount: 2
Fore
SplineSet
432 492 m 2,0,1
 432 554 432 554 452.5 605.5 c 128,-1,2
 473 657 473 657 502.5 695.5 c 128,-1,3
 532 734 532 734 581 786 c 0,4,5
 624 831 624 831 649.5 863.5 c 128,-1,6
 675 896 675 896 692 936 c 128,-1,7
 709 976 709 976 709 1022 c 0,8,9
 709 1101 709 1101 661.5 1147.5 c 128,-1,10
 614 1194 614 1194 522 1194 c 0,11,12
 397 1194 397 1194 309 1098 c 0,13,14
 288 1074 288 1074 282 1059 c 128,-1,15
 276 1044 276 1044 278 1026 c 1,16,-1
 264 1007 l 1,17,-1
 250 1018 l 1,18,-1
 113 1141 l 1,19,20
 186 1251 186 1251 295 1313.5 c 128,-1,21
 404 1376 404 1376 530 1376 c 0,22,23
 644 1376 644 1376 730.5 1327 c 128,-1,24
 817 1278 817 1278 864 1197.5 c 128,-1,25
 911 1117 911 1117 911 1026 c 0,26,27
 911 956 911 956 891 903.5 c 128,-1,28
 871 851 871 851 842 815.5 c 128,-1,29
 813 780 813 780 764 733 c 0,30,31
 720 691 720 691 694.5 660.5 c 128,-1,32
 669 630 669 630 652 588 c 128,-1,33
 635 546 635 546 635 492 c 2,34,-1
 635 379 l 1,35,-1
 432 379 l 1,36,-1
 432 492 l 2,0,1
468.5 -8.5 m 128,-1,38
 436 10 436 10 417.5 42.5 c 128,-1,39
 399 75 399 75 399 113 c 0,40,41
 399 150 399 150 417.5 181.5 c 128,-1,42
 436 213 436 213 468.5 231.5 c 128,-1,43
 501 250 501 250 539 250 c 0,44,45
 576 250 576 250 607.5 231.5 c 128,-1,46
 639 213 639 213 657.5 181.5 c 128,-1,47
 676 150 676 150 676 113 c 0,48,49
 676 75 676 75 657.5 42.5 c 128,-1,50
 639 10 639 10 607.5 -8.5 c 128,-1,51
 576 -27 576 -27 539 -27 c 0,52,37
 501 -27 501 -27 468.5 -8.5 c 128,-1,38
EndSplineSet
Substitution2: "less_question_greater.liga Single Substitution" LIG2
Substitution2: "question_equal.liga Single Substitution" LIG
EndChar

StartChar: at
Encoding: 64 64 36
Width: 1024
GlyphClass: 2
Flags: W
LayerCount: 2
Fore
SplineSet
324 48.5 m 128,-1,1
 199 126 199 126 125 279.5 c 128,-1,2
 51 433 51 433 51 649 c 0,3,4
 51 861 51 861 123 1010.5 c 128,-1,5
 195 1160 195 1160 311 1234.5 c 128,-1,6
 427 1309 427 1309 557 1309 c 0,7,8
 751 1309 751 1309 860 1176 c 128,-1,9
 969 1043 969 1043 969 776 c 2,10,-1
 969 334 l 1,11,-1
 782 334 l 1,12,-1
 782 397 l 1,13,14
 755 363 755 363 709 341 c 128,-1,15
 663 319 663 319 612 319 c 0,16,17
 534 319 534 319 470.5 356 c 128,-1,18
 407 393 407 393 370.5 457.5 c 128,-1,19
 334 522 334 522 334 602 c 0,20,21
 334 758 334 758 440 842.5 c 128,-1,22
 546 927 546 927 768 930 c 1,23,24
 759 1028 759 1028 700 1087.5 c 128,-1,25
 641 1147 641 1147 551 1147 c 0,26,27
 471 1147 471 1147 399.5 1091 c 128,-1,28
 328 1035 328 1035 284 923 c 128,-1,29
 240 811 240 811 240 651 c 0,30,31
 240 492 240 492 291 375.5 c 128,-1,32
 342 259 342 259 427.5 198 c 128,-1,33
 513 137 513 137 614 137 c 0,34,35
 738 137 738 137 836 221 c 1,36,-1
 918 70 l 1,37,38
 848 16 848 16 771.5 -6.5 c 128,-1,39
 695 -29 695 -29 602 -29 c 0,40,0
 449 -29 449 -29 324 48.5 c 128,-1,1
722 512 m 128,-1,42
 752 543 752 543 764 606 c 128,-1,43
 776 669 776 669 776 776 c 1,44,45
 695 775 695 775 639.5 753 c 128,-1,46
 584 731 584 731 557 695 c 128,-1,47
 530 659 530 659 530 616 c 0,48,49
 530 555 530 555 559.5 518 c 128,-1,50
 589 481 589 481 637 481 c 0,51,41
 692 481 692 481 722 512 c 128,-1,42
EndSplineSet
EndChar

StartChar: A
Encoding: 65 65 37
Width: 1024
GlyphClass: 2
Flags: W
LayerCount: 2
Fore
SplineSet
675 330 m 1,0,-1
 349 330 l 1,1,-1
 256 0 l 1,2,-1
 20 0 l 1,3,-1
 446 1276 l 1,4,-1
 580 1276 l 1,5,-1
 1006 0 l 1,6,-1
 766 0 l 1,7,-1
 675 330 l 1,0,-1
631 489 m 1,8,-1
 514 913 l 1,9,-1
 394 489 l 1,10,-1
 631 489 l 1,8,-1
EndSplineSet
EndChar

StartChar: B
Encoding: 66 66 38
Width: 1024
GlyphClass: 2
Flags: W
LayerCount: 2
Fore
SplineSet
82 1276 m 1,0,-1
 469 1276 l 2,1,2
 693 1276 693 1276 804 1187.5 c 128,-1,3
 915 1099 915 1099 915 946 c 0,4,5
 915 869 915 869 873 796 c 128,-1,6
 831 723 831 723 760 684 c 1,7,8
 819 656 819 656 865.5 606.5 c 128,-1,9
 912 557 912 557 938.5 496.5 c 128,-1,10
 965 436 965 436 965 375 c 0,11,12
 965 200 965 200 840.5 100 c 128,-1,13
 716 0 716 0 467 0 c 2,14,-1
 82 0 l 1,15,-1
 82 1276 l 1,0,-1
451 778 m 2,16,17
 574 778 574 778 629 820 c 128,-1,18
 684 862 684 862 684 934 c 0,19,20
 684 975 684 975 660.5 1009.5 c 128,-1,21
 637 1044 637 1044 589 1064.5 c 128,-1,22
 541 1085 541 1085 471 1085 c 2,23,-1
 311 1085 l 1,24,-1
 311 778 l 1,25,-1
 451 778 l 2,16,17
489 195 m 2,26,27
 604 195 604 195 664.5 237.5 c 128,-1,28
 725 280 725 280 725 381 c 0,29,30
 725 477 725 477 660.5 534.5 c 128,-1,31
 596 592 596 592 457 592 c 2,32,-1
 311 592 l 1,33,-1
 311 195 l 1,34,-1
 489 195 l 2,26,27
EndSplineSet
EndChar

StartChar: C
Encoding: 67 67 39
Width: 1024
GlyphClass: 2
Flags: W
LayerCount: 2
Fore
SplineSet
305 37 m 128,-1,1
 191 111 191 111 125 261.5 c 128,-1,2
 59 412 59 412 59 631 c 0,3,4
 59 868 59 868 135.5 1020 c 128,-1,5
 212 1172 212 1172 330.5 1240.5 c 128,-1,6
 449 1309 449 1309 582 1309 c 0,7,8
 727 1309 727 1309 833 1232 c 128,-1,9
 939 1155 939 1155 997 1018 c 1,10,-1
 831 937 l 1,11,-1
 815 929 l 1,12,-1
 805 950 l 1,13,14
 808 959 808 959 808 969 c 0,15,16
 808 990 808 990 784 1026 c 0,17,18
 715 1124 715 1124 588 1124 c 0,19,20
 440 1124 440 1124 368.5 996 c 128,-1,21
 297 868 297 868 297 641 c 0,22,23
 297 502 297 502 332.5 389.5 c 128,-1,24
 368 277 368 277 432.5 212 c 128,-1,25
 497 147 497 147 578 147 c 0,26,27
 708 147 708 147 809 326 c 1,28,-1
 983 213 l 1,29,30
 911 90 911 90 805 26.5 c 128,-1,31
 699 -37 699 -37 563 -37 c 0,32,0
 419 -37 419 -37 305 37 c 128,-1,1
EndSplineSet
EndChar

StartChar: D
Encoding: 68 68 40
Width: 1024
GlyphClass: 2
Flags: W
LayerCount: 2
Fore
SplineSet
90 1276 m 1,0,-1
 420 1276 l 2,1,2
 583 1276 583 1276 679.5 1232.5 c 128,-1,3
 776 1189 776 1189 844 1098 c 0,4,5
 975 920 975 920 975 629 c 0,6,7
 975 327 975 327 834.5 163.5 c 128,-1,8
 694 0 694 0 395 0 c 2,9,-1
 90 0 l 1,10,-1
 90 1276 l 1,0,-1
391 180 m 2,11,12
 570 180 570 180 657.5 293 c 128,-1,13
 745 406 745 406 745 623 c 0,14,15
 745 1085 745 1085 412 1085 c 2,16,-1
 313 1085 l 1,17,-1
 313 180 l 1,18,-1
 391 180 l 2,11,12
EndSplineSet
EndChar

StartChar: E
Encoding: 69 69 41
Width: 1024
GlyphClass: 2
Flags: W
LayerCount: 2
Fore
SplineSet
115 1276 m 1,0,-1
 946 1276 l 1,1,-1
 946 1079 l 1,2,-1
 338 1079 l 1,3,-1
 338 764 l 1,4,-1
 842 764 l 1,5,-1
 842 563 l 1,6,-1
 338 563 l 1,7,-1
 338 197 l 1,8,-1
 942 197 l 1,9,-1
 942 0 l 1,10,-1
 115 0 l 1,11,-1
 115 1276 l 1,0,-1
EndSplineSet
EndChar

StartChar: F
Encoding: 70 70 42
Width: 1024
GlyphClass: 2
Flags: W
LayerCount: 2
Fore
SplineSet
139 1276 m 1,0,-1
 932 1276 l 1,1,-1
 932 1081 l 1,2,-1
 369 1081 l 1,3,-1
 369 782 l 1,4,-1
 823 782 l 1,5,-1
 823 590 l 1,6,-1
 369 590 l 1,7,-1
 369 0 l 1,8,-1
 139 0 l 1,9,-1
 139 1276 l 1,0,-1
EndSplineSet
EndChar

StartChar: G
Encoding: 71 71 43
Width: 1024
GlyphClass: 2
Flags: W
LayerCount: 2
Fore
SplineSet
272 48 m 128,-1,1
 155 133 155 133 94 285.5 c 128,-1,2
 33 438 33 438 33 639 c 0,3,4
 33 887 33 887 118 1037 c 128,-1,5
 203 1187 203 1187 321.5 1248 c 128,-1,6
 440 1309 440 1309 553 1309 c 0,7,8
 681 1309 681 1309 787 1241.5 c 128,-1,9
 893 1174 893 1174 956 1059 c 1,10,-1
 802 910 l 1,11,-1
 790 898 l 1,12,-1
 774 914 l 2,13,14
 774 917 774 917 773 930.5 c 128,-1,15
 772 944 772 944 766 959 c 128,-1,16
 760 974 760 974 749 991 c 0,17,18
 714 1046 714 1046 668 1080 c 128,-1,19
 622 1114 622 1114 549 1114 c 0,20,21
 475 1114 475 1114 412 1067 c 128,-1,22
 349 1020 349 1020 309.5 916.5 c 128,-1,23
 270 813 270 813 270 653 c 0,24,25
 270 502 270 502 306 389.5 c 128,-1,26
 342 277 342 277 406.5 217.5 c 128,-1,27
 471 158 471 158 553 158 c 0,28,29
 666 158 666 158 735 211 c 1,30,-1
 735 451 l 1,31,-1
 518 451 l 1,32,-1
 518 645 l 1,33,-1
 952 645 l 1,34,-1
 952 109 l 1,35,36
 861 33 861 33 764 -2 c 128,-1,37
 667 -37 667 -37 553 -37 c 0,38,0
 389 -37 389 -37 272 48 c 128,-1,1
EndSplineSet
EndChar

StartChar: H
Encoding: 72 72 44
Width: 1024
GlyphClass: 2
Flags: W
LayerCount: 2
Fore
SplineSet
88 1276 m 1,0,-1
 340 1276 l 1,1,-1
 340 1253 l 1,2,3
 329 1241 329 1241 326 1226.5 c 128,-1,4
 323 1212 323 1212 324 1178 c 2,5,-1
 324 758 l 1,6,-1
 700 758 l 1,7,-1
 700 1276 l 1,8,-1
 952 1276 l 1,9,-1
 952 1253 l 1,10,11
 941 1241 941 1241 938 1226.5 c 128,-1,12
 935 1212 935 1212 936 1178 c 2,13,-1
 936 0 l 1,14,-1
 700 0 l 1,15,-1
 700 567 l 1,16,-1
 324 567 l 1,17,-1
 324 0 l 1,18,-1
 88 0 l 1,19,-1
 88 1276 l 1,0,-1
EndSplineSet
EndChar

StartChar: I
Encoding: 73 73 45
Width: 1024
GlyphClass: 2
Flags: W
LayerCount: 2
Fore
SplineSet
150 190 m 1,0,-1
 397 190 l 1,1,-1
 397 1085 l 1,2,-1
 162 1085 l 1,3,-1
 162 1276 l 1,4,-1
 874 1276 l 1,5,-1
 874 1085 l 1,6,-1
 627 1085 l 1,7,-1
 627 188 l 1,8,-1
 885 188 l 1,9,-1
 885 0 l 1,10,-1
 150 0 l 1,11,-1
 150 190 l 1,0,-1
EndSplineSet
EndChar

StartChar: J
Encoding: 74 74 46
Width: 1024
GlyphClass: 2
Flags: W
LayerCount: 2
Fore
SplineSet
204 10.5 m 128,-1,1
 117 56 117 56 51 143 c 1,2,-1
 181 291 l 1,3,-1
 193 305 l 1,4,-1
 210 290 l 2,5,6
 211 285 211 285 212 271 c 128,-1,7
 213 257 213 257 220 243 c 128,-1,8
 227 229 227 229 242 214 c 0,9,10
 269 187 269 187 300 174.5 c 128,-1,11
 331 162 331 162 369 162 c 0,12,13
 426 162 426 162 461 190 c 128,-1,14
 496 218 496 218 512 278.5 c 128,-1,15
 528 339 528 339 528 438 c 2,16,-1
 528 1085 l 1,17,-1
 291 1085 l 1,18,-1
 291 1276 l 1,19,-1
 950 1276 l 1,20,-1
 950 1085 l 1,21,-1
 758 1085 l 1,22,-1
 758 412 l 2,23,24
 758 262 758 262 709.5 161.5 c 128,-1,25
 661 61 661 61 578.5 13 c 128,-1,26
 496 -35 496 -35 393 -35 c 0,27,0
 291 -35 291 -35 204 10.5 c 128,-1,1
EndSplineSet
EndChar

StartChar: K
Encoding: 75 75 47
Width: 1024
GlyphClass: 2
Flags: W
LayerCount: 2
Fore
SplineSet
379 582 m 1,0,-1
 324 522 l 1,1,-1
 324 0 l 1,2,-1
 88 0 l 1,3,-1
 88 1276 l 1,4,-1
 340 1276 l 1,5,-1
 340 1253 l 1,6,7
 329 1241 329 1241 326 1226.5 c 128,-1,8
 323 1212 323 1212 324 1178 c 2,9,-1
 324 788 l 1,10,-1
 758 1292 l 1,11,12
 830 1276 830 1276 877 1276 c 2,13,-1
 1018 1276 l 1,14,-1
 543 733 l 1,15,-1
 1036 2 l 1,16,-1
 758 -10 l 1,17,-1
 379 582 l 1,0,-1
EndSplineSet
EndChar

StartChar: L
Encoding: 76 76 48
Width: 1024
GlyphClass: 2
Flags: W
LayerCount: 2
Fore
SplineSet
125 1276 m 1,0,-1
 376 1276 l 1,1,-1
 376 1253 l 1,2,3
 365 1241 365 1241 362 1226.5 c 128,-1,4
 359 1212 359 1212 360 1178 c 2,5,-1
 360 193 l 1,6,-1
 940 193 l 1,7,-1
 940 0 l 1,8,-1
 125 0 l 1,9,-1
 125 1276 l 1,0,-1
EndSplineSet
EndChar

StartChar: M
Encoding: 77 77 49
Width: 1024
GlyphClass: 2
Flags: W
LayerCount: 2
Fore
SplineSet
61 1276 m 1,0,-1
 303 1276 l 1,1,-1
 518 676 l 1,2,-1
 731 1278 l 1,3,-1
 975 1278 l 1,4,-1
 975 0 l 1,5,-1
 768 0 l 1,6,-1
 768 926 l 1,7,-1
 590 444 l 1,8,-1
 438 444 l 1,9,-1
 266 926 l 1,10,-1
 266 0 l 1,11,-1
 61 0 l 1,12,-1
 61 1276 l 1,0,-1
EndSplineSet
EndChar

StartChar: N
Encoding: 78 78 50
Width: 1024
GlyphClass: 2
Flags: W
LayerCount: 2
Fore
SplineSet
66 1276 m 1,0,-1
 346 1276 l 1,1,-1
 752 362 l 1,2,-1
 752 1276 l 1,3,-1
 974 1276 l 1,4,-1
 974 1253 l 1,5,6
 963 1241 963 1241 960 1226.5 c 128,-1,7
 957 1212 957 1212 958 1178 c 2,8,-1
 958 0 l 1,9,-1
 705 0 l 1,10,-1
 272 965 l 1,11,-1
 272 0 l 1,12,-1
 66 0 l 1,13,-1
 66 1276 l 1,0,-1
EndSplineSet
EndChar

StartChar: O
Encoding: 79 79 51
Width: 1024
GlyphClass: 2
Flags: W
LayerCount: 2
Fore
SplineSet
258.5 43.5 m 128,-1,1
 150 124 150 124 92.5 276.5 c 128,-1,2
 35 429 35 429 35 641 c 0,3,4
 35 850 35 850 92.5 1000 c 128,-1,5
 150 1150 150 1150 258.5 1229.5 c 128,-1,6
 367 1309 367 1309 518 1309 c 256,7,8
 669 1309 669 1309 777.5 1229.5 c 128,-1,9
 886 1150 886 1150 943.5 1000 c 128,-1,10
 1001 850 1001 850 1001 641 c 0,11,12
 1001 429 1001 429 943.5 276.5 c 128,-1,13
 886 124 886 124 777.5 43.5 c 128,-1,14
 669 -37 669 -37 518 -37 c 256,15,0
 367 -37 367 -37 258.5 43.5 c 128,-1,1
649.5 209.5 m 128,-1,17
 705 272 705 272 734.5 386.5 c 128,-1,18
 764 501 764 501 764 653 c 0,19,20
 764 794 764 794 734.5 900.5 c 128,-1,21
 705 1007 705 1007 649.5 1065.5 c 128,-1,22
 594 1124 594 1124 518 1124 c 0,23,24
 443 1124 443 1124 387 1065.5 c 128,-1,25
 331 1007 331 1007 301.5 900.5 c 128,-1,26
 272 794 272 794 272 653 c 0,27,28
 272 501 272 501 301.5 386.5 c 128,-1,29
 331 272 331 272 386.5 209.5 c 128,-1,30
 442 147 442 147 518 147 c 256,31,16
 594 147 594 147 649.5 209.5 c 128,-1,17
EndSplineSet
EndChar

StartChar: P
Encoding: 80 80 52
Width: 1024
GlyphClass: 2
Flags: W
LayerCount: 2
Fore
SplineSet
102 1276 m 1,0,-1
 535 1276 l 2,1,2
 681 1276 681 1276 777 1225 c 128,-1,3
 873 1174 873 1174 919 1087.5 c 128,-1,4
 965 1001 965 1001 965 893 c 256,5,6
 965 785 965 785 920 700 c 128,-1,7
 875 615 875 615 781 565.5 c 128,-1,8
 687 516 687 516 545 516 c 2,9,-1
 336 516 l 1,10,-1
 336 0 l 1,11,-1
 102 0 l 1,12,-1
 102 1276 l 1,0,-1
528 711 m 2,13,14
 630 711 630 711 679.5 759 c 128,-1,15
 729 807 729 807 729 887 c 0,16,17
 729 971 729 971 678.5 1022 c 128,-1,18
 628 1073 628 1073 530 1073 c 2,19,-1
 336 1073 l 1,20,-1
 336 711 l 1,21,-1
 528 711 l 2,13,14
EndSplineSet
EndChar

StartChar: Q
Encoding: 81 81 53
Width: 1024
GlyphClass: 2
Flags: W
LayerCount: 2
Fore
SplineSet
487.5 -234 m 128,-1,1
 406 -169 406 -169 401 -23 c 1,2,3
 286 8 286 8 203.5 99.5 c 128,-1,4
 121 191 121 191 78 330.5 c 128,-1,5
 35 470 35 470 35 641 c 0,6,7
 35 838 35 838 94 989.5 c 128,-1,8
 153 1141 153 1141 262 1225 c 128,-1,9
 371 1309 371 1309 516 1309 c 0,10,11
 648 1309 648 1309 755 1234 c 128,-1,12
 862 1159 862 1159 925.5 1008 c 128,-1,13
 989 857 989 857 989 639 c 0,14,15
 989 439 989 439 939.5 299.5 c 128,-1,16
 890 160 890 160 807.5 82 c 128,-1,17
 725 4 725 4 621 -23 c 1,18,19
 624 -60 624 -60 646.5 -80.5 c 128,-1,20
 669 -101 669 -101 711 -100 c 2,21,-1
 913 -92 l 1,22,-1
 907 -299 l 1,23,-1
 743 -299 l 2,24,0
 569 -299 569 -299 487.5 -234 c 128,-1,1
684.5 282.5 m 128,-1,26
 750 393 750 393 750 643 c 0,27,28
 750 804 750 804 716.5 907.5 c 128,-1,29
 683 1011 683 1011 630 1057.5 c 128,-1,30
 577 1104 577 1104 518 1104 c 0,31,32
 408 1104 408 1104 340 999 c 128,-1,33
 272 894 272 894 272 653 c 0,34,35
 272 500 272 500 303 391.5 c 128,-1,36
 334 283 334 283 389 227.5 c 128,-1,37
 444 172 444 172 516 172 c 0,38,25
 619 172 619 172 684.5 282.5 c 128,-1,26
EndSplineSet
EndChar

StartChar: R
Encoding: 82 82 54
Width: 1024
GlyphClass: 2
Flags: W
LayerCount: 2
Fore
SplineSet
96 1276 m 1,0,-1
 500 1276 l 2,1,2
 729 1276 729 1276 837.5 1175.5 c 128,-1,3
 946 1075 946 1075 946 895 c 0,4,5
 946 825 946 825 915.5 755 c 128,-1,6
 885 685 885 685 829.5 631.5 c 128,-1,7
 774 578 774 578 702 555 c 1,8,-1
 1001 0 l 1,9,-1
 743 0 l 1,10,-1
 479 528 l 1,11,-1
 330 528 l 1,12,-1
 330 0 l 1,13,-1
 96 0 l 1,14,-1
 96 1276 l 1,0,-1
514 723 m 2,15,16
 613 723 613 723 662 769 c 128,-1,17
 711 815 711 815 711 895 c 0,18,19
 711 985 711 985 663.5 1029 c 128,-1,20
 616 1073 616 1073 514 1073 c 2,21,-1
 330 1073 l 1,22,-1
 330 723 l 1,23,-1
 514 723 l 2,15,16
EndSplineSet
EndChar

StartChar: S
Encoding: 83 83 55
Width: 1024
GlyphClass: 2
Flags: W
LayerCount: 2
Fore
SplineSet
57 141 m 1,1,-1
 157 315 l 1,2,-1
 166 331 l 1,3,-1
 186 319 l 2,4,5
 187 315 187 315 191.5 302 c 128,-1,6
 196 289 196 289 205 276.5 c 128,-1,7
 214 264 214 264 230 252 c 0,8,9
 354 160 354 160 508 160 c 0,10,11
 604 160 604 160 656.5 205 c 128,-1,12
 709 250 709 250 709 340 c 0,13,14
 709 385 709 385 686.5 421.5 c 128,-1,15
 664 458 664 458 609.5 495 c 128,-1,16
 555 532 555 532 459 575 c 0,17,18
 281 652 281 652 201 748 c 128,-1,19
 121 844 121 844 121 971 c 0,20,21
 121 1063 121 1063 172.5 1140.5 c 128,-1,22
 224 1218 224 1218 314.5 1263.5 c 128,-1,23
 405 1309 405 1309 518 1309 c 0,24,25
 645 1309 645 1309 737 1267 c 128,-1,26
 829 1225 829 1225 913 1137 c 1,27,-1
 798 977 l 1,28,-1
 788 962 l 1,29,-1
 769 975 l 1,30,31
 768 981 768 981 765.5 995 c 128,-1,32
 763 1009 763 1009 755.5 1022.5 c 128,-1,33
 748 1036 748 1036 733 1049 c 0,34,35
 647 1120 647 1120 516 1120 c 0,36,37
 460 1120 460 1120 419.5 1100.5 c 128,-1,38
 379 1081 379 1081 358.5 1049 c 128,-1,39
 338 1017 338 1017 338 979 c 0,40,41
 338 934 338 934 361.5 899.5 c 128,-1,42
 385 865 385 865 442 828.5 c 128,-1,43
 499 792 499 792 608 739 c 0,44,45
 738 677 738 677 810 619.5 c 128,-1,46
 882 562 882 562 912 499 c 128,-1,47
 942 436 942 436 942 352 c 0,48,49
 942 250 942 250 895 161.5 c 128,-1,50
 848 73 848 73 746.5 18 c 128,-1,51
 645 -37 645 -37 489 -37 c 0,52,0
 240 -37 240 -37 57 141 c 1,1,-1
EndSplineSet
EndChar

StartChar: T
Encoding: 84 84 56
Width: 1024
GlyphClass: 2
Flags: W
LayerCount: 2
Fore
SplineSet
387 1077 m 1,0,-1
 41 1077 l 1,1,-1
 41 1276 l 1,2,-1
 981 1276 l 1,3,-1
 981 1077 l 1,4,-1
 621 1077 l 1,5,-1
 621 0 l 1,6,-1
 387 0 l 1,7,-1
 387 1077 l 1,0,-1
EndSplineSet
EndChar

StartChar: U
Encoding: 85 85 57
Width: 1024
GlyphClass: 2
Flags: W
LayerCount: 2
Fore
SplineSet
187.5 97.5 m 128,-1,1
 76 224 76 224 76 451 c 2,2,-1
 76 1276 l 1,3,-1
 321 1276 l 1,4,-1
 321 1253 l 1,5,6
 310 1241 310 1241 307 1226.5 c 128,-1,7
 304 1212 304 1212 305 1178 c 2,8,-1
 305 449 l 2,9,10
 305 308 305 308 352 235 c 128,-1,11
 399 162 399 162 512 162 c 0,12,13
 628 162 628 162 675.5 236 c 128,-1,14
 723 310 723 310 723 455 c 2,15,-1
 723 1276 l 1,16,-1
 948 1276 l 1,17,-1
 948 457 l 2,18,19
 948 215 948 215 832 93 c 128,-1,20
 716 -29 716 -29 510 -29 c 0,21,0
 299 -29 299 -29 187.5 97.5 c 128,-1,1
EndSplineSet
EndChar

StartChar: V
Encoding: 86 86 58
Width: 1024
GlyphClass: 2
Flags: W
LayerCount: 2
Fore
SplineSet
20 1276 m 1,0,-1
 262 1276 l 1,1,-1
 530 371 l 1,2,-1
 784 1276 l 1,3,-1
 1020 1276 l 1,4,-1
 610 0 l 1,5,-1
 434 0 l 1,6,-1
 20 1276 l 1,0,-1
EndSplineSet
EndChar

StartChar: W
Encoding: 87 87 59
Width: 1024
GlyphClass: 2
Flags: W
LayerCount: 2
Fore
SplineSet
12 1276 m 1,0,-1
 236 1276 l 1,1,-1
 309 434 l 1,2,-1
 459 1171 l 1,3,-1
 606 1171 l 1,4,-1
 756 440 l 1,5,-1
 809 1276 l 1,6,-1
 1022 1276 l 1,7,-1
 870 0 l 1,8,-1
 690 0 l 1,9,-1
 522 776 l 1,10,-1
 352 0 l 1,11,-1
 168 0 l 1,12,-1
 12 1276 l 1,0,-1
EndSplineSet
EndChar

StartChar: X
Encoding: 88 88 60
Width: 1024
GlyphClass: 2
Flags: W
LayerCount: 2
Fore
SplineSet
387 651 m 1,0,-1
 47 1276 l 1,1,-1
 297 1276 l 1,2,-1
 518 858 l 1,3,-1
 733 1276 l 1,4,-1
 971 1276 l 1,5,-1
 653 653 l 1,6,-1
 1012 0 l 1,7,-1
 754 0 l 1,8,-1
 520 438 l 1,9,-1
 293 0 l 1,10,-1
 43 0 l 1,11,-1
 387 651 l 1,0,-1
EndSplineSet
EndChar

StartChar: Y
Encoding: 89 89 61
Width: 1024
GlyphClass: 2
Flags: W
LayerCount: 2
Fore
SplineSet
412 504 m 1,0,-1
 18 1276 l 1,1,-1
 274 1276 l 1,2,-1
 537 760 l 1,3,-1
 770 1276 l 1,4,-1
 1018 1276 l 1,5,-1
 653 502 l 1,6,-1
 653 0 l 1,7,-1
 412 0 l 1,8,-1
 412 504 l 1,0,-1
EndSplineSet
EndChar

StartChar: Z
Encoding: 90 90 62
Width: 1024
GlyphClass: 2
Flags: W
LayerCount: 2
Fore
SplineSet
84 139 m 1,0,-1
 662 1077 l 1,1,-1
 106 1077 l 1,2,-1
 106 1276 l 1,3,-1
 944 1276 l 1,4,-1
 944 1137 l 1,5,-1
 377 197 l 1,6,-1
 876 197 l 2,7,8
 909 197 909 197 924.5 200.5 c 128,-1,9
 940 204 940 204 952 215 c 1,10,-1
 975 215 l 1,11,-1
 975 0 l 1,12,-1
 84 0 l 1,13,-1
 84 139 l 1,0,-1
EndSplineSet
EndChar

StartChar: bracketleft
Encoding: 91 91 63
Width: 1024
GlyphClass: 2
Flags: W
LayerCount: 2
Fore
SplineSet
242 1370 m 1,0,-1
 877 1370 l 1,1,-1
 877 1180 l 1,2,-1
 457 1180 l 1,3,-1
 457 0 l 1,4,-1
 877 0 l 1,5,-1
 877 -184 l 1,6,-1
 242 -184 l 1,7,-1
 242 1370 l 1,0,-1
EndSplineSet
EndChar

StartChar: backslash
Encoding: 92 92 64
Width: 1024
GlyphClass: 2
Flags: W
LayerCount: 2
Fore
SplineSet
104 1280 m 1,0,-1
 283 1374 l 1,1,-1
 922 -10 l 1,2,-1
 743 -96 l 1,3,-1
 104 1280 l 1,0,-1
EndSplineSet
Substitution2: "less_backslash_greater.liga Single Substitution" LIG2
EndChar

StartChar: bracketright
Encoding: 93 93 65
Width: 1024
GlyphClass: 2
Flags: W
LayerCount: 2
Fore
SplineSet
247 -184 m 1,0,-1
 247 0 l 1,1,-1
 667 0 l 1,2,-1
 667 1180 l 1,3,-1
 247 1180 l 1,4,-1
 247 1370 l 1,5,-1
 882 1370 l 1,6,-1
 882 -184 l 1,7,-1
 247 -184 l 1,0,-1
EndSplineSet
EndChar

StartChar: asciicircum
Encoding: 94 94 66
Width: 1024
GlyphClass: 2
Flags: W
LayerCount: 2
Fore
SplineSet
158 760 m 1,0,-1
 469 1280 l 1,1,-1
 543 1280 l 1,2,-1
 856 760 l 1,3,-1
 688 680 l 1,4,-1
 508 1034 l 1,5,-1
 326 680 l 1,6,-1
 158 760 l 1,0,-1
EndSplineSet
Substitution2: "asciicircum_equal.liga Single Substitution" LIG
EndChar

StartChar: underscore
Encoding: 95 95 67
Width: 1024
GlyphClass: 2
Flags: W
LayerCount: 2
Fore
SplineSet
59 -16 m 1,0,-1
 965 -16 l 1,1,-1
 965 -207 l 1,2,-1
 59 -207 l 1,3,-1
 59 -16 l 1,0,-1
EndSplineSet
EndChar

StartChar: a
Encoding: 97 97 68
Width: 1024
GlyphClass: 2
Flags: W
LayerCount: 2
Fore
SplineSet
791.5 893 m 128,-1,1
 905 799 905 799 905 582 c 2,2,-1
 905 0 l 1,3,-1
 686 0 l 1,4,-1
 686 86 l 1,5,6
 631 34 631 34 553.5 4.5 c 128,-1,7
 476 -25 476 -25 387 -25 c 0,8,9
 238 -25 238 -25 160 48.5 c 128,-1,10
 82 122 82 122 82 248 c 0,11,12
 82 350 82 350 146.5 422 c 128,-1,13
 211 494 211 494 332.5 531.5 c 128,-1,14
 454 569 454 569 623 569 c 2,15,-1
 693 569 l 1,16,17
 683 694 683 694 632 747.5 c 128,-1,18
 581 801 581 801 477 801 c 0,19,20
 411 801 411 801 340 766.5 c 128,-1,21
 269 732 269 732 209 670 c 1,22,-1
 92 821 l 1,23,24
 182 903 182 903 285.5 945 c 128,-1,25
 389 987 389 987 489 987 c 0,26,0
 678 987 678 987 791.5 893 c 128,-1,1
622 214 m 128,-1,28
 681 278 681 278 693 416 c 1,29,-1
 647 416 l 2,30,31
 471 416 471 416 390 378 c 128,-1,32
 309 340 309 340 309 258 c 0,33,34
 309 202 309 202 349.5 176 c 128,-1,35
 390 150 390 150 461 150 c 0,36,27
 563 150 563 150 622 214 c 128,-1,28
EndSplineSet
EndChar

StartChar: b
Encoding: 98 98 69
Width: 1024
GlyphClass: 2
Flags: W
LayerCount: 2
Fore
SplineSet
406 1 m 128,-1,1
 340 33 340 33 293 92 c 1,2,-1
 262 0 l 1,3,-1
 102 0 l 1,4,-1
 102 1382 l 1,5,-1
 348 1382 l 1,6,-1
 348 1359 l 1,7,8
 337 1347 337 1347 334 1332.5 c 128,-1,9
 331 1318 331 1318 332 1284 c 2,10,-1
 332 874 l 1,11,12
 376 923 376 923 434.5 950 c 128,-1,13
 493 977 493 977 553 977 c 0,14,15
 663 977 663 977 755 922.5 c 128,-1,16
 847 868 847 868 901.5 760 c 128,-1,17
 956 652 956 652 956 498 c 0,18,19
 956 330 956 330 897.5 210 c 128,-1,20
 839 90 839 90 744.5 29.5 c 128,-1,21
 650 -31 650 -31 545 -31 c 0,22,0
 472 -31 472 -31 406 1 c 128,-1,1
614.5 191 m 128,-1,24
 662 222 662 222 693.5 291 c 128,-1,25
 725 360 725 360 725 467 c 0,26,27
 725 613 725 613 671 702 c 128,-1,28
 617 791 617 791 510 791 c 0,29,30
 408 791 408 791 369 709.5 c 128,-1,31
 330 628 330 628 330 489 c 0,32,33
 330 317 330 317 378 238.5 c 128,-1,34
 426 160 426 160 516 160 c 0,35,23
 567 160 567 160 614.5 191 c 128,-1,24
EndSplineSet
EndChar

StartChar: c
Encoding: 99 99 70
Width: 1024
GlyphClass: 2
Flags: W
LayerCount: 2
Fore
SplineSet
311 32 m 128,-1,1
 201 97 201 97 139.5 211.5 c 128,-1,2
 78 326 78 326 78 469 c 0,3,4
 78 611 78 611 139.5 727 c 128,-1,5
 201 843 201 843 311.5 910 c 128,-1,6
 422 977 422 977 563 977 c 0,7,8
 681 977 681 977 784 929 c 128,-1,9
 887 881 887 881 946 793 c 1,10,-1
 818 643 l 1,11,-1
 807 629 l 1,12,-1
 789 644 l 2,13,14
 788 649 788 649 787 663 c 128,-1,15
 786 677 786 677 779.5 690.5 c 128,-1,16
 773 704 773 704 758 718 c 0,17,18
 685 786 685 786 563 786 c 0,19,20
 493 786 493 786 435.5 746 c 128,-1,21
 378 706 378 706 344.5 633 c 128,-1,22
 311 560 311 560 311 465 c 0,23,24
 311 374 311 374 342.5 306 c 128,-1,25
 374 238 374 238 431 201 c 128,-1,26
 488 164 488 164 561 164 c 0,27,28
 626 164 626 164 688.5 194 c 128,-1,29
 751 224 751 224 805 291 c 1,30,-1
 938 137 l 1,31,32
 861 50 861 50 764.5 8.5 c 128,-1,33
 668 -33 668 -33 561 -33 c 0,34,0
 421 -33 421 -33 311 32 c 128,-1,1
EndSplineSet
EndChar

StartChar: d
Encoding: 100 100 71
Width: 1024
GlyphClass: 2
Flags: W
LayerCount: 2
Fore
SplineSet
262 24.5 m 128,-1,1
 169 80 169 80 115 191.5 c 128,-1,2
 61 303 61 303 61 463 c 0,3,4
 61 619 61 619 116.5 736 c 128,-1,5
 172 853 172 853 265 915 c 128,-1,6
 358 977 358 977 467 977 c 0,7,8
 523 977 523 977 585 950 c 128,-1,9
 647 923 647 923 688 881 c 1,10,-1
 688 1382 l 1,11,-1
 938 1382 l 1,12,-1
 938 1359 l 1,13,14
 927 1347 927 1347 924 1332.5 c 128,-1,15
 921 1318 921 1318 922 1284 c 2,16,-1
 918 115 l 2,17,18
 918 80 918 80 922 53.5 c 128,-1,19
 926 27 926 27 940 0 c 1,20,-1
 717 0 l 1,21,22
 703 26 703 26 700.5 49 c 128,-1,23
 698 72 698 72 698 115 c 1,24,25
 668 43 668 43 603 6 c 128,-1,26
 538 -31 538 -31 469 -31 c 0,27,0
 355 -31 355 -31 262 24.5 c 128,-1,1
690 489 m 0,29,30
 690 627 690 627 650 709 c 128,-1,31
 610 791 610 791 508 791 c 0,32,33
 400 791 400 791 346.5 701 c 128,-1,34
 293 611 293 611 293 467 c 0,35,36
 293 360 293 360 324.5 291 c 128,-1,37
 356 222 356 222 403.5 191 c 128,-1,38
 451 160 451 160 502 160 c 0,39,28
 690 160 690 160 690 489 c 0,29,30
EndSplineSet
EndChar

StartChar: e
Encoding: 101 101 72
Width: 1024
GlyphClass: 2
Flags: W
LayerCount: 2
Fore
SplineSet
307 27 m 128,-1,1
 199 87 199 87 137.5 199.5 c 128,-1,2
 76 312 76 312 76 465 c 0,3,4
 76 620 76 620 134 736 c 128,-1,5
 192 852 192 852 295 914.5 c 128,-1,6
 398 977 398 977 528 977 c 0,7,8
 643 977 643 977 735.5 923.5 c 128,-1,9
 828 870 828 870 882 764.5 c 128,-1,10
 936 659 936 659 936 510 c 0,11,12
 936 486 936 486 932 442 c 2,13,-1
 930 414 l 1,14,-1
 303 414 l 1,15,16
 318 283 318 283 385 216.5 c 128,-1,17
 452 150 452 150 545 150 c 0,18,19
 611 150 611 150 678 180.5 c 128,-1,20
 745 211 745 211 788 266 c 1,21,-1
 915 139 l 1,22,23
 770 -33 770 -33 553 -33 c 0,24,0
 415 -33 415 -33 307 27 c 128,-1,1
707 582 m 1,25,26
 707 642 707 642 683.5 693 c 128,-1,27
 660 744 660 744 616.5 774.5 c 128,-1,28
 573 805 573 805 516 805 c 0,29,30
 432 805 432 805 377 744.5 c 128,-1,31
 322 684 322 684 311 582 c 1,32,-1
 707 582 l 1,25,26
EndSplineSet
EndChar

StartChar: f
Encoding: 102 102 73
Width: 1024
GlyphClass: 2
Flags: W
LayerCount: 2
Fore
SplineSet
285 774 m 1,0,-1
 78 774 l 1,1,-1
 78 956 l 1,2,-1
 285 956 l 1,3,-1
 285 993 l 2,4,5
 285 1121 285 1121 338 1212.5 c 128,-1,6
 391 1304 391 1304 481 1351.5 c 128,-1,7
 571 1399 571 1399 680 1399 c 0,8,9
 864 1399 864 1399 997 1266 c 1,10,-1
 904 1120 l 1,11,-1
 894 1104 l 1,12,-1
 875 1117 l 1,13,14
 869 1137 869 1137 860 1150 c 128,-1,15
 851 1163 851 1163 825 1180 c 0,16,17
 793 1200 793 1200 763.5 1208.5 c 128,-1,18
 734 1217 734 1217 698 1217 c 0,19,20
 604 1217 604 1217 556 1161 c 128,-1,21
 508 1105 508 1105 508 995 c 2,22,-1
 508 956 l 1,23,-1
 801 956 l 1,24,-1
 801 774 l 1,25,-1
 508 774 l 1,26,-1
 508 0 l 1,27,-1
 285 0 l 1,28,-1
 285 774 l 1,0,-1
EndSplineSet
EndChar

StartChar: g
Encoding: 103 103 74
Width: 1024
GlyphClass: 2
Flags: W
LayerCount: 2
Fore
SplineSet
928 -37 m 0,1,2
 928 -124 928 -124 878.5 -196 c 128,-1,3
 829 -268 829 -268 727.5 -311 c 128,-1,4
 626 -354 626 -354 477 -354 c 0,5,6
 292 -354 292 -354 199 -292 c 128,-1,7
 106 -230 106 -230 106 -119 c 0,8,9
 106 -62 106 -62 134.5 -11 c 128,-1,10
 163 40 163 40 217 74 c 1,11,12
 129 124 129 124 129 221 c 0,13,14
 129 277 129 277 158 319.5 c 128,-1,15
 187 362 187 362 240 398 c 1,16,17
 186 446 186 446 155.5 512 c 128,-1,18
 125 578 125 578 125 651 c 0,19,20
 125 744 125 744 172.5 822.5 c 128,-1,21
 220 901 220 901 300 947 c 128,-1,22
 380 993 380 993 475 993 c 0,23,24
 536 993 536 993 591.5 973.5 c 128,-1,25
 647 954 647 954 693 918 c 1,26,27
 744 947 744 947 807.5 963.5 c 128,-1,28
 871 980 871 980 937 980 c 0,29,30
 958 980 958 980 969 979 c 1,31,-1
 993 805 l 1,32,33
 946 816 946 816 892 816 c 0,34,35
 831 816 831 816 789 803 c 1,36,37
 825 731 825 731 825 651 c 0,38,39
 825 559 825 559 778 480 c 128,-1,40
 731 401 731 401 650.5 355 c 128,-1,41
 570 309 570 309 475 309 c 0,42,43
 402 309 402 309 333 339 c 1,44,45
 321 325 321 325 316 313 c 128,-1,46
 311 301 311 301 311 285 c 0,47,48
 311 248 311 248 380.5 228.5 c 128,-1,49
 450 209 450 209 618 209 c 0,50,0
 928 209 928 209 928 -37 c 0,1,2
402.5 786 m 128,-1,52
 369 765 369 765 349.5 729 c 128,-1,53
 330 693 330 693 330 651 c 256,54,55
 330 609 330 609 349.5 573.5 c 128,-1,56
 369 538 369 538 402.5 517 c 128,-1,57
 436 496 436 496 475 496 c 0,58,59
 515 496 515 496 548.5 516.5 c 128,-1,60
 582 537 582 537 601.5 573 c 128,-1,61
 621 609 621 609 621 651 c 256,62,63
 621 693 621 693 601.5 729 c 128,-1,64
 582 765 582 765 548.5 786 c 128,-1,65
 515 807 515 807 475 807 c 0,66,51
 436 807 436 807 402.5 786 c 128,-1,52
661.5 -152 m 128,-1,68
 717 -120 717 -120 717 -66 c 0,69,70
 717 -35 717 -35 703 -16.5 c 128,-1,71
 689 2 689 2 654 11 c 128,-1,72
 619 20 619 20 555 20 c 0,73,74
 419 20 419 20 340 34 c 1,75,76
 314 10 314 10 302.5 -13.5 c 128,-1,77
 291 -37 291 -37 291 -70 c 0,78,79
 291 -128 291 -128 348.5 -156 c 128,-1,80
 406 -184 406 -184 508 -184 c 0,81,67
 606 -184 606 -184 661.5 -152 c 128,-1,68
EndSplineSet
EndChar

StartChar: h
Encoding: 104 104 75
Width: 1024
GlyphClass: 2
Flags: W
LayerCount: 2
Fore
SplineSet
123 1382 m 1,0,-1
 370 1382 l 1,1,-1
 370 1359 l 1,2,3
 359 1347 359 1347 356 1332.5 c 128,-1,4
 353 1318 353 1318 354 1284 c 2,5,-1
 354 858 l 1,6,7
 404 913 404 913 470.5 945 c 128,-1,8
 537 977 537 977 604 977 c 0,9,10
 758 977 758 977 843 881.5 c 128,-1,11
 928 786 928 786 928 580 c 2,12,-1
 928 0 l 1,13,-1
 696 0 l 1,14,-1
 696 578 l 2,15,16
 696 684 696 684 659.5 736 c 128,-1,17
 623 788 623 788 559 788 c 0,18,19
 502 788 502 788 455 758 c 128,-1,20
 408 728 408 728 381 674.5 c 128,-1,21
 354 621 354 621 354 553 c 2,22,-1
 354 0 l 1,23,-1
 123 0 l 1,24,-1
 123 1382 l 1,0,-1
EndSplineSet
EndChar

StartChar: k
Encoding: 107 107 78
Width: 1024
GlyphClass: 2
Flags: W
LayerCount: 2
Fore
SplineSet
432 432 m 1,0,-1
 354 358 l 1,1,-1
 354 0 l 1,2,-1
 123 0 l 1,3,-1
 123 1382 l 1,4,-1
 370 1382 l 1,5,-1
 370 1359 l 1,6,7
 359 1347 359 1347 356 1332.5 c 128,-1,8
 353 1318 353 1318 354 1284 c 2,9,-1
 354 604 l 1,10,-1
 721 967 l 1,11,12
 794 950 794 950 838 950 c 2,13,-1
 987 950 l 1,14,-1
 596 573 l 1,15,-1
 1028 2 l 1,16,-1
 748 -8 l 1,17,-1
 432 432 l 1,0,-1
EndSplineSet
EndChar

StartChar: l
Encoding: 108 108 79
Width: 1024
GlyphClass: 2
Flags: W
LayerCount: 2
Fore
SplineSet
137 178 m 1,0,-1
 399 178 l 1,1,-1
 399 1204 l 1,2,-1
 150 1204 l 1,3,-1
 150 1382 l 1,4,-1
 631 1382 l 1,5,-1
 631 178 l 1,6,-1
 891 178 l 1,7,-1
 891 0 l 1,8,-1
 137 0 l 1,9,-1
 137 178 l 1,0,-1
EndSplineSet
EndChar

StartChar: m
Encoding: 109 109 80
Width: 1024
GlyphClass: 2
Flags: W
LayerCount: 2
Fore
SplineSet
66 967 m 1,0,-1
 262 967 l 1,1,-1
 262 907 l 1,2,3
 296 952 296 952 339.5 974.5 c 128,-1,4
 383 997 383 997 430 997 c 0,5,6
 479 997 479 997 523 970 c 128,-1,7
 567 943 567 943 594 883 c 1,8,9
 631 941 631 941 676 969 c 128,-1,10
 721 997 721 997 788 997 c 0,11,12
 894 997 894 997 936.5 926.5 c 128,-1,13
 979 856 979 856 979 707 c 2,14,-1
 979 0 l 1,15,-1
 766 0 l 1,16,-1
 766 668 l 2,17,18
 766 748 766 748 752 782.5 c 128,-1,19
 738 817 738 817 705 817 c 0,20,21
 627 817 627 817 627 629 c 2,22,-1
 627 0 l 1,23,-1
 416 0 l 1,24,-1
 416 657 l 2,25,26
 416 749 416 749 399.5 783 c 128,-1,27
 383 817 383 817 356 817 c 0,28,29
 315 817 315 817 293.5 776.5 c 128,-1,30
 272 736 272 736 272 635 c 2,31,-1
 272 0 l 1,32,-1
 66 0 l 1,33,-1
 66 967 l 1,0,-1
EndSplineSet
EndChar

StartChar: n
Encoding: 110 110 81
Width: 1024
GlyphClass: 2
Flags: W
LayerCount: 2
Fore
SplineSet
123 956 m 1,0,-1
 354 956 l 1,1,-1
 354 858 l 1,2,3
 405 914 405 914 475 945.5 c 128,-1,4
 545 977 545 977 627 977 c 0,5,6
 763 977 763 977 844.5 880.5 c 128,-1,7
 926 784 926 784 926 580 c 2,8,-1
 926 0 l 1,9,-1
 696 0 l 1,10,-1
 696 578 l 2,11,12
 696 686 696 686 656.5 737 c 128,-1,13
 617 788 617 788 539 788 c 0,14,15
 490 788 490 788 447.5 768.5 c 128,-1,16
 405 749 405 749 379.5 710 c 128,-1,17
 354 671 354 671 354 614 c 2,18,-1
 354 0 l 1,19,-1
 123 0 l 1,20,-1
 123 956 l 1,0,-1
EndSplineSet
EndChar

StartChar: o
Encoding: 111 111 82
Width: 1024
GlyphClass: 2
Flags: W
LayerCount: 2
Fore
SplineSet
283 32 m 128,-1,1
 179 97 179 97 119 213 c 128,-1,2
 59 329 59 329 59 477 c 0,3,4
 59 616 59 616 120 730.5 c 128,-1,5
 181 845 181 845 285.5 911 c 128,-1,6
 390 977 390 977 514 977 c 256,7,8
 638 977 638 977 742.5 911 c 128,-1,9
 847 845 847 845 908 730.5 c 128,-1,10
 969 616 969 616 969 477 c 0,11,12
 969 329 969 329 909 213 c 128,-1,13
 849 97 849 97 745 32 c 128,-1,14
 641 -33 641 -33 514 -33 c 256,15,0
 387 -33 387 -33 283 32 c 128,-1,1
632.5 192.5 m 128,-1,17
 683 233 683 233 710 306.5 c 128,-1,18
 737 380 737 380 737 477 c 0,19,20
 737 575 737 575 710 646 c 128,-1,21
 683 717 683 717 632.5 755 c 128,-1,22
 582 793 582 793 514 793 c 0,23,24
 449 793 449 793 399.5 755 c 128,-1,25
 350 717 350 717 322.5 645.5 c 128,-1,26
 295 574 295 574 295 477 c 0,27,28
 295 379 295 379 321.5 305.5 c 128,-1,29
 348 232 348 232 397 192 c 128,-1,30
 446 152 446 152 514 152 c 256,31,16
 582 152 582 152 632.5 192.5 c 128,-1,17
EndSplineSet
EndChar

StartChar: p
Encoding: 112 112 83
Width: 1024
GlyphClass: 2
Flags: W
LayerCount: 2
Fore
SplineSet
111 956 m 1,0,-1
 332 956 l 1,1,-1
 332 838 l 1,2,3
 376 911 376 911 437.5 944 c 128,-1,4
 499 977 499 977 578 977 c 0,5,6
 684 977 684 977 772.5 919 c 128,-1,7
 861 861 861 861 914 747 c 128,-1,8
 967 633 967 633 967 473 c 0,9,10
 967 310 967 310 913 196.5 c 128,-1,11
 859 83 859 83 771 26 c 128,-1,12
 683 -31 683 -31 580 -31 c 0,13,14
 504 -31 504 -31 442.5 1.5 c 128,-1,15
 381 34 381 34 342 104 c 1,16,-1
 342 -342 l 1,17,-1
 113 -342 l 1,18,-1
 111 956 l 1,0,-1
634 193 m 128,-1,20
 681 228 681 228 709 301.5 c 128,-1,21
 737 375 737 375 737 485 c 0,22,23
 737 622 737 622 690.5 705 c 128,-1,24
 644 788 644 788 543 788 c 0,25,26
 438 788 438 788 390 700.5 c 128,-1,27
 342 613 342 613 342 465 c 0,28,29
 342 310 342 310 392 234 c 128,-1,30
 442 158 442 158 528 158 c 0,31,19
 587 158 587 158 634 193 c 128,-1,20
EndSplineSet
EndChar

StartChar: q
Encoding: 113 113 84
Width: 1024
GlyphClass: 2
Flags: W
LayerCount: 2
Fore
SplineSet
686 66 m 1,0,1
 647 21 647 21 585 -6 c 128,-1,2
 523 -33 523 -33 463 -33 c 0,3,4
 352 -33 352 -33 259.5 32.5 c 128,-1,5
 167 98 167 98 113 215 c 128,-1,6
 59 332 59 332 59 479 c 0,7,8
 59 627 59 627 111.5 740 c 128,-1,9
 164 853 164 853 256.5 915 c 128,-1,10
 349 977 349 977 465 977 c 0,11,12
 525 977 525 977 591.5 949.5 c 128,-1,13
 658 922 658 922 694 879 c 1,14,-1
 694 956 l 1,15,-1
 915 956 l 1,16,-1
 915 -342 l 1,17,-1
 686 -342 l 1,18,-1
 686 66 l 1,0,1
633.5 243 m 128,-1,20
 682 324 682 324 682 481 c 0,21,22
 682 640 682 640 631 715.5 c 128,-1,23
 580 791 580 791 487 791 c 0,24,25
 433 791 433 791 388.5 754.5 c 128,-1,26
 344 718 344 718 317.5 649 c 128,-1,27
 291 580 291 580 291 487 c 0,28,29
 291 392 291 392 318.5 318 c 128,-1,30
 346 244 346 244 393 203 c 128,-1,31
 440 162 440 162 496 162 c 0,32,19
 585 162 585 162 633.5 243 c 128,-1,20
EndSplineSet
EndChar

StartChar: r
Encoding: 114 114 85
Width: 1024
GlyphClass: 2
Flags: W
LayerCount: 2
Fore
SplineSet
835.5 950.5 m 128,-1,1
 906 924 906 924 961 872 c 1,2,-1
 851 652 l 1,3,-1
 830 662 l 1,4,5
 828 669 828 669 826 682 c 0,6,7
 823 701 823 701 817.5 714.5 c 128,-1,8
 812 728 812 728 795 742 c 0,9,10
 745 782 745 782 672 782 c 256,11,12
 599 782 599 782 540 747.5 c 128,-1,13
 481 713 481 713 447.5 649 c 128,-1,14
 414 585 414 585 414 500 c 2,15,-1
 414 0 l 1,16,-1
 182 0 l 1,17,-1
 182 956 l 1,18,-1
 418 956 l 1,19,-1
 418 819 l 1,20,21
 456 893 456 893 529.5 935 c 128,-1,22
 603 977 603 977 694 977 c 0,23,0
 765 977 765 977 835.5 950.5 c 128,-1,1
EndSplineSet
EndChar

StartChar: s
Encoding: 115 115 86
Width: 1024
GlyphClass: 2
Flags: W
LayerCount: 2
Fore
SplineSet
292 5.5 m 128,-1,1
 185 44 185 44 96 129 c 1,2,-1
 192 297 l 1,3,-1
 201 313 l 1,4,-1
 221 301 l 2,5,6
 223 296 223 296 226.5 283 c 128,-1,7
 230 270 230 270 239.5 257.5 c 128,-1,8
 249 245 249 245 265 233 c 0,9,10
 321 191 321 191 388.5 171.5 c 128,-1,11
 456 152 456 152 545 152 c 0,12,13
 709 152 709 152 709 260 c 0,14,15
 709 293 709 293 689 317 c 128,-1,16
 669 341 669 341 625 361 c 128,-1,17
 581 381 581 381 504 403 c 0,18,19
 339 446 339 446 247.5 511.5 c 128,-1,20
 156 577 156 577 156 692 c 0,21,22
 156 775 156 775 200.5 839.5 c 128,-1,23
 245 904 245 904 328.5 940.5 c 128,-1,24
 412 977 412 977 524 977 c 256,25,26
 636 977 636 977 728.5 940.5 c 128,-1,27
 821 904 821 904 899 829 c 1,28,-1
 783 668 l 1,29,-1
 773 653 l 1,30,-1
 754 666 l 2,31,32
 753 671 753 671 750.5 684.5 c 128,-1,33
 748 698 748 698 739 711 c 128,-1,34
 730 724 730 724 714 735 c 0,35,36
 633 793 633 793 528 793 c 0,37,38
 467 793 467 793 426 772 c 128,-1,39
 385 751 385 751 385 715 c 0,40,41
 385 682 385 682 407.5 658.5 c 128,-1,42
 430 635 430 635 475.5 616 c 128,-1,43
 521 597 521 597 606 571 c 0,44,45
 724 535 724 535 791 498.5 c 128,-1,46
 858 462 858 462 889 411 c 128,-1,47
 920 360 920 360 920 283 c 0,48,49
 920 200 920 200 870.5 127.5 c 128,-1,50
 821 55 821 55 735 11 c 128,-1,51
 649 -33 649 -33 543 -33 c 0,52,0
 399 -33 399 -33 292 5.5 c 128,-1,1
EndSplineSet
EndChar

StartChar: t
Encoding: 116 116 87
Width: 1024
GlyphClass: 2
Flags: W
LayerCount: 2
Fore
SplineSet
932 86 m 1,0,1
 857 30 857 30 776.5 0.5 c 128,-1,2
 696 -29 696 -29 602 -29 c 0,3,4
 453 -29 453 -29 374 59 c 128,-1,5
 295 147 295 147 295 362 c 0,6,7
 295 417 295 417 301 483 c 2,8,-1
 318 770 l 1,9,-1
 111 770 l 1,10,-1
 115 956 l 1,11,-1
 329 956 l 1,12,-1
 342 1180 l 1,13,-1
 594 1222 l 1,14,-1
 598 1199 l 2,15,16
 596 1196 596 1196 588 1184.5 c 128,-1,17
 580 1173 580 1173 575 1157.5 c 128,-1,18
 570 1142 570 1142 569 1121 c 2,19,-1
 554 956 l 1,20,-1
 848 956 l 1,21,-1
 844 770 l 1,22,-1
 550 770 l 1,23,-1
 528 498 l 2,24,25
 523 428 523 428 523 386 c 0,26,27
 523 259 523 259 554 208.5 c 128,-1,28
 585 158 585 158 651 158 c 0,29,30
 713 158 713 158 766 182 c 128,-1,31
 819 206 819 206 883 262 c 1,32,-1
 932 86 l 1,0,1
EndSplineSet
EndChar

StartChar: u
Encoding: 117 117 88
Width: 1024
GlyphClass: 2
Flags: W
LayerCount: 2
Fore
SplineSet
185.5 54.5 m 128,-1,1
 104 150 104 150 104 358 c 2,2,-1
 104 956 l 1,3,-1
 330 956 l 1,4,-1
 330 358 l 2,5,6
 330 251 330 251 366.5 199 c 128,-1,7
 403 147 403 147 467 147 c 0,8,9
 524 147 524 147 571 177 c 128,-1,10
 618 207 618 207 645 261 c 128,-1,11
 672 315 672 315 672 383 c 2,12,-1
 672 956 l 1,13,-1
 903 956 l 1,14,-1
 903 156 l 2,15,16
 903 95 903 95 906.5 63 c 128,-1,17
 910 31 910 31 924 0 c 1,18,-1
 700 0 l 1,19,20
 687 25 687 25 683.5 49.5 c 128,-1,21
 680 74 680 74 680 111 c 1,22,23
 640 42 640 42 566 0.5 c 128,-1,24
 492 -41 492 -41 422 -41 c 0,25,0
 267 -41 267 -41 185.5 54.5 c 128,-1,1
EndSplineSet
EndChar

StartChar: v
Encoding: 118 118 89
Width: 1024
GlyphClass: 2
Flags: W
LayerCount: 2
Fore
SplineSet
938 956 m 1,0,1
 933 872 933 872 906.5 788.5 c 128,-1,2
 880 705 880 705 829 575 c 2,3,-1
 602 0 l 1,4,-1
 414 0 l 1,5,-1
 51 956 l 1,6,-1
 279 956 l 1,7,-1
 518 255 l 1,8,-1
 655 602 l 1,9,10
 695 717 695 717 715 797 c 128,-1,11
 735 877 735 877 735 956 c 1,12,-1
 938 956 l 1,0,1
EndSplineSet
EndChar

StartChar: w
Encoding: 119 119 90
Width: 1024
GlyphClass: 2
Flags: W
LayerCount: 2
Fore
SplineSet
16 956 m 1,0,-1
 242 956 l 1,1,-1
 338 281 l 1,2,-1
 457 846 l 1,3,-1
 598 846 l 1,4,-1
 733 283 l 1,5,6
 761 466 761 466 771.5 625 c 128,-1,7
 782 784 782 784 782 893 c 2,8,-1
 782 956 l 1,9,-1
 999 956 l 1,10,11
 972 719 972 719 933 462 c 128,-1,12
 894 205 894 205 852 0 c 1,13,-1
 649 0 l 1,14,-1
 524 532 l 1,15,-1
 406 0 l 1,16,-1
 197 0 l 1,17,-1
 16 956 l 1,0,-1
EndSplineSet
EndChar

StartChar: x
Encoding: 120 120 91
Width: 1024
GlyphClass: 2
Flags: W
LayerCount: 2
Fore
SplineSet
381 485 m 1,0,-1
 55 956 l 1,1,-1
 313 956 l 1,2,-1
 508 647 l 1,3,-1
 694 956 l 1,4,-1
 942 956 l 1,5,-1
 637 492 l 1,6,-1
 981 0 l 1,7,-1
 719 0 l 1,8,-1
 510 324 l 1,9,-1
 313 0 l 1,10,-1
 51 0 l 1,11,-1
 381 485 l 1,0,-1
EndSplineSet
EndChar

StartChar: y
Encoding: 121 121 92
Width: 1024
GlyphClass: 2
Flags: W
LayerCount: 2
Fore
SplineSet
930 956 m 1,0,1
 927 874 927 874 904 789.5 c 128,-1,2
 881 705 881 705 838 588 c 2,3,-1
 600 -68 l 2,4,5
 542 -227 542 -227 458.5 -294.5 c 128,-1,6
 375 -362 375 -362 256 -362 c 0,7,8
 189 -362 189 -362 135.5 -339.5 c 128,-1,9
 82 -317 82 -317 20 -268 c 1,10,-1
 95 -104 l 1,11,-1
 103 -87 l 1,12,-1
 124 -97 l 2,13,14
 126 -101 126 -101 130.5 -114 c 128,-1,15
 135 -127 135 -127 146 -138.5 c 128,-1,16
 157 -150 157 -150 174 -161 c 0,17,18
 212 -186 212 -186 250 -186 c 0,19,20
 300 -186 300 -186 344 -136 c 128,-1,21
 388 -86 388 -86 425 4 c 1,22,-1
 63 956 l 1,23,-1
 287 956 l 1,24,-1
 527 285 l 1,25,-1
 651 627 l 2,26,27
 681 720 681 720 696.5 790 c 128,-1,28
 712 860 712 860 712 928 c 0,29,30
 712 947 712 947 711 956 c 1,31,-1
 930 956 l 1,0,1
EndSplineSet
EndChar

StartChar: z
Encoding: 122 122 93
Width: 1024
GlyphClass: 2
Flags: W
LayerCount: 2
Fore
SplineSet
88 143 m 1,0,-1
 584 762 l 1,1,-1
 127 762 l 1,2,-1
 127 956 l 1,3,-1
 891 956 l 1,4,-1
 891 813 l 1,5,-1
 401 193 l 1,6,-1
 837 193 l 2,7,8
 870 193 870 193 885.5 196.5 c 128,-1,9
 901 200 901 200 913 211 c 1,10,-1
 936 211 l 1,11,-1
 936 0 l 1,12,-1
 88 0 l 1,13,-1
 88 143 l 1,0,-1
EndSplineSet
EndChar

StartChar: braceleft
Encoding: 123 123 94
Width: 1024
GlyphClass: 2
Flags: W
LayerCount: 2
Fore
SplineSet
469 -292 m 128,-1,1
 372 -258 372 -258 321 -175 c 128,-1,2
 270 -92 270 -92 270 53 c 1,3,-1
 276 225 l 2,4,5
 276 322 276 322 247 359.5 c 128,-1,6
 218 397 218 397 158 397 c 2,7,-1
 72 397 l 1,8,-1
 72 580 l 1,9,-1
 156 580 l 2,10,11
 220 580 220 580 250.5 619 c 128,-1,12
 281 658 281 658 281 743 c 2,13,-1
 276 936 l 1,14,15
 276 1118 276 1118 375.5 1211.5 c 128,-1,16
 475 1305 475 1305 668 1305 c 2,17,-1
 834 1305 l 1,18,-1
 834 1120 l 1,19,-1
 633 1120 l 2,20,21
 567 1120 567 1120 535.5 1079 c 128,-1,22
 504 1038 504 1038 504 956 c 2,23,-1
 508 766 l 2,24,25
 508 676 508 676 469.5 604.5 c 128,-1,26
 431 533 431 533 362 489 c 1,27,28
 426 448 426 448 465 371 c 128,-1,29
 504 294 504 294 504 197 c 2,30,-1
 500 53 l 2,31,32
 500 -51 500 -51 544 -98 c 128,-1,33
 588 -145 588 -145 688 -145 c 2,34,-1
 831 -145 l 1,35,-1
 831 -326 l 1,36,-1
 717 -326 l 2,37,0
 566 -326 566 -326 469 -292 c 128,-1,1
EndSplineSet
EndChar

StartChar: bar
Encoding: 124 124 95
Width: 1024
GlyphClass: 2
Flags: W
LayerCount: 2
Fore
SplineSet
403 1335 m 1,0,-1
 623 1335 l 1,1,-1
 623 -309 l 1,2,-1
 403 -309 l 1,3,-1
 403 1335 l 1,0,-1
EndSplineSet
Substitution2: "bar_bar_bar.liga Single Substitution (1rd)" bar_bar_bar.liga
Substitution2: "bar_bar_bar.liga Single Substitution (2nd)" LIG2
Substitution2: "bar_bar_bar.liga Single Substitution" LIG
Substitution2: "less_bar_greater.liga Single Substitution" LIG2
Substitution2: "bar_bar.liga Single Substitution (2nd)" bar_bar.liga
Substitution2: "bar_bar.liga Single Substitution" LIG
Substitution2: "bar_greater.liga Single Substitution" LIG
Substitution2: "less_bar.liga Single Substitution" less_bar.liga
EndChar

StartChar: braceright
Encoding: 125 125 96
Width: 1024
GlyphClass: 2
Flags: W
LayerCount: 2
Fore
SplineSet
115 -326 m 1,0,-1
 115 -145 l 1,1,-1
 258 -145 l 2,2,3
 358 -145 358 -145 402 -98 c 128,-1,4
 446 -51 446 -51 446 53 c 2,5,-1
 442 197 l 2,6,7
 442 294 442 294 481 371 c 128,-1,8
 520 448 520 448 584 489 c 1,9,10
 515 533 515 533 476.5 604.5 c 128,-1,11
 438 676 438 676 438 766 c 2,12,-1
 442 956 l 2,13,14
 442 1038 442 1038 410.5 1079 c 128,-1,15
 379 1120 379 1120 313 1120 c 2,16,-1
 112 1120 l 1,17,-1
 112 1305 l 1,18,-1
 278 1305 l 2,19,20
 471 1305 471 1305 570.5 1211.5 c 128,-1,21
 670 1118 670 1118 670 936 c 1,22,-1
 665 743 l 2,23,24
 665 658 665 658 695.5 619 c 128,-1,25
 726 580 726 580 790 580 c 2,26,-1
 874 580 l 1,27,-1
 874 397 l 1,28,-1
 788 397 l 2,29,30
 728 397 728 397 699 359.5 c 128,-1,31
 670 322 670 322 670 225 c 2,32,-1
 676 53 l 1,33,34
 676 -92 676 -92 625 -175 c 128,-1,35
 574 -258 574 -258 477 -292 c 128,-1,36
 380 -326 380 -326 229 -326 c 2,37,-1
 115 -326 l 1,0,-1
EndSplineSet
EndChar

StartChar: asciitilde
Encoding: 126 126 97
Width: 1024
GlyphClass: 2
Flags: W
LayerCount: 2
Fore
SplineSet
605 585 m 128,-1,1
 566 603 566 603 516 637 c 0,2,3
 472 666 472 666 443.5 680 c 128,-1,4
 415 694 415 694 379 694 c 0,5,6
 319 694 319 694 279.5 667.5 c 128,-1,7
 240 641 240 641 221 578 c 1,8,-1
 111 686 l 1,9,10
 150 781 150 781 212.5 826.5 c 128,-1,11
 275 872 275 872 371 872 c 0,12,13
 427 872 427 872 471 853 c 128,-1,14
 515 834 515 834 569 800 c 0,15,16
 611 774 611 774 637 762 c 128,-1,17
 663 750 663 750 690 750 c 0,18,19
 735 750 735 750 769.5 775.5 c 128,-1,20
 804 801 804 801 844 858 c 1,21,-1
 940 731 l 1,22,23
 894 654 894 654 832 610.5 c 128,-1,24
 770 567 770 567 698 567 c 0,25,0
 644 567 644 567 605 585 c 128,-1,1
EndSplineSet
EndChar

StartChar: exclamdown
Encoding: 161 161 99
Width: 1024
GlyphClass: 2
Flags: W
LayerCount: 2
Fore
SplineSet
568.5 1202 m 128,-1,1
 606 1182 606 1182 628.5 1148 c 128,-1,2
 651 1114 651 1114 651 1075 c 0,3,4
 651 1038 651 1038 629.5 1003.5 c 128,-1,5
 608 969 608 969 571 947.5 c 128,-1,6
 534 926 534 926 489 926 c 0,7,8
 447 926 447 926 411 946.5 c 128,-1,9
 375 967 375 967 353.5 1001.5 c 128,-1,10
 332 1036 332 1036 332 1075 c 0,11,12
 332 1115 332 1115 353 1149 c 128,-1,13
 374 1183 374 1183 410.5 1202.5 c 128,-1,14
 447 1222 447 1222 489 1222 c 256,15,0
 531 1222 531 1222 568.5 1202 c 128,-1,1
584 796 m 1,16,-1
 637 24 l 2,17,18
 638 14 638 14 638 -4 c 0,19,20
 638 -92 638 -92 599 -132 c 128,-1,21
 560 -172 560 -172 494 -172 c 0,22,23
 426 -172 426 -172 387.5 -130.5 c 128,-1,24
 349 -89 349 -89 349 0 c 2,25,-1
 350 24 l 1,26,-1
 399 796 l 1,27,-1
 584 796 l 1,16,-1
EndSplineSet
EndChar

StartChar: cent
Encoding: 162 162 100
Width: 1024
GlyphClass: 2
Flags: W
LayerCount: 2
Fore
SplineSet
805 379 m 1,1,-1
 938 225 l 1,2,3
 863 140 863 140 770 98.5 c 128,-1,4
 677 57 677 57 572 55 c 1,5,-1
 545 -150 l 1,6,-1
 397 -150 l 1,7,-1
 427 72 l 1,8,9
 322 99 322 99 243 168 c 128,-1,10
 164 237 164 237 121 337.5 c 128,-1,11
 78 438 78 438 78 557 c 0,12,13
 78 699 78 699 139.5 815 c 128,-1,14
 201 931 201 931 311.5 998 c 128,-1,15
 422 1065 422 1065 563 1065 c 1,16,-1
 592 1276 l 1,17,-1
 733 1276 l 1,18,-1
 703 1047 l 1,19,20
 780 1026 780 1026 843 984 c 128,-1,21
 906 942 906 942 946 881 c 1,22,-1
 818 731 l 1,23,-1
 807 717 l 1,24,-1
 789 732 l 2,25,26
 788 737 788 737 787 751 c 128,-1,27
 786 765 786 765 779.5 778.5 c 128,-1,28
 773 792 773 792 758 806 c 0,29,30
 726 837 726 837 678 856 c 1,31,-1
 598 254 l 1,32,0
 719 271 719 271 805 379 c 1,1,-1
349.5 380.5 m 128,-1,34
 388 308 388 308 455 275 c 1,35,-1
 537 872 l 1,36,37
 473 865 473 865 421.5 823.5 c 128,-1,38
 370 782 370 782 340.5 712 c 128,-1,39
 311 642 311 642 311 553 c 0,40,33
 311 453 311 453 349.5 380.5 c 128,-1,34
EndSplineSet
EndChar

StartChar: sterling
Encoding: 163 163 101
Width: 1024
GlyphClass: 2
Flags: W
LayerCount: 2
Fore
SplineSet
57 147 m 1,0,1
 140 180 140 180 186 218 c 128,-1,2
 232 256 232 256 252 313.5 c 128,-1,3
 272 371 272 371 272 463 c 0,4,5
 272 499 272 499 267.5 545.5 c 128,-1,6
 263 592 263 592 254 631 c 1,7,-1
 121 631 l 1,8,-1
 121 813 l 1,9,-1
 213 813 l 1,10,11
 205 857 205 857 205 899 c 0,12,13
 205 1010 205 1010 255 1099 c 128,-1,14
 305 1188 305 1188 391.5 1238 c 128,-1,15
 478 1288 478 1288 584 1288 c 0,16,17
 673 1288 673 1288 746.5 1253.5 c 128,-1,18
 820 1219 820 1219 887 1147 c 1,19,-1
 750 977 l 1,20,21
 747 981 747 981 734 1005 c 0,22,23
 716 1037 716 1037 700.5 1056.5 c 128,-1,24
 685 1076 685 1076 657 1090 c 128,-1,25
 629 1104 629 1104 584 1104 c 0,26,27
 542 1104 542 1104 506 1081 c 128,-1,28
 470 1058 470 1058 448 1012 c 128,-1,29
 426 966 426 966 426 901 c 0,30,31
 426 868 426 868 434 813 c 1,32,-1
 721 813 l 1,33,-1
 721 631 l 1,34,-1
 477 631 l 1,35,36
 484 591 484 591 488 545 c 128,-1,37
 492 499 492 499 492 465 c 0,38,39
 492 398 492 398 478.5 336.5 c 128,-1,40
 465 275 465 275 432 236 c 1,41,42
 459 246 459 246 487 246 c 0,43,44
 517 246 517 246 544.5 237 c 128,-1,45
 572 228 572 228 616 209 c 0,46,47
 655 191 655 191 684 181.5 c 128,-1,48
 713 172 713 172 743 172 c 0,49,50
 774 172 774 172 807.5 191 c 128,-1,51
 841 210 841 210 897 256 c 1,52,-1
 983 80 l 1,53,54
 913 23 913 23 855 -3 c 128,-1,55
 797 -29 797 -29 727 -29 c 0,56,57
 690 -29 690 -29 653 -18 c 128,-1,58
 616 -7 616 -7 561 15 c 0,59,60
 506 36 506 36 471 46.5 c 128,-1,61
 436 57 436 57 401 57 c 0,62,63
 342 57 342 57 291.5 37.5 c 128,-1,64
 241 18 241 18 139 -35 c 1,65,-1
 57 147 l 1,0,1
EndSplineSet
EndChar

StartChar: currency
Encoding: 164 164 102
Width: 1024
GlyphClass: 2
Flags: W
LayerCount: 2
Fore
SplineSet
106 430 m 1,0,-1
 219 545 l 1,1,2
 174 624 174 624 174 709 c 0,3,4
 174 799 174 799 219 874 c 1,5,-1
 106 987 l 1,6,-1
 240 1108 l 1,7,-1
 350 997 l 1,8,9
 387 1016 387 1016 430 1027 c 128,-1,10
 473 1038 473 1038 514 1038 c 0,11,12
 598 1038 598 1038 674 999 c 1,13,-1
 784 1108 l 1,14,-1
 918 987 l 1,15,-1
 805 877 l 1,16,17
 852 804 852 804 852 709 c 0,18,19
 852 616 852 616 805 541 c 1,20,-1
 918 430 l 1,21,-1
 784 309 l 1,22,-1
 676 418 l 1,23,24
 607 379 607 379 514 379 c 0,25,26
 420 379 420 379 348 420 c 1,27,-1
 240 309 l 1,28,-1
 106 430 l 1,0,-1
626 587 m 128,-1,30
 664 633 664 633 664 707 c 256,31,32
 664 781 664 781 626 827.5 c 128,-1,33
 588 874 588 874 512 874 c 256,34,35
 436 874 436 874 398 827.5 c 128,-1,36
 360 781 360 781 360 707 c 256,37,38
 360 633 360 633 398 587 c 128,-1,39
 436 541 436 541 512 541 c 256,40,29
 588 541 588 541 626 587 c 128,-1,30
EndSplineSet
EndChar

StartChar: yen
Encoding: 165 165 103
Width: 1024
GlyphClass: 2
Flags: W
LayerCount: 2
Fore
SplineSet
639 592 m 1,0,-1
 891 592 l 1,1,-1
 891 471 l 1,2,-1
 639 471 l 1,3,-1
 639 365 l 1,4,-1
 891 365 l 1,5,-1
 891 246 l 1,6,-1
 639 246 l 1,7,-1
 639 0 l 1,8,-1
 416 0 l 1,9,-1
 416 246 l 1,10,-1
 152 246 l 1,11,-1
 152 365 l 1,12,-1
 416 365 l 1,13,-1
 416 471 l 1,14,-1
 152 471 l 1,15,-1
 152 592 l 1,16,-1
 411 592 l 1,17,-1
 35 1276 l 1,18,-1
 289 1276 l 1,19,-1
 528 793 l 1,20,-1
 750 1276 l 1,21,-1
 989 1276 l 1,22,-1
 639 592 l 1,0,-1
EndSplineSet
EndChar

StartChar: brokenbar
Encoding: 166 166 104
Width: 1024
GlyphClass: 2
Flags: W
LayerCount: 2
Fore
SplineSet
403 1335 m 1,0,-1
 623 1335 l 1,1,-1
 623 557 l 1,2,-1
 403 557 l 1,3,-1
 403 1335 l 1,0,-1
403 446 m 1,4,-1
 623 446 l 1,5,-1
 623 -309 l 1,6,-1
 403 -309 l 1,7,-1
 403 446 l 1,4,-1
EndSplineSet
EndChar

StartChar: section
Encoding: 167 167 105
Width: 1024
GlyphClass: 2
Flags: W
LayerCount: 2
Fore
SplineSet
278 -65 m 128,-1,1
 181 -13 181 -13 109 86 c 1,2,-1
 250 252 l 1,3,4
 264 252 264 252 270 245.5 c 128,-1,5
 276 239 276 239 283 219 c 0,6,7
 291 190 291 190 322 158.5 c 128,-1,8
 353 127 353 127 395.5 105.5 c 128,-1,9
 438 84 438 84 481 84 c 0,10,11
 550 84 550 84 589.5 119 c 128,-1,12
 629 154 629 154 629 203 c 0,13,14
 629 238 629 238 612 263.5 c 128,-1,15
 595 289 595 289 554.5 311.5 c 128,-1,16
 514 334 514 334 440 356 c 0,17,18
 282 406 282 406 211.5 477.5 c 128,-1,19
 141 549 141 549 141 649 c 0,20,21
 141 688 141 688 161 731 c 128,-1,22
 181 774 181 774 216 810 c 128,-1,23
 251 846 251 846 295 864 c 1,24,25
 240 896 240 896 205 955 c 128,-1,26
 170 1014 170 1014 170 1073 c 0,27,28
 170 1155 170 1155 216 1227 c 128,-1,29
 262 1299 262 1299 343 1342.5 c 128,-1,30
 424 1386 424 1386 524 1386 c 0,31,32
 635 1386 635 1386 725.5 1327 c 128,-1,33
 816 1268 816 1268 874 1167 c 1,34,-1
 705 1020 l 1,35,36
 687 1024 687 1024 682 1033.5 c 128,-1,37
 677 1043 677 1043 672 1075 c 0,38,39
 662 1126 662 1126 619.5 1163 c 128,-1,40
 577 1200 577 1200 522 1200 c 0,41,42
 488 1200 488 1200 460.5 1184 c 128,-1,43
 433 1168 433 1168 417 1141 c 128,-1,44
 401 1114 401 1114 401 1083 c 0,45,46
 401 1045 401 1045 424 1016.5 c 128,-1,47
 447 988 447 988 495 963.5 c 128,-1,48
 543 939 543 939 627 909 c 0,49,50
 726 874 726 874 800 802 c 128,-1,51
 874 730 874 730 874 629 c 0,52,53
 874 567 874 567 836.5 510 c 128,-1,54
 799 453 799 453 743 426 c 1,55,56
 797 385 797 385 826.5 331 c 128,-1,57
 856 277 856 277 856 217 c 0,58,59
 856 124 856 124 809 47.5 c 128,-1,60
 762 -29 762 -29 678 -73 c 128,-1,61
 594 -117 594 -117 487 -117 c 0,62,0
 375 -117 375 -117 278 -65 c 128,-1,1
631.5 546.5 m 128,-1,64
 639 571 639 571 639 598 c 0,65,66
 639 700 639 700 477 756 c 2,67,-1
 412 778 l 1,68,69
 394 770 394 770 383.5 742 c 128,-1,70
 373 714 373 714 373 686 c 0,71,72
 373 638 373 638 414 598 c 128,-1,73
 455 558 455 558 535 532 c 0,74,75
 540 530 540 530 557.5 526 c 128,-1,76
 575 522 575 522 610 510 c 1,77,63
 624 522 624 522 631.5 546.5 c 128,-1,64
EndSplineSet
EndChar

StartChar: dieresis
Encoding: 168 168 106
Width: 1024
GlyphClass: 2
Flags: W
LayerCount: 2
Fore
SplineSet
255 1140 m 128,-1,1
 222 1158 222 1158 203 1188 c 128,-1,2
 184 1218 184 1218 184 1253 c 256,3,4
 184 1288 184 1288 203 1319 c 128,-1,5
 222 1350 222 1350 255 1368 c 128,-1,6
 288 1386 288 1386 326 1386 c 0,7,8
 362 1386 362 1386 395 1369 c 128,-1,9
 428 1352 428 1352 448.5 1321.5 c 128,-1,10
 469 1291 469 1291 469 1253 c 0,11,12
 469 1218 469 1218 449.5 1188 c 128,-1,13
 430 1158 430 1158 397 1140 c 128,-1,14
 364 1122 364 1122 326 1122 c 256,15,0
 288 1122 288 1122 255 1140 c 128,-1,1
631.5 1139.5 m 128,-1,17
 599 1157 599 1157 580 1187 c 128,-1,18
 561 1217 561 1217 561 1253 c 256,19,20
 561 1289 561 1289 580 1319.5 c 128,-1,21
 599 1350 599 1350 631.5 1368 c 128,-1,22
 664 1386 664 1386 702 1386 c 0,23,24
 737 1386 737 1386 770 1369 c 128,-1,25
 803 1352 803 1352 823.5 1321.5 c 128,-1,26
 844 1291 844 1291 844 1253 c 0,27,28
 844 1218 844 1218 825 1188 c 128,-1,29
 806 1158 806 1158 773 1140 c 128,-1,30
 740 1122 740 1122 702 1122 c 256,31,16
 664 1122 664 1122 631.5 1139.5 c 128,-1,17
EndSplineSet
EndChar

StartChar: copyright
Encoding: 169 169 107
Width: 1024
GlyphClass: 2
Flags: W
LayerCount: 2
Fore
SplineSet
256 107.5 m 128,-1,1
 142 178 142 178 76 298 c 128,-1,2
 10 418 10 418 10 559 c 256,3,4
 10 700 10 700 78.5 820 c 128,-1,5
 147 940 147 940 262.5 1010.5 c 128,-1,6
 378 1081 378 1081 514 1081 c 0,7,8
 648 1081 648 1081 764 1010.5 c 128,-1,9
 880 940 880 940 949 820 c 128,-1,10
 1018 700 1018 700 1018 559 c 0,11,12
 1018 347 1018 347 868 193 c 0,13,14
 796 117 796 117 703.5 77 c 128,-1,15
 611 37 611 37 506 37 c 0,16,0
 370 37 370 37 256 107.5 c 128,-1,1
696 211.5 m 128,-1,18
 779 267 779 267 828 360 c 128,-1,19
 877 453 877 453 877 561 c 256,20,21
 877 669 877 669 828.5 762.5 c 128,-1,22
 780 856 780 856 697 911.5 c 128,-1,23
 614 967 614 967 516 967 c 0,24,25
 417 967 417 967 334.5 912.5 c 128,-1,26
 252 858 252 858 204 764.5 c 128,-1,27
 156 671 156 671 156 559 c 0,28,29
 156 449 156 449 204 356.5 c 128,-1,30
 252 264 252 264 334.5 210 c 128,-1,31
 417 156 417 156 516 156 c 0,32,17
 613 156 613 156 696 211.5 c 128,-1,18
361.5 284.5 m 128,-1,34
 293 329 293 329 256 403.5 c 128,-1,35
 219 478 219 478 219 565 c 256,36,37
 219 652 219 652 258 724 c 128,-1,38
 297 796 297 796 362.5 837.5 c 128,-1,39
 428 879 428 879 504 879 c 0,40,41
 626 879 626 879 702 817 c 128,-1,42
 778 755 778 755 803 653 c 1,43,-1
 643 596 l 1,44,45
 634 599 634 599 631.5 606 c 128,-1,46
 629 613 629 613 627 628 c 0,47,48
 627 642 627 642 623 653 c 0,49,50
 612 686 612 686 584 705.5 c 128,-1,51
 556 725 556 725 520 725 c 0,52,53
 472 725 472 725 437.5 689 c 128,-1,54
 403 653 403 653 403 575 c 0,55,56
 403 494 403 494 434 445.5 c 128,-1,57
 465 397 465 397 526 397 c 0,58,59
 571 397 571 397 601 422.5 c 128,-1,60
 631 448 631 448 651 500 c 1,61,-1
 795 408 l 1,62,63
 751 330 751 330 678 285 c 128,-1,64
 605 240 605 240 518 240 c 0,65,33
 430 240 430 240 361.5 284.5 c 128,-1,34
EndSplineSet
EndChar

StartChar: ordfeminine
Encoding: 170 170 108
Width: 1024
GlyphClass: 2
Flags: W
LayerCount: 2
Fore
SplineSet
304 544 m 128,-1,1
 248 574 248 574 215 626.5 c 128,-1,2
 182 679 182 679 182 745 c 0,3,4
 182 863 182 863 279.5 919 c 128,-1,5
 377 975 377 975 535 975 c 0,6,7
 582 975 582 975 621 971 c 1,8,9
 621 1047 621 1047 595 1079.5 c 128,-1,10
 569 1112 569 1112 516 1112 c 0,11,12
 468 1112 468 1112 424.5 1092 c 128,-1,13
 381 1072 381 1072 334 1030 c 1,14,-1
 221 1143 l 1,15,16
 289 1213 289 1213 363 1244.5 c 128,-1,17
 437 1276 437 1276 528 1276 c 0,18,19
 670 1276 670 1276 747.5 1205.5 c 128,-1,20
 825 1135 825 1135 825 1001 c 2,21,-1
 825 535 l 1,22,-1
 623 535 l 1,23,-1
 623 627 l 1,24,25
 594 568 594 568 546.5 541 c 128,-1,26
 499 514 499 514 426 514 c 0,27,0
 360 514 360 514 304 544 c 128,-1,1
583 714 m 128,-1,29
 627 752 627 752 627 842 c 1,30,31
 589 845 589 845 560 845 c 0,32,33
 468 845 468 845 429.5 820.5 c 128,-1,34
 391 796 391 796 391 748 c 0,35,36
 391 720 391 720 415 698 c 128,-1,37
 439 676 439 676 479 676 c 0,38,28
 539 676 539 676 583 714 c 128,-1,29
141 453 m 1,39,-1
 889 453 l 1,40,-1
 889 293 l 1,41,-1
 141 293 l 1,42,-1
 141 453 l 1,39,-1
EndSplineSet
EndChar

StartChar: guillemotleft
Encoding: 171 171 109
Width: 1024
GlyphClass: 2
Flags: W
LayerCount: 2
Fore
SplineSet
121 465 m 1,0,-1
 121 532 l 1,1,-1
 457 856 l 1,2,-1
 559 745 l 1,3,-1
 315 496 l 1,4,-1
 575 203 l 1,5,-1
 463 96 l 1,6,-1
 121 465 l 1,0,-1
463 465 m 1,7,-1
 463 532 l 1,8,-1
 797 856 l 1,9,-1
 909 739 l 1,10,-1
 655 496 l 1,11,-1
 924 205 l 1,12,-1
 805 96 l 1,13,-1
 463 465 l 1,7,-1
EndSplineSet
EndChar

StartChar: logicalnot
Encoding: 172 172 110
Width: 1024
GlyphClass: 2
Flags: W
LayerCount: 2
Fore
SplineSet
653 555 m 1,0,-1
 166 555 l 1,1,-1
 166 750 l 1,2,-1
 868 750 l 1,3,-1
 868 315 l 1,4,-1
 653 315 l 1,5,-1
 653 555 l 1,0,-1
EndSplineSet
EndChar

StartChar: uni00AD
Encoding: 173 173 111
Width: 1024
GlyphClass: 2
Flags: W
LayerCount: 2
Fore
SplineSet
131 750 m 1,0,-1
 899 750 l 1,1,-1
 899 563 l 1,2,-1
 131 563 l 1,3,-1
 131 750 l 1,0,-1
EndSplineSet
EndChar

StartChar: registered
Encoding: 174 174 112
Width: 1024
GlyphClass: 2
Flags: W
LayerCount: 2
Fore
SplineSet
256 107.5 m 128,-1,1
 142 178 142 178 76 298 c 128,-1,2
 10 418 10 418 10 559 c 256,3,4
 10 700 10 700 78.5 820 c 128,-1,5
 147 940 147 940 262.5 1010.5 c 128,-1,6
 378 1081 378 1081 514 1081 c 0,7,8
 648 1081 648 1081 764 1010.5 c 128,-1,9
 880 940 880 940 949 820 c 128,-1,10
 1018 700 1018 700 1018 559 c 0,11,12
 1018 347 1018 347 868 193 c 0,13,14
 796 117 796 117 703.5 77 c 128,-1,15
 611 37 611 37 506 37 c 0,16,0
 370 37 370 37 256 107.5 c 128,-1,1
696 211.5 m 128,-1,18
 779 267 779 267 828 360 c 128,-1,19
 877 453 877 453 877 561 c 256,20,21
 877 669 877 669 828.5 762.5 c 128,-1,22
 780 856 780 856 697 911.5 c 128,-1,23
 614 967 614 967 516 967 c 0,24,25
 417 967 417 967 334.5 912.5 c 128,-1,26
 252 858 252 858 204 764.5 c 128,-1,27
 156 671 156 671 156 559 c 0,28,29
 156 449 156 449 204 356.5 c 128,-1,30
 252 264 252 264 334.5 210 c 128,-1,31
 417 156 417 156 516 156 c 0,32,17
 613 156 613 156 696 211.5 c 128,-1,18
502 504 m 1,33,-1
 446 504 l 1,34,-1
 446 281 l 1,35,-1
 305 281 l 1,36,-1
 305 856 l 1,37,-1
 496 856 l 2,38,39
 752 856 752 856 752 682 c 0,40,41
 752 632 752 632 724 590.5 c 128,-1,42
 696 549 696 549 647 526 c 1,43,-1
 766 295 l 1,44,-1
 616 272 l 1,45,-1
 502 504 l 1,33,-1
502 618 m 2,46,47
 594 618 594 618 594 678 c 0,48,49
 594 731 594 731 496 731 c 2,50,-1
 446 731 l 1,51,-1
 446 618 l 1,52,-1
 502 618 l 2,46,47
EndSplineSet
EndChar

StartChar: macron
Encoding: 175 175 113
Width: 1024
GlyphClass: 2
Flags: W
LayerCount: 2
Fore
SplineSet
221 1315 m 1,0,-1
 795 1315 l 1,1,-1
 795 1184 l 1,2,-1
 221 1184 l 1,3,-1
 221 1315 l 1,0,-1
EndSplineSet
EndChar

StartChar: degree
Encoding: 176 176 114
Width: 1024
GlyphClass: 2
Flags: W
LayerCount: 2
Fore
SplineSet
372 821 m 128,-1,1
 303 860 303 860 263 926.5 c 128,-1,2
 223 993 223 993 223 1073 c 256,3,4
 223 1153 223 1153 264.5 1220 c 128,-1,5
 306 1287 306 1287 375.5 1325.5 c 128,-1,6
 445 1364 445 1364 524 1364 c 0,7,8
 606 1364 606 1364 675 1324 c 128,-1,9
 744 1284 744 1284 784.5 1217 c 128,-1,10
 825 1150 825 1150 825 1073 c 256,11,12
 825 996 825 996 784.5 929 c 128,-1,13
 744 862 744 862 675 822 c 128,-1,14
 606 782 606 782 524 782 c 0,15,0
 441 782 441 782 372 821 c 128,-1,1
602.5 983.5 m 128,-1,17
 633 1019 633 1019 633 1075 c 256,18,19
 633 1131 633 1131 602.5 1167.5 c 128,-1,20
 572 1204 572 1204 524 1204 c 0,21,22
 477 1204 477 1204 447.5 1167.5 c 128,-1,23
 418 1131 418 1131 418 1075 c 256,24,25
 418 1019 418 1019 447.5 983.5 c 128,-1,26
 477 948 477 948 524 948 c 0,27,16
 572 948 572 948 602.5 983.5 c 128,-1,17
EndSplineSet
EndChar

StartChar: plusminus
Encoding: 177 177 115
Width: 1024
GlyphClass: 2
Flags: W
LayerCount: 2
Fore
SplineSet
412 666 m 1,0,-1
 78 666 l 1,1,-1
 78 856 l 1,2,-1
 412 856 l 1,3,-1
 412 1180 l 1,4,-1
 625 1180 l 1,5,-1
 625 856 l 1,6,-1
 946 856 l 1,7,-1
 946 666 l 1,8,-1
 625 666 l 1,9,-1
 625 313 l 1,10,-1
 412 313 l 1,11,-1
 412 666 l 1,0,-1
80 225 m 1,12,-1
 948 225 l 1,13,-1
 948 33 l 1,14,-1
 80 33 l 1,15,-1
 80 225 l 1,12,-1
EndSplineSet
EndChar

StartChar: uni00B2
Encoding: 178 178 116
Width: 1024
GlyphClass: 2
Flags: W
LayerCount: 2
Fore
SplineSet
862 731 m 1,0,-1
 862 537 l 1,1,-1
 242 537 l 1,2,-1
 242 686 l 1,3,4
 279 719 279 719 381 807 c 0,5,6
 470 882 470 882 516 926 c 128,-1,7
 562 970 562 970 591.5 1016 c 128,-1,8
 621 1062 621 1062 621 1108 c 0,9,10
 621 1146 621 1146 595 1167 c 128,-1,11
 569 1188 569 1188 524 1188 c 0,12,13
 452 1188 452 1188 398 1142 c 0,14,15
 375 1123 375 1123 368.5 1107.5 c 128,-1,16
 362 1092 362 1092 363 1073 c 1,17,-1
 348 1055 l 1,18,-1
 334 1067 l 1,19,-1
 209 1165 l 1,20,21
 269 1260 269 1260 350 1309 c 128,-1,22
 431 1358 431 1358 549 1358 c 0,23,24
 624 1358 624 1358 685 1329 c 128,-1,25
 746 1300 746 1300 780.5 1247 c 128,-1,26
 815 1194 815 1194 815 1124 c 0,27,28
 815 1056 815 1056 783 1000 c 128,-1,29
 751 944 751 944 699 896 c 128,-1,30
 647 848 647 848 545 768 c 2,31,-1
 476 713 l 1,32,-1
 763 713 l 2,33,34
 796 713 796 713 811.5 716.5 c 128,-1,35
 827 720 827 720 839 731 c 1,36,-1
 862 731 l 1,0,-1
EndSplineSet
EndChar

StartChar: uni00B3
Encoding: 179 179 117
Width: 1024
GlyphClass: 2
Flags: W
LayerCount: 2
Fore
SplineSet
330 553 m 128,-1,1
 248 592 248 592 176 674 c 1,2,-1
 302 819 l 1,3,-1
 313 833 l 1,4,-1
 331 818 l 2,5,6
 332 813 332 813 331.5 796.5 c 128,-1,7
 331 780 331 780 335.5 766.5 c 128,-1,8
 340 753 340 753 355 740 c 0,9,10
 385 715 385 715 424.5 701.5 c 128,-1,11
 464 688 464 688 504 688 c 0,12,13
 563 688 563 688 603 715 c 128,-1,14
 643 742 643 742 643 791 c 0,15,16
 643 832 643 832 613.5 855.5 c 128,-1,17
 584 879 584 879 524 879 c 0,18,19
 479 879 479 879 428 874 c 1,20,-1
 428 1016 l 1,21,22
 467 1012 467 1012 526 1012 c 0,23,24
 565 1012 565 1012 591.5 1037 c 128,-1,25
 618 1062 618 1062 618 1106 c 0,26,27
 618 1151 618 1151 587.5 1172.5 c 128,-1,28
 557 1194 557 1194 504 1194 c 0,29,30
 458 1194 458 1194 410 1172 c 128,-1,31
 362 1150 362 1150 330 1112 c 1,32,-1
 205 1210 l 1,33,34
 263 1284 263 1284 340 1321 c 128,-1,35
 417 1358 417 1358 518 1358 c 0,36,37
 602 1358 602 1358 668 1327 c 128,-1,38
 734 1296 734 1296 770.5 1246 c 128,-1,39
 807 1196 807 1196 807 1141 c 0,40,41
 807 1082 807 1082 779 1035 c 128,-1,42
 751 988 751 988 694 958 c 1,43,44
 763 931 763 931 801.5 885.5 c 128,-1,45
 840 840 840 840 840 776 c 0,46,47
 840 702 840 702 796.5 642 c 128,-1,48
 753 582 753 582 679 548 c 128,-1,49
 605 514 605 514 518 514 c 0,50,0
 412 514 412 514 330 553 c 128,-1,1
EndSplineSet
EndChar

StartChar: acute
Encoding: 180 180 118
Width: 1024
GlyphClass: 2
Flags: W
LayerCount: 2
Fore
SplineSet
434 1110 m 1,0,-1
 598 1448 l 1,1,-1
 737 1348 l 1,2,-1
 522 1059 l 1,3,-1
 434 1110 l 1,0,-1
EndSplineSet
EndChar

StartChar: uni00B5
Encoding: 181 181 119
Width: 1024
GlyphClass: 2
Flags: W
LayerCount: 2
Fore
SplineSet
57 418 m 1,1,-1
 57 936 l 1,2,-1
 276 936 l 1,3,-1
 276 387 l 2,4,5
 276 263 276 263 313.5 213 c 128,-1,6
 351 163 351 163 414 156 c 1,7,8
 474 168 474 168 514.5 223 c 128,-1,9
 555 278 555 278 555 383 c 2,10,-1
 555 936 l 1,11,-1
 770 936 l 1,12,-1
 770 256 l 2,13,14
 770 164 770 164 797 164 c 0,15,16
 809 164 809 164 823.5 179.5 c 128,-1,17
 838 195 838 195 846 213 c 2,18,-1
 899 315 l 1,19,-1
 1004 121 l 1,20,21
 906 -18 906 -18 786 -18 c 0,22,23
 733 -18 733 -18 690 4.5 c 128,-1,24
 647 27 647 27 621 68 c 1,25,26
 577 27 577 27 518 4.5 c 128,-1,27
 459 -18 459 -18 399 -18 c 0,28,29
 354 -18 354 -18 310 -6 c 128,-1,30
 266 6 266 6 231 29 c 1,31,-1
 231 -315 l 1,32,-1
 20 -315 l 1,33,0
 20 -193 20 -193 57 418 c 1,1,-1
EndSplineSet
EndChar

StartChar: paragraph
Encoding: 182 182 120
Width: 1024
GlyphClass: 2
Flags: W
LayerCount: 2
Fore
SplineSet
442 649 m 1,0,1
 346 663 346 663 269 715.5 c 128,-1,2
 192 768 192 768 148 848 c 128,-1,3
 104 928 104 928 104 1022 c 0,4,5
 104 1118 104 1118 154.5 1195 c 128,-1,6
 205 1272 205 1272 319 1318 c 128,-1,7
 433 1364 433 1364 616 1364 c 2,8,-1
 971 1364 l 1,9,-1
 971 -141 l 1,10,-1
 768 -141 l 1,11,-1
 768 1182 l 1,12,-1
 647 1182 l 1,13,-1
 647 -141 l 1,14,-1
 442 -141 l 1,15,-1
 442 649 l 1,0,1
EndSplineSet
EndChar

StartChar: periodcentered
Encoding: 183 183 121
Width: 1024
GlyphClass: 2
Flags: W
LayerCount: 2
Fore
SplineSet
408 556 m 128,-1,1
 372 575 372 575 351 608.5 c 128,-1,2
 330 642 330 642 330 682 c 0,3,4
 330 721 330 721 352 754.5 c 128,-1,5
 374 788 374 788 410.5 807.5 c 128,-1,6
 447 827 447 827 487 827 c 0,7,8
 528 827 528 827 565.5 806.5 c 128,-1,9
 603 786 603 786 626 752 c 128,-1,10
 649 718 649 718 649 682 c 0,11,12
 649 643 649 643 627.5 609.5 c 128,-1,13
 606 576 606 576 569 556.5 c 128,-1,14
 532 537 532 537 487 537 c 0,15,0
 444 537 444 537 408 556 c 128,-1,1
EndSplineSet
EndChar

StartChar: cedilla
Encoding: 184 184 122
Width: 1024
GlyphClass: 2
Flags: W
LayerCount: 2
Fore
SplineSet
295 -305 m 1,1,-1
 371 -172 l 1,2,3
 429 -233 429 -233 476.5 -257 c 128,-1,4
 524 -281 524 -281 578 -281 c 0,5,6
 624 -281 624 -281 648 -266.5 c 128,-1,7
 672 -252 672 -252 672 -227 c 0,8,9
 672 -204 672 -204 650 -193 c 128,-1,10
 628 -182 628 -182 575 -182 c 2,11,-1
 475 -182 l 1,12,-1
 500 0 l 1,13,-1
 664 0 l 1,14,-1
 655 -63 l 1,15,16
 732 -71 732 -71 773.5 -109.5 c 128,-1,17
 815 -148 815 -148 815 -209 c 0,18,19
 815 -260 815 -260 785.5 -308.5 c 128,-1,20
 756 -357 756 -357 696.5 -388.5 c 128,-1,21
 637 -420 637 -420 553 -420 c 0,22,0
 410 -420 410 -420 295 -305 c 1,1,-1
EndSplineSet
EndChar

StartChar: uni00B9
Encoding: 185 185 123
Width: 1024
GlyphClass: 2
Flags: W
LayerCount: 2
Fore
SplineSet
494 1110 m 1,0,-1
 305 1042 l 1,1,-1
 246 1161 l 1,2,-1
 563 1329 l 1,3,-1
 678 1329 l 1,4,-1
 678 539 l 1,5,-1
 494 539 l 1,6,-1
 494 1110 l 1,0,-1
EndSplineSet
EndChar

StartChar: ordmasculine
Encoding: 186 186 124
Width: 1024
GlyphClass: 2
Flags: W
LayerCount: 2
Fore
SplineSet
336 590 m 128,-1,1
 261 637 261 637 217.5 722 c 128,-1,2
 174 807 174 807 174 915 c 0,3,4
 174 1028 174 1028 220.5 1118 c 128,-1,5
 267 1208 267 1208 344.5 1258.5 c 128,-1,6
 422 1309 422 1309 510 1309 c 0,7,8
 602 1309 602 1309 676 1264.5 c 128,-1,9
 750 1220 750 1220 793 1134.5 c 128,-1,10
 836 1049 836 1049 836 930 c 0,11,12
 836 812 836 812 790 724 c 128,-1,13
 744 636 744 636 667.5 589.5 c 128,-1,14
 591 543 591 543 502 543 c 0,15,0
 411 543 411 543 336 590 c 128,-1,1
566.5 751.5 m 128,-1,17
 595 774 595 774 612 818 c 128,-1,18
 629 862 629 862 629 922 c 0,19,20
 629 984 629 984 612 1030.5 c 128,-1,21
 595 1077 595 1077 567 1101.5 c 128,-1,22
 539 1126 539 1126 506 1126 c 0,23,24
 472 1126 472 1126 443.5 1101.5 c 128,-1,25
 415 1077 415 1077 398 1031.5 c 128,-1,26
 381 986 381 986 381 924 c 0,27,28
 381 864 381 864 397.5 819.5 c 128,-1,29
 414 775 414 775 442 752 c 128,-1,30
 470 729 470 729 504 729 c 256,31,16
 538 729 538 729 566.5 751.5 c 128,-1,17
137 483 m 1,32,-1
 889 483 l 1,33,-1
 889 307 l 1,34,-1
 137 307 l 1,35,-1
 137 483 l 1,32,-1
EndSplineSet
EndChar

StartChar: guillemotright
Encoding: 187 187 125
Width: 1024
GlyphClass: 2
Flags: W
LayerCount: 2
Fore
SplineSet
137 205 m 1,0,-1
 406 496 l 1,1,-1
 152 739 l 1,2,-1
 264 856 l 1,3,-1
 598 532 l 1,4,-1
 598 465 l 1,5,-1
 256 96 l 1,6,-1
 137 205 l 1,0,-1
486 203 m 1,7,-1
 746 496 l 1,8,-1
 502 745 l 1,9,-1
 604 856 l 1,10,-1
 940 532 l 1,11,-1
 940 465 l 1,12,-1
 598 96 l 1,13,-1
 486 203 l 1,7,-1
EndSplineSet
EndChar

StartChar: onequarter
Encoding: 188 188 126
Width: 1024
GlyphClass: 2
Flags: W
LayerCount: 2
Fore
SplineSet
180 1198 m 1,0,-1
 47 1163 l 1,1,-1
 0 1257 l 1,2,-1
 240 1386 l 1,3,-1
 365 1386 l 1,4,-1
 365 748 l 1,5,-1
 180 748 l 1,6,-1
 180 1198 l 1,0,-1
123 -8 m 1,7,-1
 758 1374 l 1,8,-1
 889 1290 l 1,9,-1
 252 -88 l 1,10,-1
 123 -8 l 1,7,-1
735 8 m 1,11,-1
 457 8 l 1,12,-1
 457 100 l 1,13,-1
 782 514 l 1,14,-1
 911 514 l 1,15,-1
 911 135 l 1,16,-1
 1008 135 l 1,17,-1
 1008 8 l 1,18,-1
 911 8 l 1,19,-1
 911 -143 l 1,20,-1
 735 -143 l 1,21,-1
 735 8 l 1,11,-1
737 131 m 1,22,-1
 737 258 l 1,23,-1
 637 131 l 1,24,-1
 737 131 l 1,22,-1
EndSplineSet
EndChar

StartChar: onehalf
Encoding: 189 189 127
Width: 1024
GlyphClass: 2
Flags: W
LayerCount: 2
Fore
SplineSet
180 1198 m 1,0,-1
 47 1163 l 1,1,-1
 0 1257 l 1,2,-1
 240 1386 l 1,3,-1
 365 1386 l 1,4,-1
 365 748 l 1,5,-1
 180 748 l 1,6,-1
 180 1198 l 1,0,-1
82 -8 m 1,7,-1
 717 1374 l 1,8,-1
 848 1290 l 1,9,-1
 211 -88 l 1,10,-1
 82 -8 l 1,7,-1
514 -45 m 1,11,12
 578 31 578 31 731 168 c 1,13,-1
 752 186 l 2,14,15
 789 218 789 218 809 241.5 c 128,-1,16
 829 265 829 265 829 289 c 0,17,18
 829 323 829 323 803.5 344 c 128,-1,19
 778 365 778 365 741 365 c 0,20,21
 677 365 677 365 653 293 c 0,22,23
 652 288 652 288 648 274 c 128,-1,24
 644 260 644 260 635 248 c 1,25,-1
 500 336 l 1,26,27
 552 419 552 419 619.5 460.5 c 128,-1,28
 687 502 687 502 782 502 c 0,29,30
 844 502 844 502 896 473 c 128,-1,31
 948 444 948 444 978 396.5 c 128,-1,32
 1008 349 1008 349 1008 295 c 0,33,34
 1008 249 1008 249 992.5 216.5 c 128,-1,35
 977 184 977 184 938.5 149 c 128,-1,36
 900 114 900 114 821 57 c 0,37,38
 790 35 790 35 743 -6 c 1,39,-1
 967 -6 l 2,40,41
 972 -5 972 -5 987 4 c 0,42,43
 1005 18 1005 18 1022 18 c 1,44,-1
 1022 -150 l 1,45,-1
 514 -150 l 1,46,-1
 514 -45 l 1,11,12
EndSplineSet
EndChar

StartChar: threequarters
Encoding: 190 190 128
Width: 1024
GlyphClass: 2
Flags: W
LayerCount: 2
Fore
SplineSet
121.5 787.5 m 128,-1,1
 59 819 59 819 0 885 c 1,2,-1
 117 1014 l 1,3,4
 127 1005 127 1005 132.5 995.5 c 128,-1,5
 138 986 138 986 142.5 975.5 c 128,-1,6
 147 965 147 965 150 958 c 0,7,8
 161 937 161 937 191 918 c 128,-1,9
 221 899 221 899 260 899 c 0,10,11
 303 899 303 899 330.5 915 c 128,-1,12
 358 931 358 931 358 963 c 0,13,14
 358 996 358 996 335 1011 c 128,-1,15
 312 1026 312 1026 260 1026 c 0,16,17
 244 1026 244 1026 182 1020 c 1,18,-1
 182 1171 l 1,19,20
 202 1163 202 1163 216.5 1160 c 128,-1,21
 231 1157 231 1157 256 1157 c 0,22,23
 294 1157 294 1157 314 1171.5 c 128,-1,24
 334 1186 334 1186 334 1206 c 0,25,26
 334 1231 334 1231 313 1250.5 c 128,-1,27
 292 1270 292 1270 258 1270 c 0,28,29
 223 1270 223 1270 188.5 1249 c 128,-1,30
 154 1228 154 1228 117 1182 c 1,31,-1
 23 1284 l 1,32,33
 125 1409 125 1409 264 1409 c 0,34,35
 329 1409 329 1409 383.5 1382.5 c 128,-1,36
 438 1356 438 1356 470 1311.5 c 128,-1,37
 502 1267 502 1267 502 1214 c 0,38,39
 502 1181 502 1181 481 1148 c 128,-1,40
 460 1115 460 1115 428 1100 c 1,41,42
 471 1077 471 1077 499.5 1040 c 128,-1,43
 528 1003 528 1003 528 963 c 0,44,45
 528 903 528 903 491 856 c 128,-1,46
 454 809 454 809 392 782.5 c 128,-1,47
 330 756 330 756 258 756 c 0,48,0
 184 756 184 756 121.5 787.5 c 128,-1,1
184 -8 m 1,49,-1
 819 1374 l 1,50,-1
 950 1290 l 1,51,-1
 313 -88 l 1,52,-1
 184 -8 l 1,49,-1
737 8 m 1,53,-1
 459 8 l 1,54,-1
 459 100 l 1,55,-1
 784 514 l 1,56,-1
 913 514 l 1,57,-1
 913 135 l 1,58,-1
 1010 135 l 1,59,-1
 1010 8 l 1,60,-1
 913 8 l 1,61,-1
 913 -143 l 1,62,-1
 737 -143 l 1,63,-1
 737 8 l 1,53,-1
739 131 m 1,64,-1
 739 258 l 1,65,-1
 639 131 l 1,66,-1
 739 131 l 1,64,-1
EndSplineSet
EndChar

StartChar: questiondown
Encoding: 191 191 129
Width: 1024
GlyphClass: 2
Flags: W
LayerCount: 2
Fore
SplineSet
551.5 1159.5 m 128,-1,1
 584 1141 584 1141 602.5 1108.5 c 128,-1,2
 621 1076 621 1076 621 1038 c 0,3,4
 621 1001 621 1001 602.5 969.5 c 128,-1,5
 584 938 584 938 551.5 919.5 c 128,-1,6
 519 901 519 901 481 901 c 0,7,8
 444 901 444 901 412.5 919.5 c 128,-1,9
 381 938 381 938 362.5 969.5 c 128,-1,10
 344 1001 344 1001 344 1038 c 0,11,12
 344 1076 344 1076 362.5 1108.5 c 128,-1,13
 381 1141 381 1141 412.5 1159.5 c 128,-1,14
 444 1178 444 1178 481 1178 c 0,15,0
 519 1178 519 1178 551.5 1159.5 c 128,-1,1
588 659 m 2,16,17
 588 597 588 597 567.5 545.5 c 128,-1,18
 547 494 547 494 517.5 455.5 c 128,-1,19
 488 417 488 417 439 365 c 0,20,21
 396 320 396 320 370.5 287.5 c 128,-1,22
 345 255 345 255 328 215 c 128,-1,23
 311 175 311 175 311 129 c 0,24,25
 311 50 311 50 358.5 3.5 c 128,-1,26
 406 -43 406 -43 498 -43 c 0,27,28
 623 -43 623 -43 711 53 c 0,29,30
 732 77 732 77 738 92 c 128,-1,31
 744 107 744 107 742 125 c 1,32,-1
 756 144 l 1,33,-1
 770 133 l 1,34,-1
 907 10 l 1,35,36
 834 -100 834 -100 725 -162.5 c 128,-1,37
 616 -225 616 -225 490 -225 c 0,38,39
 376 -225 376 -225 289.5 -176 c 128,-1,40
 203 -127 203 -127 156 -46.5 c 128,-1,41
 109 34 109 34 109 125 c 0,42,43
 109 195 109 195 129 247.5 c 128,-1,44
 149 300 149 300 178 335.5 c 128,-1,45
 207 371 207 371 256 418 c 0,46,47
 300 460 300 460 325.5 490.5 c 128,-1,48
 351 521 351 521 368 563 c 128,-1,49
 385 605 385 605 385 659 c 2,50,-1
 385 772 l 1,51,-1
 588 772 l 1,52,-1
 588 659 l 2,16,17
EndSplineSet
EndChar

StartChar: Agrave
Encoding: 192 192 130
Width: 1024
GlyphClass: 2
Flags: W
LayerCount: 2
Fore
SplineSet
303 1468 m 1,0,-1
 399 1645 l 1,1,-1
 712 1413 l 1,2,-1
 671 1339 l 1,3,-1
 303 1468 l 1,0,-1
675 330 m 1,4,-1
 349 330 l 1,5,-1
 256 0 l 1,6,-1
 20 0 l 1,7,-1
 446 1276 l 1,8,-1
 580 1276 l 1,9,-1
 1006 0 l 1,10,-1
 766 0 l 1,11,-1
 675 330 l 1,4,-1
631 489 m 1,12,-1
 514 913 l 1,13,-1
 394 489 l 1,14,-1
 631 489 l 1,12,-1
EndSplineSet
EndChar

StartChar: Aacute
Encoding: 193 193 131
Width: 1024
GlyphClass: 2
Flags: W
LayerCount: 2
Fore
SplineSet
315 1413 m 1,0,-1
 629 1645 l 1,1,-1
 725 1468 l 1,2,-1
 356 1339 l 1,3,-1
 315 1413 l 1,0,-1
675 330 m 1,4,-1
 349 330 l 1,5,-1
 256 0 l 1,6,-1
 20 0 l 1,7,-1
 446 1276 l 1,8,-1
 580 1276 l 1,9,-1
 1006 0 l 1,10,-1
 766 0 l 1,11,-1
 675 330 l 1,4,-1
631 489 m 1,12,-1
 514 913 l 1,13,-1
 394 489 l 1,14,-1
 631 489 l 1,12,-1
EndSplineSet
EndChar

StartChar: Acircumflex
Encoding: 194 194 132
Width: 1024
GlyphClass: 2
Flags: W
LayerCount: 2
Fore
SplineSet
152 1417 m 1,0,-1
 481 1638 l 1,1,-1
 545 1638 l 1,2,-1
 868 1421 l 1,3,-1
 791 1329 l 1,4,-1
 514 1464 l 1,5,-1
 225 1329 l 1,6,-1
 152 1417 l 1,0,-1
675 330 m 1,7,-1
 349 330 l 1,8,-1
 256 0 l 1,9,-1
 20 0 l 1,10,-1
 446 1276 l 1,11,-1
 580 1276 l 1,12,-1
 1006 0 l 1,13,-1
 766 0 l 1,14,-1
 675 330 l 1,7,-1
631 489 m 1,15,-1
 514 913 l 1,16,-1
 394 489 l 1,17,-1
 631 489 l 1,15,-1
EndSplineSet
EndChar

StartChar: Atilde
Encoding: 195 195 133
Width: 1024
GlyphClass: 2
Flags: W
LayerCount: 2
Fore
SplineSet
863 1579 m 1,0,1
 824 1501 824 1501 773 1458 c 128,-1,2
 722 1415 722 1415 662 1415 c 0,3,4
 618 1415 618 1415 586.5 1432.5 c 128,-1,5
 555 1450 555 1450 513 1485 c 0,6,7
 481 1514 481 1514 457 1528 c 128,-1,8
 433 1542 433 1542 404 1542 c 0,9,10
 360 1542 360 1542 333 1519.5 c 128,-1,11
 306 1497 306 1497 283 1441 c 1,12,-1
 156 1493 l 1,13,14
 188 1585 188 1585 250 1632 c 128,-1,15
 312 1679 312 1679 396 1679 c 0,16,17
 444 1679 444 1679 479 1660.5 c 128,-1,18
 514 1642 514 1642 556 1607 c 0,19,20
 588 1581 588 1581 609 1568.5 c 128,-1,21
 630 1556 630 1556 654 1556 c 0,22,23
 679 1556 679 1556 698 1576 c 128,-1,24
 717 1596 717 1596 740 1642 c 1,25,-1
 863 1579 l 1,0,1
675 330 m 1,26,-1
 349 330 l 1,27,-1
 256 0 l 1,28,-1
 20 0 l 1,29,-1
 446 1276 l 1,30,-1
 580 1276 l 1,31,-1
 1006 0 l 1,32,-1
 766 0 l 1,33,-1
 675 330 l 1,26,-1
631 489 m 1,34,-1
 514 913 l 1,35,-1
 394 489 l 1,36,-1
 631 489 l 1,34,-1
EndSplineSet
EndChar

StartChar: Adieresis
Encoding: 196 196 134
Width: 1024
GlyphClass: 2
Flags: W
LayerCount: 2
Fore
SplineSet
254.5 1416.5 m 128,-1,1
 222 1434 222 1434 203 1464.5 c 128,-1,2
 184 1495 184 1495 184 1530 c 256,3,4
 184 1565 184 1565 203 1596 c 128,-1,5
 222 1627 222 1627 254.5 1645 c 128,-1,6
 287 1663 287 1663 325 1663 c 0,7,8
 366 1663 366 1663 399 1644 c 128,-1,9
 432 1625 432 1625 450.5 1594.5 c 128,-1,10
 469 1564 469 1564 469 1530 c 0,11,12
 469 1495 469 1495 449.5 1464.5 c 128,-1,13
 430 1434 430 1434 396.5 1416.5 c 128,-1,14
 363 1399 363 1399 325 1399 c 256,15,0
 287 1399 287 1399 254.5 1416.5 c 128,-1,1
631 1416.5 m 128,-1,17
 599 1434 599 1434 580 1464 c 128,-1,18
 561 1494 561 1494 561 1530 c 256,19,20
 561 1566 561 1566 580 1596.5 c 128,-1,21
 599 1627 599 1627 631.5 1645 c 128,-1,22
 664 1663 664 1663 702 1663 c 0,23,24
 743 1663 743 1663 775.5 1644 c 128,-1,25
 808 1625 808 1625 825.5 1594 c 128,-1,26
 843 1563 843 1563 843 1530 c 0,27,28
 843 1495 843 1495 824 1464.5 c 128,-1,29
 805 1434 805 1434 772.5 1416.5 c 128,-1,30
 740 1399 740 1399 702 1399 c 0,31,16
 663 1399 663 1399 631 1416.5 c 128,-1,17
675 330 m 1,32,-1
 349 330 l 1,33,-1
 256 0 l 1,34,-1
 20 0 l 1,35,-1
 446 1276 l 1,36,-1
 580 1276 l 1,37,-1
 1006 0 l 1,38,-1
 766 0 l 1,39,-1
 675 330 l 1,32,-1
631 489 m 1,40,-1
 514 913 l 1,41,-1
 394 489 l 1,42,-1
 631 489 l 1,40,-1
EndSplineSet
EndChar

StartChar: Aring
Encoding: 197 197 135
Width: 1024
GlyphClass: 2
Flags: W
LayerCount: 2
Fore
SplineSet
675 330 m 1,0,-1
 349 330 l 1,1,-1
 256 0 l 1,2,-1
 20 0 l 1,3,-1
 445 1273 l 1,4,5
 382 1294 382 1294 341.5 1347 c 128,-1,6
 301 1400 301 1400 301 1466 c 0,7,8
 301 1521 301 1521 329.5 1567.5 c 128,-1,9
 358 1614 358 1614 406.5 1641.5 c 128,-1,10
 455 1669 455 1669 512 1669 c 0,11,12
 570 1669 570 1669 619 1641.5 c 128,-1,13
 668 1614 668 1614 697.5 1567.5 c 128,-1,14
 727 1521 727 1521 727 1466 c 0,15,16
 727 1400 727 1400 686 1347 c 128,-1,17
 645 1294 645 1294 581 1273 c 1,18,-1
 1006 0 l 1,19,-1
 766 0 l 1,20,-1
 675 330 l 1,0,-1
467.5 1523 m 128,-1,22
 449 1500 449 1500 449 1468 c 256,23,24
 449 1436 449 1436 467.5 1414.5 c 128,-1,25
 486 1393 486 1393 514 1393 c 256,26,27
 542 1393 542 1393 561 1414.5 c 128,-1,28
 580 1436 580 1436 580 1468 c 256,29,30
 580 1500 580 1500 561 1523 c 128,-1,31
 542 1546 542 1546 514 1546 c 256,32,21
 486 1546 486 1546 467.5 1523 c 128,-1,22
631 489 m 1,33,-1
 514 913 l 1,34,-1
 394 489 l 1,35,-1
 631 489 l 1,33,-1
EndSplineSet
EndChar

StartChar: AE
Encoding: 198 198 136
Width: 1024
GlyphClass: 2
Flags: W
LayerCount: 2
Fore
SplineSet
393 1276 m 1,0,-1
 1020 1276 l 1,1,-1
 1020 1081 l 1,2,-1
 698 1081 l 1,3,-1
 698 764 l 1,4,-1
 969 764 l 1,5,-1
 969 563 l 1,6,-1
 698 563 l 1,7,-1
 698 197 l 1,8,-1
 1016 197 l 1,9,-1
 1016 0 l 1,10,-1
 485 0 l 1,11,-1
 485 326 l 1,12,-1
 311 326 l 1,13,-1
 221 0 l 1,14,-1
 0 0 l 1,15,-1
 393 1276 l 1,0,-1
487 514 m 1,16,-1
 487 967 l 1,17,-1
 483 967 l 1,18,-1
 362 514 l 1,19,-1
 487 514 l 1,16,-1
EndSplineSet
EndChar

StartChar: Ccedilla
Encoding: 199 199 137
Width: 1024
GlyphClass: 2
Flags: W
LayerCount: 2
Fore
SplineSet
809 326 m 1,1,-1
 983 213 l 1,2,3
 863 10 863 10 658 -29 c 1,4,-1
 653 -63 l 1,5,6
 730 -71 730 -71 771.5 -109.5 c 128,-1,7
 813 -148 813 -148 813 -209 c 0,8,9
 813 -260 813 -260 783.5 -308.5 c 128,-1,10
 754 -357 754 -357 694.5 -388.5 c 128,-1,11
 635 -420 635 -420 551 -420 c 0,12,13
 408 -420 408 -420 293 -305 c 1,14,-1
 369 -172 l 1,15,16
 427 -233 427 -233 474.5 -257 c 128,-1,17
 522 -281 522 -281 576 -281 c 0,18,19
 622 -281 622 -281 646 -266.5 c 128,-1,20
 670 -252 670 -252 670 -227 c 0,21,22
 670 -204 670 -204 648 -193 c 128,-1,23
 626 -182 626 -182 573 -182 c 2,24,-1
 473 -182 l 1,25,-1
 494 -32 l 1,26,27
 367 -15 367 -15 269 64 c 128,-1,28
 171 143 171 143 115 286.5 c 128,-1,29
 59 430 59 430 59 631 c 0,30,31
 59 868 59 868 135.5 1020 c 128,-1,32
 212 1172 212 1172 330.5 1240.5 c 128,-1,33
 449 1309 449 1309 582 1309 c 0,34,35
 727 1309 727 1309 833 1232 c 128,-1,36
 939 1155 939 1155 997 1018 c 1,37,-1
 831 937 l 1,38,-1
 815 929 l 1,39,-1
 805 950 l 1,40,41
 808 959 808 959 808 969 c 0,42,43
 808 990 808 990 784 1026 c 0,44,45
 715 1124 715 1124 588 1124 c 0,46,47
 440 1124 440 1124 368.5 996 c 128,-1,48
 297 868 297 868 297 641 c 0,49,50
 297 502 297 502 332.5 389.5 c 128,-1,51
 368 277 368 277 432.5 212 c 128,-1,52
 497 147 497 147 578 147 c 0,53,0
 708 147 708 147 809 326 c 1,1,-1
EndSplineSet
EndChar

StartChar: Egrave
Encoding: 200 200 138
Width: 1024
GlyphClass: 2
Flags: W
LayerCount: 2
Fore
SplineSet
342 1468 m 1,0,-1
 438 1645 l 1,1,-1
 751 1413 l 1,2,-1
 710 1339 l 1,3,-1
 342 1468 l 1,0,-1
115 1276 m 1,4,-1
 946 1276 l 1,5,-1
 946 1079 l 1,6,-1
 338 1079 l 1,7,-1
 338 764 l 1,8,-1
 842 764 l 1,9,-1
 842 563 l 1,10,-1
 338 563 l 1,11,-1
 338 197 l 1,12,-1
 942 197 l 1,13,-1
 942 0 l 1,14,-1
 115 0 l 1,15,-1
 115 1276 l 1,4,-1
EndSplineSet
EndChar

StartChar: Eacute
Encoding: 201 201 139
Width: 1024
GlyphClass: 2
Flags: W
LayerCount: 2
Fore
SplineSet
354 1413 m 1,0,-1
 668 1645 l 1,1,-1
 764 1468 l 1,2,-1
 395 1339 l 1,3,-1
 354 1413 l 1,0,-1
115 1276 m 1,4,-1
 946 1276 l 1,5,-1
 946 1079 l 1,6,-1
 338 1079 l 1,7,-1
 338 764 l 1,8,-1
 842 764 l 1,9,-1
 842 563 l 1,10,-1
 338 563 l 1,11,-1
 338 197 l 1,12,-1
 942 197 l 1,13,-1
 942 0 l 1,14,-1
 115 0 l 1,15,-1
 115 1276 l 1,4,-1
EndSplineSet
EndChar

StartChar: Ecircumflex
Encoding: 202 202 140
Width: 1024
GlyphClass: 2
Flags: W
LayerCount: 2
Fore
SplineSet
191 1417 m 1,0,-1
 520 1638 l 1,1,-1
 584 1638 l 1,2,-1
 907 1421 l 1,3,-1
 830 1329 l 1,4,-1
 553 1464 l 1,5,-1
 264 1329 l 1,6,-1
 191 1417 l 1,0,-1
115 1276 m 1,7,-1
 946 1276 l 1,8,-1
 946 1079 l 1,9,-1
 338 1079 l 1,10,-1
 338 764 l 1,11,-1
 842 764 l 1,12,-1
 842 563 l 1,13,-1
 338 563 l 1,14,-1
 338 197 l 1,15,-1
 942 197 l 1,16,-1
 942 0 l 1,17,-1
 115 0 l 1,18,-1
 115 1276 l 1,7,-1
EndSplineSet
EndChar

StartChar: Edieresis
Encoding: 203 203 141
Width: 1024
GlyphClass: 2
Flags: W
LayerCount: 2
Fore
SplineSet
293.5 1416.5 m 128,-1,1
 261 1434 261 1434 242 1464.5 c 128,-1,2
 223 1495 223 1495 223 1530 c 256,3,4
 223 1565 223 1565 242 1596 c 128,-1,5
 261 1627 261 1627 293.5 1645 c 128,-1,6
 326 1663 326 1663 364 1663 c 0,7,8
 405 1663 405 1663 438 1644 c 128,-1,9
 471 1625 471 1625 489.5 1594.5 c 128,-1,10
 508 1564 508 1564 508 1530 c 0,11,12
 508 1495 508 1495 488.5 1464.5 c 128,-1,13
 469 1434 469 1434 435.5 1416.5 c 128,-1,14
 402 1399 402 1399 364 1399 c 256,15,0
 326 1399 326 1399 293.5 1416.5 c 128,-1,1
670 1416.5 m 128,-1,17
 638 1434 638 1434 619 1464 c 128,-1,18
 600 1494 600 1494 600 1530 c 256,19,20
 600 1566 600 1566 619 1596.5 c 128,-1,21
 638 1627 638 1627 670.5 1645 c 128,-1,22
 703 1663 703 1663 741 1663 c 0,23,24
 782 1663 782 1663 814.5 1644 c 128,-1,25
 847 1625 847 1625 864.5 1594 c 128,-1,26
 882 1563 882 1563 882 1530 c 0,27,28
 882 1495 882 1495 863 1464.5 c 128,-1,29
 844 1434 844 1434 811.5 1416.5 c 128,-1,30
 779 1399 779 1399 741 1399 c 0,31,16
 702 1399 702 1399 670 1416.5 c 128,-1,17
115 1276 m 1,32,-1
 946 1276 l 1,33,-1
 946 1079 l 1,34,-1
 338 1079 l 1,35,-1
 338 764 l 1,36,-1
 842 764 l 1,37,-1
 842 563 l 1,38,-1
 338 563 l 1,39,-1
 338 197 l 1,40,-1
 942 197 l 1,41,-1
 942 0 l 1,42,-1
 115 0 l 1,43,-1
 115 1276 l 1,32,-1
EndSplineSet
EndChar

StartChar: Igrave
Encoding: 204 204 142
Width: 1024
GlyphClass: 2
Flags: W
LayerCount: 2
Fore
SplineSet
301 1468 m 1,0,-1
 397 1645 l 1,1,-1
 710 1413 l 1,2,-1
 669 1339 l 1,3,-1
 301 1468 l 1,0,-1
150 190 m 1,4,-1
 397 190 l 1,5,-1
 397 1085 l 1,6,-1
 162 1085 l 1,7,-1
 162 1276 l 1,8,-1
 874 1276 l 1,9,-1
 874 1085 l 1,10,-1
 627 1085 l 1,11,-1
 627 188 l 1,12,-1
 885 188 l 1,13,-1
 885 0 l 1,14,-1
 150 0 l 1,15,-1
 150 190 l 1,4,-1
EndSplineSet
EndChar

StartChar: Iacute
Encoding: 205 205 143
Width: 1024
GlyphClass: 2
Flags: W
LayerCount: 2
Fore
SplineSet
313 1413 m 1,0,-1
 627 1645 l 1,1,-1
 723 1468 l 1,2,-1
 354 1339 l 1,3,-1
 313 1413 l 1,0,-1
150 190 m 1,4,-1
 397 190 l 1,5,-1
 397 1085 l 1,6,-1
 162 1085 l 1,7,-1
 162 1276 l 1,8,-1
 874 1276 l 1,9,-1
 874 1085 l 1,10,-1
 627 1085 l 1,11,-1
 627 188 l 1,12,-1
 885 188 l 1,13,-1
 885 0 l 1,14,-1
 150 0 l 1,15,-1
 150 190 l 1,4,-1
EndSplineSet
EndChar

StartChar: Icircumflex
Encoding: 206 206 144
Width: 1024
GlyphClass: 2
Flags: W
LayerCount: 2
Fore
SplineSet
150 1417 m 1,0,-1
 479 1638 l 1,1,-1
 543 1638 l 1,2,-1
 866 1421 l 1,3,-1
 789 1329 l 1,4,-1
 512 1464 l 1,5,-1
 223 1329 l 1,6,-1
 150 1417 l 1,0,-1
150 190 m 1,7,-1
 397 190 l 1,8,-1
 397 1085 l 1,9,-1
 162 1085 l 1,10,-1
 162 1276 l 1,11,-1
 874 1276 l 1,12,-1
 874 1085 l 1,13,-1
 627 1085 l 1,14,-1
 627 188 l 1,15,-1
 885 188 l 1,16,-1
 885 0 l 1,17,-1
 150 0 l 1,18,-1
 150 190 l 1,7,-1
EndSplineSet
EndChar

StartChar: Idieresis
Encoding: 207 207 145
Width: 1024
GlyphClass: 2
Flags: W
LayerCount: 2
Fore
SplineSet
252.5 1416.5 m 128,-1,1
 220 1434 220 1434 201 1464.5 c 128,-1,2
 182 1495 182 1495 182 1530 c 256,3,4
 182 1565 182 1565 201 1596 c 128,-1,5
 220 1627 220 1627 252.5 1645 c 128,-1,6
 285 1663 285 1663 323 1663 c 0,7,8
 364 1663 364 1663 397 1644 c 128,-1,9
 430 1625 430 1625 448.5 1594.5 c 128,-1,10
 467 1564 467 1564 467 1530 c 0,11,12
 467 1495 467 1495 447.5 1464.5 c 128,-1,13
 428 1434 428 1434 394.5 1416.5 c 128,-1,14
 361 1399 361 1399 323 1399 c 256,15,0
 285 1399 285 1399 252.5 1416.5 c 128,-1,1
629 1416.5 m 128,-1,17
 597 1434 597 1434 578 1464 c 128,-1,18
 559 1494 559 1494 559 1530 c 256,19,20
 559 1566 559 1566 578 1596.5 c 128,-1,21
 597 1627 597 1627 629.5 1645 c 128,-1,22
 662 1663 662 1663 700 1663 c 0,23,24
 741 1663 741 1663 773.5 1644 c 128,-1,25
 806 1625 806 1625 823.5 1594 c 128,-1,26
 841 1563 841 1563 841 1530 c 0,27,28
 841 1495 841 1495 822 1464.5 c 128,-1,29
 803 1434 803 1434 770.5 1416.5 c 128,-1,30
 738 1399 738 1399 700 1399 c 0,31,16
 661 1399 661 1399 629 1416.5 c 128,-1,17
150 190 m 1,32,-1
 397 190 l 1,33,-1
 397 1085 l 1,34,-1
 162 1085 l 1,35,-1
 162 1276 l 1,36,-1
 874 1276 l 1,37,-1
 874 1085 l 1,38,-1
 627 1085 l 1,39,-1
 627 188 l 1,40,-1
 885 188 l 1,41,-1
 885 0 l 1,42,-1
 150 0 l 1,43,-1
 150 190 l 1,32,-1
EndSplineSet
EndChar

StartChar: Eth
Encoding: 208 208 146
Width: 1024
GlyphClass: 2
Flags: W
LayerCount: 2
Fore
SplineSet
90 580 m 1,0,-1
 10 580 l 1,1,-1
 10 768 l 1,2,-1
 90 768 l 1,3,-1
 90 1276 l 1,4,-1
 420 1276 l 2,5,6
 583 1276 583 1276 679.5 1232.5 c 128,-1,7
 776 1189 776 1189 844 1098 c 0,8,9
 975 920 975 920 975 629 c 0,10,11
 975 327 975 327 834.5 163.5 c 128,-1,12
 694 0 694 0 395 0 c 2,13,-1
 90 0 l 1,14,-1
 90 580 l 1,0,-1
391 180 m 2,15,16
 570 180 570 180 657.5 293 c 128,-1,17
 745 406 745 406 745 623 c 0,18,19
 745 1085 745 1085 412 1085 c 2,20,-1
 313 1085 l 1,21,-1
 313 768 l 1,22,-1
 506 768 l 1,23,-1
 506 580 l 1,24,-1
 313 580 l 1,25,-1
 313 180 l 1,26,-1
 391 180 l 2,15,16
EndSplineSet
EndChar

StartChar: Ntilde
Encoding: 209 209 147
Width: 1024
GlyphClass: 2
Flags: W
LayerCount: 2
Fore
SplineSet
861 1579 m 1,0,1
 822 1501 822 1501 771 1458 c 128,-1,2
 720 1415 720 1415 660 1415 c 0,3,4
 616 1415 616 1415 584.5 1432.5 c 128,-1,5
 553 1450 553 1450 511 1485 c 0,6,7
 479 1514 479 1514 455 1528 c 128,-1,8
 431 1542 431 1542 402 1542 c 0,9,10
 358 1542 358 1542 331 1519.5 c 128,-1,11
 304 1497 304 1497 281 1441 c 1,12,-1
 154 1493 l 1,13,14
 186 1585 186 1585 248 1632 c 128,-1,15
 310 1679 310 1679 394 1679 c 0,16,17
 442 1679 442 1679 477 1660.5 c 128,-1,18
 512 1642 512 1642 554 1607 c 0,19,20
 586 1581 586 1581 607 1568.5 c 128,-1,21
 628 1556 628 1556 652 1556 c 0,22,23
 677 1556 677 1556 696 1576 c 128,-1,24
 715 1596 715 1596 738 1642 c 1,25,-1
 861 1579 l 1,0,1
66 1276 m 1,26,-1
 346 1276 l 1,27,-1
 752 362 l 1,28,-1
 752 1276 l 1,29,-1
 974 1276 l 1,30,-1
 974 1253 l 1,31,32
 963 1241 963 1241 960 1226.5 c 128,-1,33
 957 1212 957 1212 958 1178 c 2,34,-1
 958 0 l 1,35,-1
 705 0 l 1,36,-1
 272 965 l 1,37,-1
 272 0 l 1,38,-1
 66 0 l 1,39,-1
 66 1276 l 1,26,-1
EndSplineSet
EndChar

StartChar: Ograve
Encoding: 210 210 148
Width: 1024
GlyphClass: 2
Flags: W
LayerCount: 2
Fore
SplineSet
305 1468 m 1,0,-1
 401 1645 l 1,1,-1
 714 1413 l 1,2,-1
 673 1339 l 1,3,-1
 305 1468 l 1,0,-1
258.5 43.5 m 128,-1,5
 150 124 150 124 92.5 276.5 c 128,-1,6
 35 429 35 429 35 641 c 0,7,8
 35 850 35 850 92.5 1000 c 128,-1,9
 150 1150 150 1150 258.5 1229.5 c 128,-1,10
 367 1309 367 1309 518 1309 c 256,11,12
 669 1309 669 1309 777.5 1229.5 c 128,-1,13
 886 1150 886 1150 943.5 1000 c 128,-1,14
 1001 850 1001 850 1001 641 c 0,15,16
 1001 429 1001 429 943.5 276.5 c 128,-1,17
 886 124 886 124 777.5 43.5 c 128,-1,18
 669 -37 669 -37 518 -37 c 256,19,4
 367 -37 367 -37 258.5 43.5 c 128,-1,5
649.5 209.5 m 128,-1,21
 705 272 705 272 734.5 386.5 c 128,-1,22
 764 501 764 501 764 653 c 0,23,24
 764 794 764 794 734.5 900.5 c 128,-1,25
 705 1007 705 1007 649.5 1065.5 c 128,-1,26
 594 1124 594 1124 518 1124 c 0,27,28
 443 1124 443 1124 387 1065.5 c 128,-1,29
 331 1007 331 1007 301.5 900.5 c 128,-1,30
 272 794 272 794 272 653 c 0,31,32
 272 501 272 501 301.5 386.5 c 128,-1,33
 331 272 331 272 386.5 209.5 c 128,-1,34
 442 147 442 147 518 147 c 256,35,20
 594 147 594 147 649.5 209.5 c 128,-1,21
EndSplineSet
EndChar

StartChar: Oacute
Encoding: 211 211 149
Width: 1024
GlyphClass: 2
Flags: W
LayerCount: 2
Fore
SplineSet
317 1413 m 1,0,-1
 631 1645 l 1,1,-1
 727 1468 l 1,2,-1
 358 1339 l 1,3,-1
 317 1413 l 1,0,-1
258.5 43.5 m 128,-1,5
 150 124 150 124 92.5 276.5 c 128,-1,6
 35 429 35 429 35 641 c 0,7,8
 35 850 35 850 92.5 1000 c 128,-1,9
 150 1150 150 1150 258.5 1229.5 c 128,-1,10
 367 1309 367 1309 518 1309 c 256,11,12
 669 1309 669 1309 777.5 1229.5 c 128,-1,13
 886 1150 886 1150 943.5 1000 c 128,-1,14
 1001 850 1001 850 1001 641 c 0,15,16
 1001 429 1001 429 943.5 276.5 c 128,-1,17
 886 124 886 124 777.5 43.5 c 128,-1,18
 669 -37 669 -37 518 -37 c 256,19,4
 367 -37 367 -37 258.5 43.5 c 128,-1,5
649.5 209.5 m 128,-1,21
 705 272 705 272 734.5 386.5 c 128,-1,22
 764 501 764 501 764 653 c 0,23,24
 764 794 764 794 734.5 900.5 c 128,-1,25
 705 1007 705 1007 649.5 1065.5 c 128,-1,26
 594 1124 594 1124 518 1124 c 0,27,28
 443 1124 443 1124 387 1065.5 c 128,-1,29
 331 1007 331 1007 301.5 900.5 c 128,-1,30
 272 794 272 794 272 653 c 0,31,32
 272 501 272 501 301.5 386.5 c 128,-1,33
 331 272 331 272 386.5 209.5 c 128,-1,34
 442 147 442 147 518 147 c 256,35,20
 594 147 594 147 649.5 209.5 c 128,-1,21
EndSplineSet
EndChar

StartChar: Ocircumflex
Encoding: 212 212 150
Width: 1024
GlyphClass: 2
Flags: W
LayerCount: 2
Fore
SplineSet
154 1417 m 1,0,-1
 483 1638 l 1,1,-1
 547 1638 l 1,2,-1
 870 1421 l 1,3,-1
 793 1329 l 1,4,-1
 516 1464 l 1,5,-1
 227 1329 l 1,6,-1
 154 1417 l 1,0,-1
258.5 43.5 m 128,-1,8
 150 124 150 124 92.5 276.5 c 128,-1,9
 35 429 35 429 35 641 c 0,10,11
 35 850 35 850 92.5 1000 c 128,-1,12
 150 1150 150 1150 258.5 1229.5 c 128,-1,13
 367 1309 367 1309 518 1309 c 256,14,15
 669 1309 669 1309 777.5 1229.5 c 128,-1,16
 886 1150 886 1150 943.5 1000 c 128,-1,17
 1001 850 1001 850 1001 641 c 0,18,19
 1001 429 1001 429 943.5 276.5 c 128,-1,20
 886 124 886 124 777.5 43.5 c 128,-1,21
 669 -37 669 -37 518 -37 c 256,22,7
 367 -37 367 -37 258.5 43.5 c 128,-1,8
649.5 209.5 m 128,-1,24
 705 272 705 272 734.5 386.5 c 128,-1,25
 764 501 764 501 764 653 c 0,26,27
 764 794 764 794 734.5 900.5 c 128,-1,28
 705 1007 705 1007 649.5 1065.5 c 128,-1,29
 594 1124 594 1124 518 1124 c 0,30,31
 443 1124 443 1124 387 1065.5 c 128,-1,32
 331 1007 331 1007 301.5 900.5 c 128,-1,33
 272 794 272 794 272 653 c 0,34,35
 272 501 272 501 301.5 386.5 c 128,-1,36
 331 272 331 272 386.5 209.5 c 128,-1,37
 442 147 442 147 518 147 c 256,38,23
 594 147 594 147 649.5 209.5 c 128,-1,24
EndSplineSet
EndChar

StartChar: Otilde
Encoding: 213 213 151
Width: 1024
GlyphClass: 2
Flags: W
LayerCount: 2
Fore
SplineSet
865 1579 m 1,0,1
 826 1501 826 1501 775 1458 c 128,-1,2
 724 1415 724 1415 664 1415 c 0,3,4
 620 1415 620 1415 588.5 1432.5 c 128,-1,5
 557 1450 557 1450 515 1485 c 0,6,7
 483 1514 483 1514 459 1528 c 128,-1,8
 435 1542 435 1542 406 1542 c 0,9,10
 362 1542 362 1542 335 1519.5 c 128,-1,11
 308 1497 308 1497 285 1441 c 1,12,-1
 158 1493 l 1,13,14
 190 1585 190 1585 252 1632 c 128,-1,15
 314 1679 314 1679 398 1679 c 0,16,17
 446 1679 446 1679 481 1660.5 c 128,-1,18
 516 1642 516 1642 558 1607 c 0,19,20
 590 1581 590 1581 611 1568.5 c 128,-1,21
 632 1556 632 1556 656 1556 c 0,22,23
 681 1556 681 1556 700 1576 c 128,-1,24
 719 1596 719 1596 742 1642 c 1,25,-1
 865 1579 l 1,0,1
258.5 43.5 m 128,-1,27
 150 124 150 124 92.5 276.5 c 128,-1,28
 35 429 35 429 35 641 c 0,29,30
 35 850 35 850 92.5 1000 c 128,-1,31
 150 1150 150 1150 258.5 1229.5 c 128,-1,32
 367 1309 367 1309 518 1309 c 256,33,34
 669 1309 669 1309 777.5 1229.5 c 128,-1,35
 886 1150 886 1150 943.5 1000 c 128,-1,36
 1001 850 1001 850 1001 641 c 0,37,38
 1001 429 1001 429 943.5 276.5 c 128,-1,39
 886 124 886 124 777.5 43.5 c 128,-1,40
 669 -37 669 -37 518 -37 c 256,41,26
 367 -37 367 -37 258.5 43.5 c 128,-1,27
649.5 209.5 m 128,-1,43
 705 272 705 272 734.5 386.5 c 128,-1,44
 764 501 764 501 764 653 c 0,45,46
 764 794 764 794 734.5 900.5 c 128,-1,47
 705 1007 705 1007 649.5 1065.5 c 128,-1,48
 594 1124 594 1124 518 1124 c 0,49,50
 443 1124 443 1124 387 1065.5 c 128,-1,51
 331 1007 331 1007 301.5 900.5 c 128,-1,52
 272 794 272 794 272 653 c 0,53,54
 272 501 272 501 301.5 386.5 c 128,-1,55
 331 272 331 272 386.5 209.5 c 128,-1,56
 442 147 442 147 518 147 c 256,57,42
 594 147 594 147 649.5 209.5 c 128,-1,43
EndSplineSet
EndChar

StartChar: Odieresis
Encoding: 214 214 152
Width: 1024
GlyphClass: 2
Flags: W
LayerCount: 2
Fore
SplineSet
256.5 1416.5 m 128,-1,1
 224 1434 224 1434 205 1464.5 c 128,-1,2
 186 1495 186 1495 186 1530 c 256,3,4
 186 1565 186 1565 205 1596 c 128,-1,5
 224 1627 224 1627 256.5 1645 c 128,-1,6
 289 1663 289 1663 327 1663 c 0,7,8
 368 1663 368 1663 401 1644 c 128,-1,9
 434 1625 434 1625 452.5 1594.5 c 128,-1,10
 471 1564 471 1564 471 1530 c 0,11,12
 471 1495 471 1495 451.5 1464.5 c 128,-1,13
 432 1434 432 1434 398.5 1416.5 c 128,-1,14
 365 1399 365 1399 327 1399 c 256,15,0
 289 1399 289 1399 256.5 1416.5 c 128,-1,1
633 1416.5 m 128,-1,17
 601 1434 601 1434 582 1464 c 128,-1,18
 563 1494 563 1494 563 1530 c 256,19,20
 563 1566 563 1566 582 1596.5 c 128,-1,21
 601 1627 601 1627 633.5 1645 c 128,-1,22
 666 1663 666 1663 704 1663 c 0,23,24
 745 1663 745 1663 777.5 1644 c 128,-1,25
 810 1625 810 1625 827.5 1594 c 128,-1,26
 845 1563 845 1563 845 1530 c 0,27,28
 845 1495 845 1495 826 1464.5 c 128,-1,29
 807 1434 807 1434 774.5 1416.5 c 128,-1,30
 742 1399 742 1399 704 1399 c 0,31,16
 665 1399 665 1399 633 1416.5 c 128,-1,17
258.5 43.5 m 128,-1,33
 150 124 150 124 92.5 276.5 c 128,-1,34
 35 429 35 429 35 641 c 0,35,36
 35 850 35 850 92.5 1000 c 128,-1,37
 150 1150 150 1150 258.5 1229.5 c 128,-1,38
 367 1309 367 1309 518 1309 c 256,39,40
 669 1309 669 1309 777.5 1229.5 c 128,-1,41
 886 1150 886 1150 943.5 1000 c 128,-1,42
 1001 850 1001 850 1001 641 c 0,43,44
 1001 429 1001 429 943.5 276.5 c 128,-1,45
 886 124 886 124 777.5 43.5 c 128,-1,46
 669 -37 669 -37 518 -37 c 256,47,32
 367 -37 367 -37 258.5 43.5 c 128,-1,33
649.5 209.5 m 128,-1,49
 705 272 705 272 734.5 386.5 c 128,-1,50
 764 501 764 501 764 653 c 0,51,52
 764 794 764 794 734.5 900.5 c 128,-1,53
 705 1007 705 1007 649.5 1065.5 c 128,-1,54
 594 1124 594 1124 518 1124 c 0,55,56
 443 1124 443 1124 387 1065.5 c 128,-1,57
 331 1007 331 1007 301.5 900.5 c 128,-1,58
 272 794 272 794 272 653 c 0,59,60
 272 501 272 501 301.5 386.5 c 128,-1,61
 331 272 331 272 386.5 209.5 c 128,-1,62
 442 147 442 147 518 147 c 256,63,48
 594 147 594 147 649.5 209.5 c 128,-1,49
EndSplineSet
EndChar

StartChar: multiply
Encoding: 215 215 153
Width: 1024
GlyphClass: 2
Flags: W
LayerCount: 2
Fore
SplineSet
520 541 m 1,0,-1
 285 299 l 1,1,-1
 141 442 l 1,2,-1
 379 688 l 1,3,-1
 141 940 l 1,4,-1
 291 1085 l 1,5,-1
 524 840 l 1,6,-1
 758 1083 l 1,7,-1
 911 944 l 1,8,-1
 668 690 l 1,9,-1
 905 438 l 1,10,-1
 758 289 l 1,11,-1
 520 541 l 1,0,-1
EndSplineSet
EndChar

StartChar: Oslash
Encoding: 216 216 154
Width: 1024
GlyphClass: 2
Flags: W
LayerCount: 2
Fore
SplineSet
963 941 m 128,-1,1
 1001 810 1001 810 1001 641 c 0,2,3
 1001 429 1001 429 943.5 276.5 c 128,-1,4
 886 124 886 124 777.5 43.5 c 128,-1,5
 669 -37 669 -37 518 -37 c 0,6,7
 371 -37 371 -37 262 41 c 1,8,-1
 180 -115 l 1,9,-1
 66 -45 l 1,10,-1
 165 140 l 1,11,12
 102 228 102 228 68.5 355 c 128,-1,13
 35 482 35 482 35 641 c 0,14,15
 35 850 35 850 92.5 1000 c 128,-1,16
 150 1150 150 1150 258.5 1229.5 c 128,-1,17
 367 1309 367 1309 518 1309 c 0,18,19
 652 1309 652 1309 753 1246 c 1,20,-1
 834 1397 l 1,21,-1
 948 1339 l 1,22,-1
 853 1159 l 1,23,0
 925 1072 925 1072 963 941 c 128,-1,1
300 394 m 1,25,-1
 655 1060 l 1,26,27
 596 1124 596 1124 518 1124 c 0,28,29
 443 1124 443 1124 387 1065.5 c 128,-1,30
 331 1007 331 1007 301.5 900.5 c 128,-1,31
 272 794 272 794 272 653 c 0,32,24
 272 508 272 508 300 394 c 1,25,-1
649.5 209.5 m 128,-1,34
 705 272 705 272 734.5 386.5 c 128,-1,35
 764 501 764 501 764 653 c 0,36,37
 764 812 764 812 728 923 c 1,38,-1
 366 237 l 1,39,40
 428 147 428 147 518 147 c 0,41,33
 594 147 594 147 649.5 209.5 c 128,-1,34
EndSplineSet
EndChar

StartChar: Ugrave
Encoding: 217 217 155
Width: 1024
GlyphClass: 2
Flags: W
LayerCount: 2
Fore
SplineSet
301 1468 m 1,0,-1
 397 1645 l 1,1,-1
 710 1413 l 1,2,-1
 669 1339 l 1,3,-1
 301 1468 l 1,0,-1
187.5 97.5 m 128,-1,5
 76 224 76 224 76 451 c 2,6,-1
 76 1276 l 1,7,-1
 321 1276 l 1,8,-1
 321 1253 l 1,9,10
 310 1241 310 1241 307 1226.5 c 128,-1,11
 304 1212 304 1212 305 1178 c 2,12,-1
 305 449 l 2,13,14
 305 308 305 308 352 235 c 128,-1,15
 399 162 399 162 512 162 c 0,16,17
 628 162 628 162 675.5 236 c 128,-1,18
 723 310 723 310 723 455 c 2,19,-1
 723 1276 l 1,20,-1
 948 1276 l 1,21,-1
 948 457 l 2,22,23
 948 215 948 215 832 93 c 128,-1,24
 716 -29 716 -29 510 -29 c 0,25,4
 299 -29 299 -29 187.5 97.5 c 128,-1,5
EndSplineSet
EndChar

StartChar: Uacute
Encoding: 218 218 156
Width: 1024
GlyphClass: 2
Flags: W
LayerCount: 2
Fore
SplineSet
313 1413 m 1,0,-1
 627 1645 l 1,1,-1
 723 1468 l 1,2,-1
 354 1339 l 1,3,-1
 313 1413 l 1,0,-1
187.5 97.5 m 128,-1,5
 76 224 76 224 76 451 c 2,6,-1
 76 1276 l 1,7,-1
 321 1276 l 1,8,-1
 321 1253 l 1,9,10
 310 1241 310 1241 307 1226.5 c 128,-1,11
 304 1212 304 1212 305 1178 c 2,12,-1
 305 449 l 2,13,14
 305 308 305 308 352 235 c 128,-1,15
 399 162 399 162 512 162 c 0,16,17
 628 162 628 162 675.5 236 c 128,-1,18
 723 310 723 310 723 455 c 2,19,-1
 723 1276 l 1,20,-1
 948 1276 l 1,21,-1
 948 457 l 2,22,23
 948 215 948 215 832 93 c 128,-1,24
 716 -29 716 -29 510 -29 c 0,25,4
 299 -29 299 -29 187.5 97.5 c 128,-1,5
EndSplineSet
EndChar

StartChar: Ucircumflex
Encoding: 219 219 157
Width: 1024
GlyphClass: 2
Flags: W
LayerCount: 2
Fore
SplineSet
150 1417 m 1,0,-1
 479 1638 l 1,1,-1
 543 1638 l 1,2,-1
 866 1421 l 1,3,-1
 789 1329 l 1,4,-1
 512 1464 l 1,5,-1
 223 1329 l 1,6,-1
 150 1417 l 1,0,-1
187.5 97.5 m 128,-1,8
 76 224 76 224 76 451 c 2,9,-1
 76 1276 l 1,10,-1
 321 1276 l 1,11,-1
 321 1253 l 1,12,13
 310 1241 310 1241 307 1226.5 c 128,-1,14
 304 1212 304 1212 305 1178 c 2,15,-1
 305 449 l 2,16,17
 305 308 305 308 352 235 c 128,-1,18
 399 162 399 162 512 162 c 0,19,20
 628 162 628 162 675.5 236 c 128,-1,21
 723 310 723 310 723 455 c 2,22,-1
 723 1276 l 1,23,-1
 948 1276 l 1,24,-1
 948 457 l 2,25,26
 948 215 948 215 832 93 c 128,-1,27
 716 -29 716 -29 510 -29 c 0,28,7
 299 -29 299 -29 187.5 97.5 c 128,-1,8
EndSplineSet
EndChar

StartChar: Udieresis
Encoding: 220 220 158
Width: 1024
GlyphClass: 2
Flags: W
LayerCount: 2
Fore
SplineSet
252.5 1416.5 m 128,-1,1
 220 1434 220 1434 201 1464.5 c 128,-1,2
 182 1495 182 1495 182 1530 c 256,3,4
 182 1565 182 1565 201 1596 c 128,-1,5
 220 1627 220 1627 252.5 1645 c 128,-1,6
 285 1663 285 1663 323 1663 c 0,7,8
 364 1663 364 1663 397 1644 c 128,-1,9
 430 1625 430 1625 448.5 1594.5 c 128,-1,10
 467 1564 467 1564 467 1530 c 0,11,12
 467 1495 467 1495 447.5 1464.5 c 128,-1,13
 428 1434 428 1434 394.5 1416.5 c 128,-1,14
 361 1399 361 1399 323 1399 c 256,15,0
 285 1399 285 1399 252.5 1416.5 c 128,-1,1
629 1416.5 m 128,-1,17
 597 1434 597 1434 578 1464 c 128,-1,18
 559 1494 559 1494 559 1530 c 256,19,20
 559 1566 559 1566 578 1596.5 c 128,-1,21
 597 1627 597 1627 629.5 1645 c 128,-1,22
 662 1663 662 1663 700 1663 c 0,23,24
 741 1663 741 1663 773.5 1644 c 128,-1,25
 806 1625 806 1625 823.5 1594 c 128,-1,26
 841 1563 841 1563 841 1530 c 0,27,28
 841 1495 841 1495 822 1464.5 c 128,-1,29
 803 1434 803 1434 770.5 1416.5 c 128,-1,30
 738 1399 738 1399 700 1399 c 0,31,16
 661 1399 661 1399 629 1416.5 c 128,-1,17
187.5 97.5 m 128,-1,33
 76 224 76 224 76 451 c 2,34,-1
 76 1276 l 1,35,-1
 321 1276 l 1,36,-1
 321 1253 l 1,37,38
 310 1241 310 1241 307 1226.5 c 128,-1,39
 304 1212 304 1212 305 1178 c 2,40,-1
 305 449 l 2,41,42
 305 308 305 308 352 235 c 128,-1,43
 399 162 399 162 512 162 c 0,44,45
 628 162 628 162 675.5 236 c 128,-1,46
 723 310 723 310 723 455 c 2,47,-1
 723 1276 l 1,48,-1
 948 1276 l 1,49,-1
 948 457 l 2,50,51
 948 215 948 215 832 93 c 128,-1,52
 716 -29 716 -29 510 -29 c 0,53,32
 299 -29 299 -29 187.5 97.5 c 128,-1,33
EndSplineSet
EndChar

StartChar: Yacute
Encoding: 221 221 159
Width: 1024
GlyphClass: 2
Flags: W
LayerCount: 2
Fore
SplineSet
313 1413 m 1,0,-1
 627 1645 l 1,1,-1
 723 1468 l 1,2,-1
 354 1339 l 1,3,-1
 313 1413 l 1,0,-1
412 504 m 1,4,-1
 18 1276 l 1,5,-1
 274 1276 l 1,6,-1
 537 760 l 1,7,-1
 770 1276 l 1,8,-1
 1018 1276 l 1,9,-1
 653 502 l 1,10,-1
 653 0 l 1,11,-1
 412 0 l 1,12,-1
 412 504 l 1,4,-1
EndSplineSet
EndChar

StartChar: Thorn
Encoding: 222 222 160
Width: 1024
GlyphClass: 2
Flags: W
LayerCount: 2
Fore
SplineSet
102 1276 m 1,0,-1
 352 1276 l 1,1,2
 356 1272 356 1272 356 1266 c 0,3,4
 356 1262 356 1262 348.5 1246 c 128,-1,5
 341 1230 341 1230 338 1204 c 2,6,-1
 338 1057 l 1,7,-1
 535 1057 l 2,8,9
 681 1057 681 1057 777 1006 c 128,-1,10
 873 955 873 955 919 868.5 c 128,-1,11
 965 782 965 782 965 674 c 256,12,13
 965 566 965 566 920 481 c 128,-1,14
 875 396 875 396 781 346.5 c 128,-1,15
 687 297 687 297 545 297 c 2,16,-1
 336 297 l 1,17,-1
 336 0 l 1,18,-1
 102 0 l 1,19,-1
 102 1276 l 1,0,-1
528 492 m 2,20,21
 630 492 630 492 679.5 540 c 128,-1,22
 729 588 729 588 729 668 c 0,23,24
 729 718 729 718 707 760.5 c 128,-1,25
 685 803 685 803 640 828.5 c 128,-1,26
 595 854 595 854 530 854 c 2,27,-1
 338 854 l 1,28,-1
 336 492 l 1,29,-1
 528 492 l 2,20,21
EndSplineSet
EndChar

StartChar: germandbls
Encoding: 223 223 161
Width: 1024
GlyphClass: 2
Flags: W
LayerCount: 2
Fore
SplineSet
454 -15.5 m 128,-1,1
 402 0 402 0 342 33 c 1,2,-1
 457 213 l 1,3,4
 484 188 484 188 510.5 176 c 128,-1,5
 537 164 537 164 567 164 c 0,6,7
 607 164 607 164 640 190 c 128,-1,8
 673 216 673 216 692 264.5 c 128,-1,9
 711 313 711 313 711 377 c 0,10,11
 711 449 711 449 684.5 505.5 c 128,-1,12
 658 562 658 562 606 594.5 c 128,-1,13
 554 627 554 627 479 627 c 2,14,-1
 377 627 l 1,15,-1
 377 809 l 1,16,-1
 492 809 l 2,17,18
 569 809 569 809 616.5 858 c 128,-1,19
 664 907 664 907 664 997 c 256,20,21
 664 1087 664 1087 616.5 1142.5 c 128,-1,22
 569 1198 569 1198 483 1198 c 0,23,24
 299 1198 299 1198 299 920 c 2,25,-1
 299 0 l 1,26,-1
 78 0 l 1,27,-1
 78 895 l 2,28,29
 78 1139 78 1139 186.5 1260.5 c 128,-1,30
 295 1382 295 1382 483 1382 c 0,31,32
 602 1382 602 1382 686.5 1334 c 128,-1,33
 771 1286 771 1286 814.5 1208 c 128,-1,34
 858 1130 858 1130 858 1042 c 0,35,36
 858 948 858 948 808 864.5 c 128,-1,37
 758 781 758 781 664 739 c 1,38,39
 797 698 797 698 863.5 601.5 c 128,-1,40
 930 505 930 505 930 360 c 0,41,42
 930 246 930 246 888.5 157.5 c 128,-1,43
 847 69 847 69 766.5 19 c 128,-1,44
 686 -31 686 -31 573 -31 c 0,45,0
 506 -31 506 -31 454 -15.5 c 128,-1,1
EndSplineSet
EndChar

StartChar: ae
Encoding: 230 230 168
Width: 1024
GlyphClass: 2
Flags: W
LayerCount: 2
Fore
SplineSet
150 8.5 m 128,-1,1
 83 42 83 42 43.5 107.5 c 128,-1,2
 4 173 4 173 4 264 c 0,3,4
 4 361 4 361 55 436 c 128,-1,5
 106 511 106 511 199.5 554.5 c 128,-1,6
 293 598 293 598 418 602 c 1,7,8
 418 700 418 700 386.5 755.5 c 128,-1,9
 355 811 355 811 299 811 c 0,10,11
 216 811 216 811 147 698 c 1,12,-1
 35 842 l 1,13,14
 86 908 86 908 156 941.5 c 128,-1,15
 226 975 226 975 309 975 c 0,16,17
 369 975 369 975 432 940.5 c 128,-1,18
 495 906 495 906 530 858 c 1,19,20
 564 909 564 909 616 942 c 128,-1,21
 668 975 668 975 723 975 c 0,22,23
 869 975 869 975 940.5 864 c 128,-1,24
 1012 753 1012 753 1012 555 c 2,25,-1
 1012 455 l 1,26,-1
 606 438 l 1,27,-1
 606 365 l 2,28,29
 606 265 606 265 650 204 c 128,-1,30
 694 143 694 143 768 143 c 0,31,32
 850 143 850 143 911 248 c 1,33,-1
 1024 109 l 1,34,35
 970 44 970 44 902 9.5 c 128,-1,36
 834 -25 834 -25 758 -25 c 0,37,38
 689 -25 689 -25 628 8 c 128,-1,39
 567 41 567 41 524 100 c 1,40,41
 489 44 489 44 427 9.5 c 128,-1,42
 365 -25 365 -25 299 -25 c 0,43,0
 217 -25 217 -25 150 8.5 c 128,-1,1
848 614 m 1,44,45
 848 677 848 677 831.5 721.5 c 128,-1,46
 815 766 815 766 788 788.5 c 128,-1,47
 761 811 761 811 729 811 c 0,48,49
 692 811 692 811 664 783.5 c 128,-1,50
 636 756 636 756 621 709.5 c 128,-1,51
 606 663 606 663 606 608 c 1,52,-1
 848 614 l 1,44,45
382.5 175.5 m 128,-1,54
 408 201 408 201 416 258 c 128,-1,55
 424 315 424 315 424 430 c 1,56,57
 308 424 308 424 255.5 379.5 c 128,-1,58
 203 335 203 335 203 264 c 0,59,60
 203 208 203 208 231.5 179 c 128,-1,61
 260 150 260 150 303 150 c 0,62,53
 357 150 357 150 382.5 175.5 c 128,-1,54
EndSplineSet
EndChar

StartChar: ccedilla
Encoding: 231 231 169
Width: 1024
GlyphClass: 2
Flags: W
LayerCount: 2
Fore
SplineSet
688.5 194 m 128,-1,1
 751 224 751 224 805 291 c 1,2,-1
 938 137 l 1,3,4
 823 7 823 7 659 -24 c 1,5,-1
 653 -63 l 1,6,7
 730 -71 730 -71 771.5 -109.5 c 128,-1,8
 813 -148 813 -148 813 -209 c 0,9,10
 813 -260 813 -260 783.5 -308.5 c 128,-1,11
 754 -357 754 -357 694.5 -388.5 c 128,-1,12
 635 -420 635 -420 551 -420 c 0,13,14
 408 -420 408 -420 293 -305 c 1,15,-1
 369 -172 l 1,16,17
 427 -233 427 -233 474.5 -257 c 128,-1,18
 522 -281 522 -281 576 -281 c 0,19,20
 622 -281 622 -281 646 -266.5 c 128,-1,21
 670 -252 670 -252 670 -227 c 0,22,23
 670 -204 670 -204 648 -193 c 128,-1,24
 626 -182 626 -182 573 -182 c 2,25,-1
 473 -182 l 1,26,-1
 494 -29 l 1,27,28
 371 -14 371 -14 276.5 54 c 128,-1,29
 182 122 182 122 130 229.5 c 128,-1,30
 78 337 78 337 78 469 c 0,31,32
 78 611 78 611 139.5 727 c 128,-1,33
 201 843 201 843 311.5 910 c 128,-1,34
 422 977 422 977 563 977 c 0,35,36
 681 977 681 977 784 929 c 128,-1,37
 887 881 887 881 946 793 c 1,38,-1
 818 643 l 1,39,-1
 807 629 l 1,40,-1
 789 644 l 2,41,42
 788 649 788 649 787 663 c 128,-1,43
 786 677 786 677 779.5 690.5 c 128,-1,44
 773 704 773 704 758 718 c 0,45,46
 685 786 685 786 563 786 c 0,47,48
 493 786 493 786 435.5 746 c 128,-1,49
 378 706 378 706 344.5 633 c 128,-1,50
 311 560 311 560 311 465 c 0,51,52
 311 374 311 374 342.5 306 c 128,-1,53
 374 238 374 238 431 201 c 128,-1,54
 488 164 488 164 561 164 c 0,55,0
 626 164 626 164 688.5 194 c 128,-1,1
EndSplineSet
EndChar

StartChar: eth
Encoding: 240 240 178
Width: 1024
GlyphClass: 2
Flags: W
LayerCount: 2
Fore
SplineSet
294 31 m 128,-1,1
 192 95 192 95 134 207 c 128,-1,2
 76 319 76 319 76 457 c 0,3,4
 76 593 76 593 129.5 709.5 c 128,-1,5
 183 826 183 826 279 895.5 c 128,-1,6
 375 965 375 965 496 965 c 0,7,8
 546 965 546 965 601.5 944.5 c 128,-1,9
 657 924 657 924 694 889 c 1,10,11
 667 945 667 945 640 991 c 128,-1,12
 613 1037 613 1037 569 1087 c 1,13,-1
 315 1016 l 1,14,-1
 254 1178 l 1,15,-1
 424 1221 l 1,16,17
 340 1284 340 1284 227 1346 c 1,18,-1
 473 1401 l 1,19,20
 567 1340 567 1340 633 1282 c 1,21,-1
 868 1343 l 1,22,-1
 926 1190 l 1,23,-1
 762 1147 l 1,24,25
 963 882 963 882 963 514 c 0,26,27
 963 350 963 350 913 227 c 128,-1,28
 863 104 863 104 764 35.5 c 128,-1,29
 665 -33 665 -33 522 -33 c 0,30,0
 396 -33 396 -33 294 31 c 128,-1,1
632 195 m 128,-1,32
 677 230 677 230 703 301 c 128,-1,33
 729 372 729 372 729 475 c 256,34,35
 729 578 729 578 701 645 c 128,-1,36
 673 712 673 712 626.5 743 c 128,-1,37
 580 774 580 774 524 774 c 0,38,39
 464 774 464 774 416.5 739 c 128,-1,40
 369 704 369 704 342 636.5 c 128,-1,41
 315 569 315 569 315 475 c 0,42,43
 315 384 315 384 341 312.5 c 128,-1,44
 367 241 367 241 415.5 200.5 c 128,-1,45
 464 160 464 160 528 160 c 0,46,31
 587 160 587 160 632 195 c 128,-1,32
EndSplineSet
EndChar

StartChar: divide
Encoding: 247 247 185
Width: 1024
GlyphClass: 2
Flags: W
LayerCount: 2
Fore
SplineSet
457 841.5 m 128,-1,1
 427 858 427 858 409 886 c 128,-1,2
 391 914 391 914 391 946 c 0,3,4
 391 979 391 979 409.5 1008 c 128,-1,5
 428 1037 428 1037 458 1054 c 128,-1,6
 488 1071 488 1071 522 1071 c 0,7,8
 561 1071 561 1071 590.5 1051 c 128,-1,9
 620 1031 620 1031 636.5 1002 c 128,-1,10
 653 973 653 973 653 946 c 0,11,12
 653 914 653 914 635.5 886 c 128,-1,13
 618 858 618 858 587.5 841.5 c 128,-1,14
 557 825 557 825 522 825 c 256,15,0
 487 825 487 825 457 841.5 c 128,-1,1
127 762 m 1,16,-1
 899 762 l 1,17,-1
 899 559 l 1,18,-1
 127 559 l 1,19,-1
 127 762 l 1,16,-1
457 262 m 128,-1,21
 426 278 426 278 407.5 306 c 128,-1,22
 389 334 389 334 389 367 c 0,23,24
 389 402 389 402 408 430 c 128,-1,25
 427 458 427 458 457.5 473.5 c 128,-1,26
 488 489 488 489 522 489 c 0,27,28
 562 489 562 489 592 469.5 c 128,-1,29
 622 450 622 450 637.5 421.5 c 128,-1,30
 653 393 653 393 653 367 c 0,31,32
 653 316 653 316 614.5 281 c 128,-1,33
 576 246 576 246 522 246 c 0,34,20
 488 246 488 246 457 262 c 128,-1,21
EndSplineSet
EndChar

StartChar: oslash
Encoding: 248 248 186
Width: 1024
GlyphClass: 2
Flags: W
LayerCount: 2
Fore
SplineSet
115 -47 m 1,0,-1
 197 104 l 1,1,2
 131 172 131 172 95 265.5 c 128,-1,3
 59 359 59 359 59 469 c 0,4,5
 59 611 59 611 121.5 727.5 c 128,-1,6
 184 844 184 844 289.5 910.5 c 128,-1,7
 395 977 395 977 520 977 c 0,8,9
 588 977 588 977 657 956 c 1,10,-1
 721 1071 l 1,11,-1
 899 975 l 1,12,-1
 829 848 l 1,13,14
 894 782 894 782 929.5 687 c 128,-1,15
 965 592 965 592 965 473 c 0,16,17
 965 318 965 318 907.5 203.5 c 128,-1,18
 850 89 850 89 748 28 c 128,-1,19
 646 -33 646 -33 518 -33 c 0,20,21
 438 -33 438 -33 362 -4 c 1,22,-1
 291 -139 l 1,23,-1
 115 -47 l 1,0,-1
565 786 m 1,24,25
 543 793 543 793 514 793 c 0,26,27
 449 793 449 793 399.5 755 c 128,-1,28
 350 717 350 717 322.5 645.5 c 128,-1,29
 295 574 295 574 295 477 c 0,30,31
 295 388 295 388 315 324 c 1,32,-1
 565 786 l 1,24,25
678 236.5 m 128,-1,34
 737 319 737 319 737 469 c 0,35,36
 737 563 737 563 713 633 c 1,37,-1
 455 162 l 1,38,39
 482 154 482 154 518 154 c 0,40,33
 619 154 619 154 678 236.5 c 128,-1,34
EndSplineSet
EndChar

StartChar: thorn
Encoding: 254 254 192
Width: 1024
GlyphClass: 2
Flags: W
LayerCount: 2
Fore
SplineSet
102 1382 m 1,0,-1
 360 1382 l 1,1,2
 360 1371 360 1371 357 1362.5 c 128,-1,3
 354 1354 354 1354 347 1344 c 0,4,5
 340 1331 340 1331 336 1321 c 128,-1,6
 332 1311 332 1311 332 1294 c 2,7,-1
 332 868 l 1,8,9
 377 918 377 918 435.5 947.5 c 128,-1,10
 494 977 494 977 553 977 c 0,11,12
 663 977 663 977 755 922.5 c 128,-1,13
 847 868 847 868 901.5 760 c 128,-1,14
 956 652 956 652 956 498 c 0,15,16
 956 329 956 329 900.5 209.5 c 128,-1,17
 845 90 845 90 753.5 29.5 c 128,-1,18
 662 -31 662 -31 555 -31 c 0,19,20
 499 -31 499 -31 437 -6 c 128,-1,21
 375 19 375 19 334 63 c 1,22,-1
 334 -342 l 1,23,-1
 102 -342 l 1,24,-1
 102 1382 l 1,0,-1
614.5 191 m 128,-1,26
 662 222 662 222 693.5 291 c 128,-1,27
 725 360 725 360 725 467 c 0,28,29
 725 613 725 613 671 702 c 128,-1,30
 617 791 617 791 510 791 c 0,31,32
 408 791 408 791 369 709.5 c 128,-1,33
 330 628 330 628 330 489 c 0,34,35
 330 317 330 317 378 238.5 c 128,-1,36
 426 160 426 160 516 160 c 0,37,25
 567 160 567 160 614.5 191 c 128,-1,26
EndSplineSet
EndChar

StartChar: Abreve
Encoding: 258 258 197
Width: 1024
GlyphClass: 2
Flags: W
LayerCount: 2
Fore
SplineSet
824 1610 m 1,0,1
 774 1504 774 1504 694.5 1448 c 128,-1,2
 615 1392 615 1392 514 1392 c 256,3,4
 413 1392 413 1392 334 1448 c 128,-1,5
 255 1504 255 1504 205 1610 c 1,6,-1
 348 1675 l 1,7,8
 378 1596 378 1596 418.5 1560 c 128,-1,9
 459 1524 459 1524 514 1524 c 0,10,11
 570 1524 570 1524 609.5 1560 c 128,-1,12
 649 1596 649 1596 680 1675 c 1,13,-1
 824 1610 l 1,0,1
675 330 m 1,14,-1
 349 330 l 1,15,-1
 256 0 l 1,16,-1
 20 0 l 1,17,-1
 446 1276 l 1,18,-1
 580 1276 l 1,19,-1
 1006 0 l 1,20,-1
 766 0 l 1,21,-1
 675 330 l 1,14,-1
631 489 m 1,22,-1
 514 913 l 1,23,-1
 394 489 l 1,24,-1
 631 489 l 1,22,-1
EndSplineSet
EndChar

StartChar: Aogonek
Encoding: 260 260 199
Width: 1024
GlyphClass: 2
Flags: W
LayerCount: 2
Fore
SplineSet
923.5 -264 m 128,-1,1
 958 -292 958 -292 1026 -307 c 1,2,-1
 934 -487 l 1,3,4
 800 -453 800 -453 731.5 -392.5 c 128,-1,5
 663 -332 663 -332 663 -258 c 0,6,7
 663 -195 663 -195 711.5 -128 c 128,-1,8
 760 -61 760 -61 852 0 c 1,9,-1
 766 0 l 1,10,-1
 675 330 l 1,11,-1
 349 330 l 1,12,-1
 256 0 l 1,13,-1
 20 0 l 1,14,-1
 446 1276 l 1,15,-1
 580 1276 l 1,16,-1
 1000 19 l 1,17,-1
 1028 0 l 1,18,19
 889 -117 889 -117 889 -197 c 0,20,0
 889 -236 889 -236 923.5 -264 c 128,-1,1
631 489 m 1,21,-1
 514 913 l 1,22,-1
 394 489 l 1,23,-1
 631 489 l 1,21,-1
EndSplineSet
EndChar

StartChar: aogonek
Encoding: 261 261 200
Width: 1024
GlyphClass: 2
Flags: W
LayerCount: 2
Fore
SplineSet
847 -54 m 2,0,1
 782 -115 782 -115 763.5 -136 c 128,-1,2
 745 -157 745 -157 745 -176 c 0,3,4
 745 -191 745 -191 753 -200 c 128,-1,5
 761 -209 761 -209 776 -209 c 0,6,7
 800 -209 800 -209 825 -193.5 c 128,-1,8
 850 -178 850 -178 905 -129 c 1,9,-1
 905 -307 l 1,10,11
 863 -340 863 -340 820.5 -356.5 c 128,-1,12
 778 -373 778 -373 731 -373 c 0,13,14
 638 -373 638 -373 590.5 -332.5 c 128,-1,15
 543 -292 543 -292 543 -223 c 0,16,17
 543 -172 543 -172 573 -123.5 c 128,-1,18
 603 -75 603 -75 686 0 c 1,19,-1
 686 86 l 1,20,21
 631 34 631 34 553.5 4.5 c 128,-1,22
 476 -25 476 -25 387 -25 c 0,23,24
 238 -25 238 -25 160 48.5 c 128,-1,25
 82 122 82 122 82 248 c 0,26,27
 82 350 82 350 146.5 422 c 128,-1,28
 211 494 211 494 332.5 531.5 c 128,-1,29
 454 569 454 569 623 569 c 2,30,-1
 693 569 l 1,31,32
 683 694 683 694 632 747.5 c 128,-1,33
 581 801 581 801 477 801 c 0,34,35
 411 801 411 801 340 766.5 c 128,-1,36
 269 732 269 732 209 670 c 1,37,-1
 92 821 l 1,38,39
 182 903 182 903 285.5 945 c 128,-1,40
 389 987 389 987 489 987 c 0,41,42
 678 987 678 987 791.5 893 c 128,-1,43
 905 799 905 799 905 582 c 2,44,-1
 905 0 l 1,45,-1
 847 -54 l 2,0,1
622 214 m 128,-1,47
 681 278 681 278 693 416 c 1,48,-1
 647 416 l 2,49,50
 471 416 471 416 390 378 c 128,-1,51
 309 340 309 340 309 258 c 0,52,53
 309 202 309 202 349.5 176 c 128,-1,54
 390 150 390 150 461 150 c 0,55,46
 563 150 563 150 622 214 c 128,-1,47
EndSplineSet
EndChar

StartChar: Cacute
Encoding: 262 262 201
Width: 1024
GlyphClass: 2
Flags: W
LayerCount: 2
Fore
SplineSet
354 1413 m 1,0,-1
 668 1645 l 1,1,-1
 764 1468 l 1,2,-1
 395 1339 l 1,3,-1
 354 1413 l 1,0,-1
305 37 m 128,-1,5
 191 111 191 111 125 261.5 c 128,-1,6
 59 412 59 412 59 631 c 0,7,8
 59 868 59 868 135.5 1020 c 128,-1,9
 212 1172 212 1172 330.5 1240.5 c 128,-1,10
 449 1309 449 1309 582 1309 c 0,11,12
 727 1309 727 1309 833 1232 c 128,-1,13
 939 1155 939 1155 997 1018 c 1,14,-1
 831 937 l 1,15,-1
 815 929 l 1,16,-1
 805 950 l 1,17,18
 808 959 808 959 808 969 c 0,19,20
 808 990 808 990 784 1026 c 0,21,22
 715 1124 715 1124 588 1124 c 0,23,24
 440 1124 440 1124 368.5 996 c 128,-1,25
 297 868 297 868 297 641 c 0,26,27
 297 502 297 502 332.5 389.5 c 128,-1,28
 368 277 368 277 432.5 212 c 128,-1,29
 497 147 497 147 578 147 c 0,30,31
 708 147 708 147 809 326 c 1,32,-1
 983 213 l 1,33,34
 911 90 911 90 805 26.5 c 128,-1,35
 699 -37 699 -37 563 -37 c 0,36,4
 419 -37 419 -37 305 37 c 128,-1,5
EndSplineSet
EndChar

StartChar: Ccircumflex
Encoding: 264 264 203
Width: 1024
GlyphClass: 2
Flags: W
LayerCount: 2
Fore
SplineSet
191 1417 m 1,0,-1
 520 1638 l 1,1,-1
 584 1638 l 1,2,-1
 907 1421 l 1,3,-1
 830 1329 l 1,4,-1
 553 1464 l 1,5,-1
 264 1329 l 1,6,-1
 191 1417 l 1,0,-1
305 37 m 128,-1,8
 191 111 191 111 125 261.5 c 128,-1,9
 59 412 59 412 59 631 c 0,10,11
 59 868 59 868 135.5 1020 c 128,-1,12
 212 1172 212 1172 330.5 1240.5 c 128,-1,13
 449 1309 449 1309 582 1309 c 0,14,15
 727 1309 727 1309 833 1232 c 128,-1,16
 939 1155 939 1155 997 1018 c 1,17,-1
 831 937 l 1,18,-1
 815 929 l 1,19,-1
 805 950 l 1,20,21
 808 959 808 959 808 969 c 0,22,23
 808 990 808 990 784 1026 c 0,24,25
 715 1124 715 1124 588 1124 c 0,26,27
 440 1124 440 1124 368.5 996 c 128,-1,28
 297 868 297 868 297 641 c 0,29,30
 297 502 297 502 332.5 389.5 c 128,-1,31
 368 277 368 277 432.5 212 c 128,-1,32
 497 147 497 147 578 147 c 0,33,34
 708 147 708 147 809 326 c 1,35,-1
 983 213 l 1,36,37
 911 90 911 90 805 26.5 c 128,-1,38
 699 -37 699 -37 563 -37 c 0,39,7
 419 -37 419 -37 305 37 c 128,-1,8
EndSplineSet
EndChar

StartChar: Cdotaccent
Encoding: 266 266 205
Width: 1024
GlyphClass: 2
Flags: W
LayerCount: 2
Fore
SplineSet
481 1419 m 128,-1,1
 448 1437 448 1437 428 1467.5 c 128,-1,2
 408 1498 408 1498 408 1534 c 0,3,4
 408 1567 408 1567 426 1598 c 128,-1,5
 444 1629 444 1629 476.5 1648 c 128,-1,6
 509 1667 509 1667 551 1667 c 0,7,8
 590 1667 590 1667 623.5 1649 c 128,-1,9
 657 1631 657 1631 677 1600.5 c 128,-1,10
 697 1570 697 1570 697 1534 c 256,11,12
 697 1498 697 1498 677 1467.5 c 128,-1,13
 657 1437 657 1437 623.5 1419 c 128,-1,14
 590 1401 590 1401 551 1401 c 0,15,0
 514 1401 514 1401 481 1419 c 128,-1,1
305 37 m 128,-1,17
 191 111 191 111 125 261.5 c 128,-1,18
 59 412 59 412 59 631 c 0,19,20
 59 868 59 868 135.5 1020 c 128,-1,21
 212 1172 212 1172 330.5 1240.5 c 128,-1,22
 449 1309 449 1309 582 1309 c 0,23,24
 727 1309 727 1309 833 1232 c 128,-1,25
 939 1155 939 1155 997 1018 c 1,26,-1
 831 937 l 1,27,-1
 815 929 l 1,28,-1
 805 950 l 1,29,30
 808 959 808 959 808 969 c 0,31,32
 808 990 808 990 784 1026 c 0,33,34
 715 1124 715 1124 588 1124 c 0,35,36
 440 1124 440 1124 368.5 996 c 128,-1,37
 297 868 297 868 297 641 c 0,38,39
 297 502 297 502 332.5 389.5 c 128,-1,40
 368 277 368 277 432.5 212 c 128,-1,41
 497 147 497 147 578 147 c 0,42,43
 708 147 708 147 809 326 c 1,44,-1
 983 213 l 1,45,46
 911 90 911 90 805 26.5 c 128,-1,47
 699 -37 699 -37 563 -37 c 0,48,16
 419 -37 419 -37 305 37 c 128,-1,17
EndSplineSet
EndChar

StartChar: Ccaron
Encoding: 268 268 207
Width: 1024
GlyphClass: 2
Flags: W
LayerCount: 2
Fore
SplineSet
260 1607 m 1,0,-1
 337 1699 l 1,1,-1
 552 1564 l 1,2,-1
 784 1693 l 1,3,-1
 853 1611 l 1,4,-1
 581 1390 l 1,5,-1
 518 1390 l 1,6,-1
 260 1607 l 1,0,-1
305 37 m 128,-1,8
 191 111 191 111 125 261.5 c 128,-1,9
 59 412 59 412 59 631 c 0,10,11
 59 868 59 868 135.5 1020 c 128,-1,12
 212 1172 212 1172 330.5 1240.5 c 128,-1,13
 449 1309 449 1309 582 1309 c 0,14,15
 727 1309 727 1309 833 1232 c 128,-1,16
 939 1155 939 1155 997 1018 c 1,17,-1
 831 937 l 1,18,-1
 815 929 l 1,19,-1
 805 950 l 1,20,21
 808 959 808 959 808 969 c 0,22,23
 808 990 808 990 784 1026 c 0,24,25
 715 1124 715 1124 588 1124 c 0,26,27
 440 1124 440 1124 368.5 996 c 128,-1,28
 297 868 297 868 297 641 c 0,29,30
 297 502 297 502 332.5 389.5 c 128,-1,31
 368 277 368 277 432.5 212 c 128,-1,32
 497 147 497 147 578 147 c 0,33,34
 708 147 708 147 809 326 c 1,35,-1
 983 213 l 1,36,37
 911 90 911 90 805 26.5 c 128,-1,38
 699 -37 699 -37 563 -37 c 0,39,7
 419 -37 419 -37 305 37 c 128,-1,8
EndSplineSet
EndChar

StartChar: Dcaron
Encoding: 270 270 209
Width: 1024
GlyphClass: 2
Flags: W
LayerCount: 2
Fore
SplineSet
158 1607 m 1,0,-1
 235 1699 l 1,1,-1
 450 1564 l 1,2,-1
 682 1693 l 1,3,-1
 751 1611 l 1,4,-1
 479 1390 l 1,5,-1
 416 1390 l 1,6,-1
 158 1607 l 1,0,-1
90 1276 m 1,7,-1
 420 1276 l 2,8,9
 583 1276 583 1276 679.5 1232.5 c 128,-1,10
 776 1189 776 1189 844 1098 c 0,11,12
 975 920 975 920 975 629 c 0,13,14
 975 327 975 327 834.5 163.5 c 128,-1,15
 694 0 694 0 395 0 c 2,16,-1
 90 0 l 1,17,-1
 90 1276 l 1,7,-1
391 180 m 2,18,19
 570 180 570 180 657.5 293 c 128,-1,20
 745 406 745 406 745 623 c 0,21,22
 745 1085 745 1085 412 1085 c 2,23,-1
 313 1085 l 1,24,-1
 313 180 l 1,25,-1
 391 180 l 2,18,19
EndSplineSet
EndChar

StartChar: dcaron
Encoding: 271 271 210
Width: 1024
GlyphClass: 2
Flags: W
LayerCount: 2
Fore
SplineSet
998 1356.5 m 128,-1,1
 1024 1329 1024 1329 1024 1288 c 0,2,3
 1024 1262 1024 1262 1012 1233 c 2,4,-1
 883 938 l 1,5,-1
 786 989 l 1,6,-1
 811 1063 l 2,7,8
 823 1098 823 1098 823 1129 c 0,9,10
 823 1146 823 1146 817 1182 c 0,11,12
 809 1224 809 1224 809 1253 c 0,13,14
 809 1314 809 1314 842 1349 c 128,-1,15
 875 1384 875 1384 926 1384 c 0,16,0
 972 1384 972 1384 998 1356.5 c 128,-1,1
181 24.5 m 128,-1,18
 107 80 107 80 63.5 191.5 c 128,-1,19
 20 303 20 303 20 463 c 0,20,21
 20 619 20 619 64.5 735.5 c 128,-1,22
 109 852 109 852 183.5 914.5 c 128,-1,23
 258 977 258 977 344 977 c 0,24,25
 397 977 397 977 443 951.5 c 128,-1,26
 489 926 489 926 524 881 c 1,27,-1
 524 1382 l 1,28,-1
 741 1382 l 1,29,30
 741 1370 741 1370 732 1348 c 0,31,32
 725 1330 725 1330 721 1313.5 c 128,-1,33
 717 1297 717 1297 717 1272 c 2,34,-1
 713 115 l 2,35,36
 713 74 713 74 731 0 c 1,37,-1
 555 0 l 1,38,39
 544 8 544 8 539.5 25 c 128,-1,40
 535 42 535 42 535 59 c 2,41,-1
 535 88 l 1,42,43
 509 32 509 32 458.5 0.5 c 128,-1,44
 408 -31 408 -31 346 -31 c 0,45,17
 255 -31 255 -31 181 24.5 c 128,-1,18
526 489 m 0,47,48
 526 627 526 627 495 709 c 128,-1,49
 464 791 464 791 385 791 c 0,50,51
 300 791 300 791 255.5 705.5 c 128,-1,52
 211 620 211 620 211 467 c 0,53,54
 211 359 211 359 236 290.5 c 128,-1,55
 261 222 261 222 299 191 c 128,-1,56
 337 160 337 160 379 160 c 0,57,46
 526 160 526 160 526 489 c 0,47,48
EndSplineSet
EndChar

StartChar: dcroat
Encoding: 273 273 212
Width: 1024
GlyphClass: 2
Flags: W
LayerCount: 2
Fore
SplineSet
921 1082 m 1,0,-1
 918 115 l 2,1,2
 918 80 918 80 922 53.5 c 128,-1,3
 926 27 926 27 940 0 c 1,4,-1
 717 0 l 1,5,6
 703 26 703 26 700.5 49 c 128,-1,7
 698 72 698 72 698 115 c 1,8,9
 668 43 668 43 603 6 c 128,-1,10
 538 -31 538 -31 469 -31 c 0,11,12
 355 -31 355 -31 262 24.5 c 128,-1,13
 169 80 169 80 115 191.5 c 128,-1,14
 61 303 61 303 61 463 c 0,15,16
 61 619 61 619 116.5 736 c 128,-1,17
 172 853 172 853 265 915 c 128,-1,18
 358 977 358 977 467 977 c 0,19,20
 523 977 523 977 585 950 c 128,-1,21
 647 923 647 923 688 881 c 1,22,-1
 688 1082 l 1,23,-1
 458 1082 l 1,24,-1
 458 1227 l 1,25,-1
 688 1227 l 1,26,-1
 688 1382 l 1,27,-1
 938 1382 l 1,28,-1
 938 1359 l 1,29,30
 927 1347 927 1347 924 1332.5 c 128,-1,31
 921 1318 921 1318 922 1284 c 2,32,-1
 922 1227 l 1,33,-1
 1022 1227 l 1,34,-1
 1022 1082 l 1,35,-1
 921 1082 l 1,0,-1
690 489 m 0,37,38
 690 627 690 627 650 709 c 128,-1,39
 610 791 610 791 508 791 c 0,40,41
 400 791 400 791 346.5 701 c 128,-1,42
 293 611 293 611 293 467 c 0,43,44
 293 360 293 360 324.5 291 c 128,-1,45
 356 222 356 222 403.5 191 c 128,-1,46
 451 160 451 160 502 160 c 0,47,36
 690 160 690 160 690 489 c 0,37,38
EndSplineSet
EndChar

StartChar: Ebreve
Encoding: 276 276 215
Width: 1024
GlyphClass: 2
Flags: W
LayerCount: 2
Fore
SplineSet
863 1610 m 1,0,1
 813 1504 813 1504 733.5 1448 c 128,-1,2
 654 1392 654 1392 553 1392 c 256,3,4
 452 1392 452 1392 373 1448 c 128,-1,5
 294 1504 294 1504 244 1610 c 1,6,-1
 387 1675 l 1,7,8
 417 1596 417 1596 457.5 1560 c 128,-1,9
 498 1524 498 1524 553 1524 c 0,10,11
 609 1524 609 1524 648.5 1560 c 128,-1,12
 688 1596 688 1596 719 1675 c 1,13,-1
 863 1610 l 1,0,1
115 1276 m 1,14,-1
 946 1276 l 1,15,-1
 946 1079 l 1,16,-1
 338 1079 l 1,17,-1
 338 764 l 1,18,-1
 842 764 l 1,19,-1
 842 563 l 1,20,-1
 338 563 l 1,21,-1
 338 197 l 1,22,-1
 942 197 l 1,23,-1
 942 0 l 1,24,-1
 115 0 l 1,25,-1
 115 1276 l 1,14,-1
EndSplineSet
EndChar

StartChar: Edotaccent
Encoding: 278 278 217
Width: 1024
GlyphClass: 2
Flags: W
LayerCount: 2
Fore
SplineSet
481 1419 m 128,-1,1
 448 1437 448 1437 428 1467.5 c 128,-1,2
 408 1498 408 1498 408 1534 c 0,3,4
 408 1567 408 1567 426 1598 c 128,-1,5
 444 1629 444 1629 476.5 1648 c 128,-1,6
 509 1667 509 1667 551 1667 c 0,7,8
 590 1667 590 1667 623.5 1649 c 128,-1,9
 657 1631 657 1631 677 1600.5 c 128,-1,10
 697 1570 697 1570 697 1534 c 256,11,12
 697 1498 697 1498 677 1467.5 c 128,-1,13
 657 1437 657 1437 623.5 1419 c 128,-1,14
 590 1401 590 1401 551 1401 c 0,15,0
 514 1401 514 1401 481 1419 c 128,-1,1
115 1276 m 1,16,-1
 946 1276 l 1,17,-1
 946 1079 l 1,18,-1
 338 1079 l 1,19,-1
 338 764 l 1,20,-1
 842 764 l 1,21,-1
 842 563 l 1,22,-1
 338 563 l 1,23,-1
 338 197 l 1,24,-1
 942 197 l 1,25,-1
 942 0 l 1,26,-1
 115 0 l 1,27,-1
 115 1276 l 1,16,-1
EndSplineSet
EndChar

StartChar: eogonek
Encoding: 281 281 220
Width: 1024
GlyphClass: 2
Flags: W
LayerCount: 2
Fore
SplineSet
932 442 m 2,1,-1
 930 414 l 1,2,-1
 303 414 l 1,3,4
 318 283 318 283 385 216.5 c 128,-1,5
 452 150 452 150 545 150 c 0,6,7
 611 150 611 150 678 180.5 c 128,-1,8
 745 211 745 211 788 266 c 1,9,-1
 915 139 l 1,10,11
 833 42 833 42 729 0 c 1,12,-1
 905 0 l 1,13,-1
 847 -54 l 2,14,15
 782 -115 782 -115 763.5 -136 c 128,-1,16
 745 -157 745 -157 745 -176 c 0,17,18
 745 -191 745 -191 753 -200 c 128,-1,19
 761 -209 761 -209 776 -209 c 0,20,21
 800 -209 800 -209 825 -193.5 c 128,-1,22
 850 -178 850 -178 905 -129 c 1,23,-1
 905 -307 l 1,24,25
 863 -340 863 -340 820.5 -356.5 c 128,-1,26
 778 -373 778 -373 731 -373 c 0,27,28
 638 -373 638 -373 590.5 -332.5 c 128,-1,29
 543 -292 543 -292 543 -223 c 0,30,31
 543 -175 543 -175 568.5 -130.5 c 128,-1,32
 594 -86 594 -86 663 -21 c 1,33,34
 611 -33 611 -33 553 -33 c 0,35,36
 415 -33 415 -33 307 27 c 128,-1,37
 199 87 199 87 137.5 199.5 c 128,-1,38
 76 312 76 312 76 465 c 0,39,40
 76 620 76 620 134 736 c 128,-1,41
 192 852 192 852 295 914.5 c 128,-1,42
 398 977 398 977 528 977 c 0,43,44
 643 977 643 977 735.5 923.5 c 128,-1,45
 828 870 828 870 882 764.5 c 128,-1,46
 936 659 936 659 936 510 c 0,47,0
 936 486 936 486 932 442 c 2,1,-1
707 582 m 1,48,49
 707 642 707 642 683.5 693 c 128,-1,50
 660 744 660 744 616.5 774.5 c 128,-1,51
 573 805 573 805 516 805 c 0,52,53
 432 805 432 805 377 744.5 c 128,-1,54
 322 684 322 684 311 582 c 1,55,-1
 707 582 l 1,48,49
EndSplineSet
EndChar

StartChar: Ecaron
Encoding: 282 282 221
Width: 1024
GlyphClass: 2
Flags: W
LayerCount: 2
Fore
SplineSet
260 1607 m 1,0,-1
 337 1699 l 1,1,-1
 552 1564 l 1,2,-1
 784 1693 l 1,3,-1
 853 1611 l 1,4,-1
 581 1390 l 1,5,-1
 518 1390 l 1,6,-1
 260 1607 l 1,0,-1
115 1276 m 1,7,-1
 946 1276 l 1,8,-1
 946 1079 l 1,9,-1
 338 1079 l 1,10,-1
 338 764 l 1,11,-1
 842 764 l 1,12,-1
 842 563 l 1,13,-1
 338 563 l 1,14,-1
 338 197 l 1,15,-1
 942 197 l 1,16,-1
 942 0 l 1,17,-1
 115 0 l 1,18,-1
 115 1276 l 1,7,-1
EndSplineSet
EndChar

StartChar: Gcircumflex
Encoding: 284 284 223
Width: 1024
GlyphClass: 2
Flags: W
LayerCount: 2
Fore
SplineSet
185 1417 m 1,0,-1
 514 1638 l 1,1,-1
 578 1638 l 1,2,-1
 901 1421 l 1,3,-1
 824 1329 l 1,4,-1
 547 1464 l 1,5,-1
 258 1329 l 1,6,-1
 185 1417 l 1,0,-1
272 48 m 128,-1,8
 155 133 155 133 94 285.5 c 128,-1,9
 33 438 33 438 33 639 c 0,10,11
 33 887 33 887 118 1037 c 128,-1,12
 203 1187 203 1187 321.5 1248 c 128,-1,13
 440 1309 440 1309 553 1309 c 0,14,15
 681 1309 681 1309 787 1241.5 c 128,-1,16
 893 1174 893 1174 956 1059 c 1,17,-1
 802 910 l 1,18,-1
 790 898 l 1,19,-1
 774 914 l 2,20,21
 774 917 774 917 773 930.5 c 128,-1,22
 772 944 772 944 766 959 c 128,-1,23
 760 974 760 974 749 991 c 0,24,25
 714 1046 714 1046 668 1080 c 128,-1,26
 622 1114 622 1114 549 1114 c 0,27,28
 475 1114 475 1114 412 1067 c 128,-1,29
 349 1020 349 1020 309.5 916.5 c 128,-1,30
 270 813 270 813 270 653 c 0,31,32
 270 502 270 502 306 389.5 c 128,-1,33
 342 277 342 277 406.5 217.5 c 128,-1,34
 471 158 471 158 553 158 c 0,35,36
 666 158 666 158 735 211 c 1,37,-1
 735 451 l 1,38,-1
 518 451 l 1,39,-1
 518 645 l 1,40,-1
 952 645 l 1,41,-1
 952 109 l 1,42,43
 861 33 861 33 764 -2 c 128,-1,44
 667 -37 667 -37 553 -37 c 0,45,7
 389 -37 389 -37 272 48 c 128,-1,8
EndSplineSet
EndChar

StartChar: Gbreve
Encoding: 286 286 225
Width: 1024
GlyphClass: 2
Flags: W
LayerCount: 2
Fore
SplineSet
857 1610 m 1,0,1
 807 1504 807 1504 727.5 1448 c 128,-1,2
 648 1392 648 1392 547 1392 c 256,3,4
 446 1392 446 1392 367 1448 c 128,-1,5
 288 1504 288 1504 238 1610 c 1,6,-1
 381 1675 l 1,7,8
 411 1596 411 1596 451.5 1560 c 128,-1,9
 492 1524 492 1524 547 1524 c 0,10,11
 603 1524 603 1524 642.5 1560 c 128,-1,12
 682 1596 682 1596 713 1675 c 1,13,-1
 857 1610 l 1,0,1
272 48 m 128,-1,15
 155 133 155 133 94 285.5 c 128,-1,16
 33 438 33 438 33 639 c 0,17,18
 33 887 33 887 118 1037 c 128,-1,19
 203 1187 203 1187 321.5 1248 c 128,-1,20
 440 1309 440 1309 553 1309 c 0,21,22
 681 1309 681 1309 787 1241.5 c 128,-1,23
 893 1174 893 1174 956 1059 c 1,24,-1
 802 910 l 1,25,-1
 790 898 l 1,26,-1
 774 914 l 2,27,28
 774 917 774 917 773 930.5 c 128,-1,29
 772 944 772 944 766 959 c 128,-1,30
 760 974 760 974 749 991 c 0,31,32
 714 1046 714 1046 668 1080 c 128,-1,33
 622 1114 622 1114 549 1114 c 0,34,35
 475 1114 475 1114 412 1067 c 128,-1,36
 349 1020 349 1020 309.5 916.5 c 128,-1,37
 270 813 270 813 270 653 c 0,38,39
 270 502 270 502 306 389.5 c 128,-1,40
 342 277 342 277 406.5 217.5 c 128,-1,41
 471 158 471 158 553 158 c 0,42,43
 666 158 666 158 735 211 c 1,44,-1
 735 451 l 1,45,-1
 518 451 l 1,46,-1
 518 645 l 1,47,-1
 952 645 l 1,48,-1
 952 109 l 1,49,50
 861 33 861 33 764 -2 c 128,-1,51
 667 -37 667 -37 553 -37 c 0,52,14
 389 -37 389 -37 272 48 c 128,-1,15
EndSplineSet
EndChar

StartChar: Gdotaccent
Encoding: 288 288 227
Width: 1024
GlyphClass: 2
Flags: W
LayerCount: 2
Fore
SplineSet
475 1419 m 128,-1,1
 442 1437 442 1437 422 1467.5 c 128,-1,2
 402 1498 402 1498 402 1534 c 0,3,4
 402 1567 402 1567 420 1598 c 128,-1,5
 438 1629 438 1629 470.5 1648 c 128,-1,6
 503 1667 503 1667 545 1667 c 0,7,8
 584 1667 584 1667 617.5 1649 c 128,-1,9
 651 1631 651 1631 671 1600.5 c 128,-1,10
 691 1570 691 1570 691 1534 c 256,11,12
 691 1498 691 1498 671 1467.5 c 128,-1,13
 651 1437 651 1437 617.5 1419 c 128,-1,14
 584 1401 584 1401 545 1401 c 0,15,0
 508 1401 508 1401 475 1419 c 128,-1,1
272 48 m 128,-1,17
 155 133 155 133 94 285.5 c 128,-1,18
 33 438 33 438 33 639 c 0,19,20
 33 887 33 887 118 1037 c 128,-1,21
 203 1187 203 1187 321.5 1248 c 128,-1,22
 440 1309 440 1309 553 1309 c 0,23,24
 681 1309 681 1309 787 1241.5 c 128,-1,25
 893 1174 893 1174 956 1059 c 1,26,-1
 802 910 l 1,27,-1
 790 898 l 1,28,-1
 774 914 l 2,29,30
 774 917 774 917 773 930.5 c 128,-1,31
 772 944 772 944 766 959 c 128,-1,32
 760 974 760 974 749 991 c 0,33,34
 714 1046 714 1046 668 1080 c 128,-1,35
 622 1114 622 1114 549 1114 c 0,36,37
 475 1114 475 1114 412 1067 c 128,-1,38
 349 1020 349 1020 309.5 916.5 c 128,-1,39
 270 813 270 813 270 653 c 0,40,41
 270 502 270 502 306 389.5 c 128,-1,42
 342 277 342 277 406.5 217.5 c 128,-1,43
 471 158 471 158 553 158 c 0,44,45
 666 158 666 158 735 211 c 1,46,-1
 735 451 l 1,47,-1
 518 451 l 1,48,-1
 518 645 l 1,49,-1
 952 645 l 1,50,-1
 952 109 l 1,51,52
 861 33 861 33 764 -2 c 128,-1,53
 667 -37 667 -37 553 -37 c 0,54,16
 389 -37 389 -37 272 48 c 128,-1,17
EndSplineSet
EndChar

StartChar: Hcircumflex
Encoding: 292 292 231
Width: 1024
GlyphClass: 2
Flags: W
LayerCount: 2
Fore
SplineSet
150 1417 m 1,0,-1
 479 1638 l 1,1,-1
 543 1638 l 1,2,-1
 866 1421 l 1,3,-1
 789 1329 l 1,4,-1
 512 1464 l 1,5,-1
 223 1329 l 1,6,-1
 150 1417 l 1,0,-1
88 1276 m 1,7,-1
 340 1276 l 1,8,-1
 340 1253 l 1,9,10
 329 1241 329 1241 326 1226.5 c 128,-1,11
 323 1212 323 1212 324 1178 c 2,12,-1
 324 758 l 1,13,-1
 700 758 l 1,14,-1
 700 1276 l 1,15,-1
 952 1276 l 1,16,-1
 952 1253 l 1,17,18
 941 1241 941 1241 938 1226.5 c 128,-1,19
 935 1212 935 1212 936 1178 c 2,20,-1
 936 0 l 1,21,-1
 700 0 l 1,22,-1
 700 567 l 1,23,-1
 324 567 l 1,24,-1
 324 0 l 1,25,-1
 88 0 l 1,26,-1
 88 1276 l 1,7,-1
EndSplineSet
EndChar

StartChar: hcircumflex
Encoding: 293 293 232
Width: 1024
GlyphClass: 2
Flags: W
LayerCount: 2
Fore
SplineSet
-120 1523 m 1,0,-1
 209 1744 l 1,1,-1
 273 1744 l 1,2,-1
 596 1527 l 1,3,-1
 519 1435 l 1,4,-1
 242 1570 l 1,5,-1
 -47 1435 l 1,6,-1
 -120 1523 l 1,0,-1
123 1382 m 1,7,-1
 370 1382 l 1,8,-1
 370 1359 l 1,9,10
 359 1347 359 1347 356 1332.5 c 128,-1,11
 353 1318 353 1318 354 1284 c 2,12,-1
 354 858 l 1,13,14
 404 913 404 913 470.5 945 c 128,-1,15
 537 977 537 977 604 977 c 0,16,17
 758 977 758 977 843 881.5 c 128,-1,18
 928 786 928 786 928 580 c 2,19,-1
 928 0 l 1,20,-1
 696 0 l 1,21,-1
 696 578 l 2,22,23
 696 684 696 684 659.5 736 c 128,-1,24
 623 788 623 788 559 788 c 0,25,26
 502 788 502 788 455 758 c 128,-1,27
 408 728 408 728 381 674.5 c 128,-1,28
 354 621 354 621 354 553 c 2,29,-1
 354 0 l 1,30,-1
 123 0 l 1,31,-1
 123 1382 l 1,7,-1
EndSplineSet
EndChar

StartChar: Hbar
Encoding: 294 294 233
Width: 1024
GlyphClass: 2
Flags: W
LayerCount: 2
Fore
SplineSet
952 1253 m 1,0,1
 941 1241 941 1241 938 1226.5 c 128,-1,2
 935 1212 935 1212 936 1178 c 2,3,-1
 936 0 l 1,4,-1
 700 0 l 1,5,-1
 700 545 l 1,6,-1
 324 545 l 1,7,-1
 324 0 l 1,8,-1
 88 0 l 1,9,-1
 88 1276 l 1,10,-1
 340 1276 l 1,11,-1
 340 1253 l 1,12,13
 329 1241 329 1241 326 1226.5 c 128,-1,14
 323 1212 323 1212 324 1178 c 2,15,-1
 324 758 l 1,16,-1
 700 758 l 1,17,-1
 700 1276 l 1,18,-1
 952 1276 l 1,19,-1
 952 1253 l 1,0,1
EndSplineSet
EndChar

StartChar: hbar
Encoding: 295 295 234
Width: 1024
GlyphClass: 2
Flags: W
LayerCount: 2
Fore
SplineSet
843 881.5 m 128,-1,1
 928 786 928 786 928 580 c 2,2,-1
 928 0 l 1,3,-1
 696 0 l 1,4,-1
 696 578 l 2,5,6
 696 684 696 684 659.5 736 c 128,-1,7
 623 788 623 788 559 788 c 0,8,9
 502 788 502 788 455 758 c 128,-1,10
 408 728 408 728 381 674.5 c 128,-1,11
 354 621 354 621 354 553 c 2,12,-1
 354 0 l 1,13,-1
 123 0 l 1,14,-1
 123 1062 l 1,15,-1
 0 1062 l 1,16,-1
 0 1207 l 1,17,-1
 123 1207 l 1,18,-1
 123 1382 l 1,19,-1
 370 1382 l 1,20,-1
 370 1359 l 1,21,22
 359 1347 359 1347 356 1332.5 c 128,-1,23
 353 1318 353 1318 354 1284 c 2,24,-1
 354 1207 l 1,25,-1
 564 1207 l 1,26,-1
 564 1062 l 1,27,-1
 354 1062 l 1,28,-1
 354 858 l 1,29,30
 404 913 404 913 470.5 945 c 128,-1,31
 537 977 537 977 604 977 c 0,32,0
 758 977 758 977 843 881.5 c 128,-1,1
EndSplineSet
EndChar

StartChar: Itilde
Encoding: 296 296 235
Width: 1024
GlyphClass: 2
Flags: W
LayerCount: 2
Fore
SplineSet
861 1625 m 1,0,1
 822 1547 822 1547 771 1504 c 128,-1,2
 720 1461 720 1461 660 1461 c 0,3,4
 616 1461 616 1461 584.5 1478.5 c 128,-1,5
 553 1496 553 1496 511 1531 c 0,6,7
 479 1560 479 1560 455 1574 c 128,-1,8
 431 1588 431 1588 402 1588 c 0,9,10
 358 1588 358 1588 331 1565.5 c 128,-1,11
 304 1543 304 1543 281 1487 c 1,12,-1
 154 1539 l 1,13,14
 186 1631 186 1631 248 1678 c 128,-1,15
 310 1725 310 1725 394 1725 c 0,16,17
 442 1725 442 1725 477 1706.5 c 128,-1,18
 512 1688 512 1688 554 1653 c 0,19,20
 586 1627 586 1627 607 1614.5 c 128,-1,21
 628 1602 628 1602 652 1602 c 0,22,23
 677 1602 677 1602 696 1622 c 128,-1,24
 715 1642 715 1642 738 1688 c 1,25,-1
 861 1625 l 1,0,1
150 190 m 1,26,-1
 397 190 l 1,27,-1
 397 1085 l 1,28,-1
 162 1085 l 1,29,-1
 162 1276 l 1,30,-1
 874 1276 l 1,31,-1
 874 1085 l 1,32,-1
 627 1085 l 1,33,-1
 627 188 l 1,34,-1
 885 188 l 1,35,-1
 885 0 l 1,36,-1
 150 0 l 1,37,-1
 150 190 l 1,26,-1
EndSplineSet
EndChar

StartChar: itilde
Encoding: 297 297 236
Width: 1024
GlyphClass: 2
Flags: W
LayerCount: 2
Fore
SplineSet
835 1284 m 1,0,1
 811 1202 811 1202 769.5 1166 c 128,-1,2
 728 1130 728 1130 684 1130 c 0,3,4
 629 1130 629 1130 589.5 1152 c 128,-1,5
 550 1174 550 1174 505 1214 c 0,6,7
 472 1243 472 1243 450.5 1256.5 c 128,-1,8
 429 1270 429 1270 405 1270 c 0,9,10
 364 1270 364 1270 337 1240 c 128,-1,11
 310 1210 310 1210 301 1149 c 1,12,-1
 192 1176 l 1,13,14
 209 1277 209 1277 265 1330.5 c 128,-1,15
 321 1384 321 1384 403 1384 c 0,16,17
 451 1384 451 1384 486 1363.5 c 128,-1,18
 521 1343 521 1343 563 1306 c 0,19,20
 593 1279 593 1279 613 1266 c 128,-1,21
 633 1253 633 1253 655 1253 c 0,22,23
 685 1253 685 1253 706 1277.5 c 128,-1,24
 727 1302 727 1302 735 1341 c 1,25,-1
 835 1284 l 1,0,1
182 184 m 1,26,-1
 412 184 l 1,27,-1
 412 772 l 1,28,-1
 193 772 l 1,29,-1
 193 956 l 1,30,-1
 641 956 l 1,31,-1
 641 184 l 1,32,-1
 850 184 l 1,33,-1
 850 0 l 1,34,-1
 182 0 l 1,35,-1
 182 184 l 1,26,-1
EndSplineSet
EndChar

StartChar: Ibreve
Encoding: 300 300 239
Width: 1024
GlyphClass: 2
Flags: W
LayerCount: 2
Fore
SplineSet
822 1610 m 1,0,1
 772 1504 772 1504 692.5 1448 c 128,-1,2
 613 1392 613 1392 512 1392 c 256,3,4
 411 1392 411 1392 332 1448 c 128,-1,5
 253 1504 253 1504 203 1610 c 1,6,-1
 346 1675 l 1,7,8
 376 1596 376 1596 416.5 1560 c 128,-1,9
 457 1524 457 1524 512 1524 c 0,10,11
 568 1524 568 1524 607.5 1560 c 128,-1,12
 647 1596 647 1596 678 1675 c 1,13,-1
 822 1610 l 1,0,1
150 190 m 1,14,-1
 397 190 l 1,15,-1
 397 1085 l 1,16,-1
 162 1085 l 1,17,-1
 162 1276 l 1,18,-1
 874 1276 l 1,19,-1
 874 1085 l 1,20,-1
 627 1085 l 1,21,-1
 627 188 l 1,22,-1
 885 188 l 1,23,-1
 885 0 l 1,24,-1
 150 0 l 1,25,-1
 150 190 l 1,14,-1
EndSplineSet
EndChar

StartChar: Iogonek
Encoding: 302 302 241
Width: 1024
GlyphClass: 2
Flags: W
LayerCount: 2
Fore
SplineSet
746 -197 m 0,1,2
 746 -236 746 -236 780.5 -264 c 128,-1,3
 815 -292 815 -292 883 -307 c 1,4,-1
 791 -487 l 1,5,6
 657 -453 657 -453 588.5 -392.5 c 128,-1,7
 520 -332 520 -332 520 -258 c 0,8,9
 520 -195 520 -195 568.5 -128 c 128,-1,10
 617 -61 617 -61 709 0 c 1,11,-1
 150 0 l 1,12,-1
 150 190 l 1,13,-1
 397 190 l 1,14,-1
 397 1085 l 1,15,-1
 162 1085 l 1,16,-1
 162 1276 l 1,17,-1
 874 1276 l 1,18,-1
 874 1085 l 1,19,-1
 627 1085 l 1,20,-1
 627 188 l 1,21,-1
 885 188 l 1,22,-1
 885 0 l 1,23,0
 746 -117 746 -117 746 -197 c 0,1,2
EndSplineSet
EndChar

StartChar: iogonek
Encoding: 303 303 242
Width: 1024
GlyphClass: 2
Flags: W
LayerCount: 2
Fore
SplineSet
440 1140.5 m 128,-1,1
 407 1159 407 1159 388 1190 c 128,-1,2
 369 1221 369 1221 369 1257 c 0,3,4
 369 1316 369 1316 409 1354.5 c 128,-1,5
 449 1393 449 1393 512 1393 c 0,6,7
 549 1393 549 1393 582.5 1374.5 c 128,-1,8
 616 1356 616 1356 636 1324.5 c 128,-1,9
 656 1293 656 1293 656 1257 c 256,10,11
 656 1221 656 1221 636 1190 c 128,-1,12
 616 1159 616 1159 582.5 1140.5 c 128,-1,13
 549 1122 549 1122 512 1122 c 0,14,0
 473 1122 473 1122 440 1140.5 c 128,-1,1
711 -197 m 0,16,17
 711 -236 711 -236 745.5 -264 c 128,-1,18
 780 -292 780 -292 848 -307 c 1,19,-1
 756 -487 l 1,20,21
 622 -453 622 -453 553.5 -392.5 c 128,-1,22
 485 -332 485 -332 485 -258 c 0,23,24
 485 -195 485 -195 533.5 -128 c 128,-1,25
 582 -61 582 -61 674 0 c 1,26,-1
 182 0 l 1,27,-1
 182 184 l 1,28,-1
 412 184 l 1,29,-1
 412 772 l 1,30,-1
 193 772 l 1,31,-1
 193 956 l 1,32,-1
 641 956 l 1,33,-1
 641 184 l 1,34,-1
 850 184 l 1,35,-1
 850 0 l 1,36,15
 711 -117 711 -117 711 -197 c 0,16,17
EndSplineSet
EndChar

StartChar: Idotaccent
Encoding: 304 304 243
Width: 1024
GlyphClass: 2
Flags: W
LayerCount: 2
Fore
SplineSet
440 1419 m 128,-1,1
 407 1437 407 1437 387 1467.5 c 128,-1,2
 367 1498 367 1498 367 1534 c 0,3,4
 367 1567 367 1567 385 1598 c 128,-1,5
 403 1629 403 1629 435.5 1648 c 128,-1,6
 468 1667 468 1667 510 1667 c 0,7,8
 549 1667 549 1667 582.5 1649 c 128,-1,9
 616 1631 616 1631 636 1600.5 c 128,-1,10
 656 1570 656 1570 656 1534 c 256,11,12
 656 1498 656 1498 636 1467.5 c 128,-1,13
 616 1437 616 1437 582.5 1419 c 128,-1,14
 549 1401 549 1401 510 1401 c 0,15,0
 473 1401 473 1401 440 1419 c 128,-1,1
150 190 m 1,16,-1
 397 190 l 1,17,-1
 397 1085 l 1,18,-1
 162 1085 l 1,19,-1
 162 1276 l 1,20,-1
 874 1276 l 1,21,-1
 874 1085 l 1,22,-1
 627 1085 l 1,23,-1
 627 188 l 1,24,-1
 885 188 l 1,25,-1
 885 0 l 1,26,-1
 150 0 l 1,27,-1
 150 190 l 1,16,-1
EndSplineSet
EndChar

StartChar: dotlessi
Encoding: 305 305 244
Width: 1024
GlyphClass: 2
Flags: W
LayerCount: 2
Fore
SplineSet
182 184 m 1,0,-1
 412 184 l 1,1,-1
 412 772 l 1,2,-1
 193 772 l 1,3,-1
 193 956 l 1,4,-1
 641 956 l 1,5,-1
 641 184 l 1,6,-1
 850 184 l 1,7,-1
 850 0 l 1,8,-1
 182 0 l 1,9,-1
 182 184 l 1,0,-1
EndSplineSet
EndChar

StartChar: Jcircumflex
Encoding: 308 308 245
Width: 1024
GlyphClass: 2
Flags: W
LayerCount: 2
Fore
SplineSet
273 1417 m 1,0,-1
 602 1638 l 1,1,-1
 666 1638 l 1,2,-1
 989 1421 l 1,3,-1
 912 1329 l 1,4,-1
 635 1464 l 1,5,-1
 346 1329 l 1,6,-1
 273 1417 l 1,0,-1
204 10.5 m 128,-1,8
 117 56 117 56 51 143 c 1,9,-1
 181 291 l 1,10,-1
 193 305 l 1,11,-1
 210 290 l 2,12,13
 211 285 211 285 212 271 c 128,-1,14
 213 257 213 257 220 243 c 128,-1,15
 227 229 227 229 242 214 c 0,16,17
 269 187 269 187 300 174.5 c 128,-1,18
 331 162 331 162 369 162 c 0,19,20
 426 162 426 162 461 190 c 128,-1,21
 496 218 496 218 512 278.5 c 128,-1,22
 528 339 528 339 528 438 c 2,23,-1
 528 1085 l 1,24,-1
 291 1085 l 1,25,-1
 291 1276 l 1,26,-1
 950 1276 l 1,27,-1
 950 1085 l 1,28,-1
 758 1085 l 1,29,-1
 758 412 l 2,30,31
 758 262 758 262 709.5 161.5 c 128,-1,32
 661 61 661 61 578.5 13 c 128,-1,33
 496 -35 496 -35 393 -35 c 0,34,7
 291 -35 291 -35 204 10.5 c 128,-1,8
EndSplineSet
EndChar

StartChar: kgreenlandic
Encoding: 312 312 249
Width: 1024
GlyphClass: 2
Flags: W
LayerCount: 2
Fore
SplineSet
432 432 m 1,0,-1
 354 358 l 1,1,-1
 354 0 l 1,2,-1
 123 0 l 1,3,-1
 123 956 l 1,4,-1
 383 956 l 1,5,6
 383 944 383 944 379 937 c 128,-1,7
 375 930 375 930 368 923 c 0,8,9
 363 918 363 918 359 912 c 128,-1,10
 355 906 355 906 354 899 c 2,11,-1
 354 604 l 1,12,-1
 723 973 l 1,13,14
 803 956 803 956 840 956 c 2,15,-1
 989 956 l 1,16,-1
 596 573 l 1,17,-1
 1028 2 l 1,18,-1
 748 -8 l 1,19,-1
 432 432 l 1,0,-1
EndSplineSet
EndChar

StartChar: Lacute
Encoding: 313 313 250
Width: 1024
GlyphClass: 2
Flags: W
LayerCount: 2
Fore
SplineSet
313 1413 m 1,0,-1
 627 1645 l 1,1,-1
 723 1468 l 1,2,-1
 354 1339 l 1,3,-1
 313 1413 l 1,0,-1
125 1276 m 1,4,-1
 376 1276 l 1,5,-1
 376 1253 l 1,6,7
 365 1241 365 1241 362 1226.5 c 128,-1,8
 359 1212 359 1212 360 1178 c 2,9,-1
 360 193 l 1,10,-1
 940 193 l 1,11,-1
 940 0 l 1,12,-1
 125 0 l 1,13,-1
 125 1276 l 1,4,-1
EndSplineSet
EndChar

StartChar: lacute
Encoding: 314 314 251
Width: 1024
GlyphClass: 2
Flags: W
LayerCount: 2
Fore
SplineSet
313 1519 m 1,0,-1
 627 1751 l 1,1,-1
 723 1574 l 1,2,-1
 354 1445 l 1,3,-1
 313 1519 l 1,0,-1
137 178 m 1,4,-1
 399 178 l 1,5,-1
 399 1204 l 1,6,-1
 150 1204 l 1,7,-1
 150 1382 l 1,8,-1
 631 1382 l 1,9,-1
 631 178 l 1,10,-1
 891 178 l 1,11,-1
 891 0 l 1,12,-1
 137 0 l 1,13,-1
 137 178 l 1,4,-1
EndSplineSet
EndChar

StartChar: Lcaron
Encoding: 317 317 254
Width: 1024
GlyphClass: 2
Flags: W
LayerCount: 2
Fore
SplineSet
582 918 m 1,0,1
 632 964 632 964 664.5 1009.5 c 128,-1,2
 697 1055 697 1055 697 1077 c 0,3,4
 697 1082 697 1082 687.5 1091.5 c 128,-1,5
 678 1101 678 1101 676 1103 c 0,6,7
 650 1125 650 1125 634.5 1146.5 c 128,-1,8
 619 1168 619 1168 619 1194 c 0,9,10
 619 1248 619 1248 657.5 1283.5 c 128,-1,11
 696 1319 696 1319 756 1319 c 0,12,13
 795 1319 795 1319 829.5 1298.5 c 128,-1,14
 864 1278 864 1278 885 1241 c 128,-1,15
 906 1204 906 1204 906 1157 c 0,16,17
 906 1020 906 1020 701 815 c 1,18,-1
 582 918 l 1,0,1
125 1276 m 1,19,-1
 376 1276 l 1,20,-1
 376 1253 l 1,21,22
 365 1241 365 1241 362 1226.5 c 128,-1,23
 359 1212 359 1212 360 1178 c 2,24,-1
 360 193 l 1,25,-1
 940 193 l 1,26,-1
 940 0 l 1,27,-1
 125 0 l 1,28,-1
 125 1276 l 1,19,-1
EndSplineSet
EndChar

StartChar: ldot
Encoding: 320 320 257
Width: 1024
GlyphClass: 2
Flags: W
LayerCount: 2
Fore
SplineSet
117 178 m 1,0,-1
 338 178 l 1,1,-1
 338 1204 l 1,2,-1
 129 1204 l 1,3,-1
 129 1382 l 1,4,-1
 567 1382 l 1,5,-1
 567 178 l 1,6,-1
 870 178 l 1,7,-1
 870 0 l 1,8,-1
 117 0 l 1,9,-1
 117 178 l 1,0,-1
736 556 m 128,-1,11
 700 575 700 575 679 608.5 c 128,-1,12
 658 642 658 642 658 682 c 0,13,14
 658 721 658 721 680 754.5 c 128,-1,15
 702 788 702 788 738.5 807.5 c 128,-1,16
 775 827 775 827 815 827 c 0,17,18
 856 827 856 827 893.5 806.5 c 128,-1,19
 931 786 931 786 954 752 c 128,-1,20
 977 718 977 718 977 682 c 0,21,22
 977 643 977 643 955.5 609.5 c 128,-1,23
 934 576 934 576 897 556.5 c 128,-1,24
 860 537 860 537 815 537 c 0,25,10
 772 537 772 537 736 556 c 128,-1,11
EndSplineSet
EndChar

StartChar: Lslash
Encoding: 321 321 258
Width: 1024
GlyphClass: 2
Flags: W
LayerCount: 2
Fore
SplineSet
125 453 m 1,0,-1
 10 416 l 1,1,-1
 10 610 l 1,2,-1
 125 647 l 1,3,-1
 125 1276 l 1,4,-1
 375 1276 l 1,5,6
 379 1272 379 1272 379 1266 c 0,7,8
 379 1262 379 1262 371 1246 c 128,-1,9
 363 1230 363 1230 360 1204 c 2,10,-1
 360 725 l 1,11,-1
 643 817 l 2,12,13
 675 831 675 831 717 864 c 1,14,-1
 717 645 l 1,15,-1
 360 528 l 1,16,-1
 360 195 l 1,17,-1
 940 195 l 1,18,-1
 940 2 l 1,19,-1
 125 2 l 1,20,-1
 125 453 l 1,0,-1
EndSplineSet
EndChar

StartChar: lslash
Encoding: 322 322 259
Width: 1024
GlyphClass: 2
Flags: W
LayerCount: 2
Fore
SplineSet
137 178 m 1,0,-1
 399 178 l 1,1,-1
 399 524 l 1,2,-1
 248 473 l 1,3,-1
 248 672 l 1,4,-1
 399 723 l 1,5,-1
 399 1204 l 1,6,-1
 150 1204 l 1,7,-1
 150 1382 l 1,8,-1
 629 1382 l 1,9,-1
 629 803 l 1,10,-1
 801 860 l 1,11,-1
 801 659 l 1,12,-1
 629 600 l 1,13,-1
 629 178 l 1,14,-1
 891 178 l 1,15,-1
 891 0 l 1,16,-1
 137 0 l 1,17,-1
 137 178 l 1,0,-1
EndSplineSet
EndChar

StartChar: Nacute
Encoding: 323 323 260
Width: 1024
GlyphClass: 2
Flags: W
LayerCount: 2
Fore
SplineSet
313 1413 m 1,0,-1
 627 1645 l 1,1,-1
 723 1468 l 1,2,-1
 354 1339 l 1,3,-1
 313 1413 l 1,0,-1
66 1276 m 1,4,-1
 346 1276 l 1,5,-1
 752 362 l 1,6,-1
 752 1276 l 1,7,-1
 974 1276 l 1,8,-1
 974 1253 l 1,9,10
 963 1241 963 1241 960 1226.5 c 128,-1,11
 957 1212 957 1212 958 1178 c 2,12,-1
 958 0 l 1,13,-1
 705 0 l 1,14,-1
 272 965 l 1,15,-1
 272 0 l 1,16,-1
 66 0 l 1,17,-1
 66 1276 l 1,4,-1
EndSplineSet
EndChar

StartChar: Ncaron
Encoding: 327 327 264
Width: 1024
GlyphClass: 2
Flags: W
LayerCount: 2
Fore
SplineSet
219 1607 m 1,0,-1
 296 1699 l 1,1,-1
 511 1564 l 1,2,-1
 743 1693 l 1,3,-1
 812 1611 l 1,4,-1
 540 1390 l 1,5,-1
 477 1390 l 1,6,-1
 219 1607 l 1,0,-1
66 1276 m 1,7,-1
 346 1276 l 1,8,-1
 752 362 l 1,9,-1
 752 1276 l 1,10,-1
 974 1276 l 1,11,-1
 974 1253 l 1,12,13
 963 1241 963 1241 960 1226.5 c 128,-1,14
 957 1212 957 1212 958 1178 c 2,15,-1
 958 0 l 1,16,-1
 705 0 l 1,17,-1
 272 965 l 1,18,-1
 272 0 l 1,19,-1
 66 0 l 1,20,-1
 66 1276 l 1,7,-1
EndSplineSet
EndChar

StartChar: Eng
Encoding: 330 330 266
Width: 1024
GlyphClass: 2
Flags: W
LayerCount: 2
Fore
SplineSet
973 1276 m 1,0,1
 973 1261 973 1261 970 1248 c 128,-1,2
 967 1235 967 1235 966 1232 c 0,3,4
 958 1206 958 1206 958 1188 c 2,5,-1
 958 0 l 2,6,7
 958 -123 958 -123 914.5 -215.5 c 128,-1,8
 871 -308 871 -308 796 -358 c 128,-1,9
 721 -408 721 -408 631 -408 c 0,10,11
 512 -408 512 -408 391 -322 c 1,12,-1
 498 -135 l 1,13,14
 511 -135 511 -135 519 -141 c 128,-1,15
 527 -147 527 -147 537 -160 c 0,16,17
 550 -178 550 -178 566.5 -188.5 c 128,-1,18
 583 -199 583 -199 616 -199 c 0,19,20
 679 -199 679 -199 714.5 -148.5 c 128,-1,21
 750 -98 750 -98 750 -2 c 1,22,-1
 272 965 l 1,23,-1
 272 0 l 1,24,-1
 66 0 l 1,25,-1
 66 1276 l 1,26,-1
 305 1276 l 1,27,-1
 752 377 l 1,28,-1
 752 1276 l 1,29,-1
 973 1276 l 1,0,1
EndSplineSet
EndChar

StartChar: eng
Encoding: 331 331 267
Width: 1024
GlyphClass: 2
Flags: W
LayerCount: 2
Fore
SplineSet
319 -274 m 1,1,-1
 422 -74 l 1,2,3
 434 -77 434 -77 443 -85.5 c 128,-1,4
 452 -94 452 -94 465 -110 c 0,5,6
 485 -136 485 -136 505 -150 c 128,-1,7
 525 -164 525 -164 561 -164 c 0,8,9
 696 -164 696 -164 696 88 c 2,10,-1
 696 578 l 2,11,12
 696 684 696 684 659.5 736 c 128,-1,13
 623 788 623 788 559 788 c 0,14,15
 502 788 502 788 455 758 c 128,-1,16
 408 728 408 728 381 674.5 c 128,-1,17
 354 621 354 621 354 553 c 2,18,-1
 354 0 l 1,19,-1
 123 0 l 1,20,-1
 123 956 l 1,21,-1
 354 956 l 1,22,-1
 354 858 l 1,23,24
 404 913 404 913 470.5 945 c 128,-1,25
 537 977 537 977 604 977 c 0,26,27
 922 977 922 977 922 580 c 2,28,-1
 922 109 l 2,29,30
 922 -53 922 -53 875.5 -159.5 c 128,-1,31
 829 -266 829 -266 747 -316.5 c 128,-1,32
 665 -367 665 -367 557 -367 c 0,33,0
 439 -367 439 -367 319 -274 c 1,1,-1
EndSplineSet
EndChar

StartChar: Obreve
Encoding: 334 334 270
Width: 1024
GlyphClass: 2
Flags: W
LayerCount: 2
Fore
SplineSet
826 1610 m 1,0,1
 776 1504 776 1504 696.5 1448 c 128,-1,2
 617 1392 617 1392 516 1392 c 256,3,4
 415 1392 415 1392 336 1448 c 128,-1,5
 257 1504 257 1504 207 1610 c 1,6,-1
 350 1675 l 1,7,8
 380 1596 380 1596 420.5 1560 c 128,-1,9
 461 1524 461 1524 516 1524 c 0,10,11
 572 1524 572 1524 611.5 1560 c 128,-1,12
 651 1596 651 1596 682 1675 c 1,13,-1
 826 1610 l 1,0,1
258.5 43.5 m 128,-1,15
 150 124 150 124 92.5 276.5 c 128,-1,16
 35 429 35 429 35 641 c 0,17,18
 35 850 35 850 92.5 1000 c 128,-1,19
 150 1150 150 1150 258.5 1229.5 c 128,-1,20
 367 1309 367 1309 518 1309 c 256,21,22
 669 1309 669 1309 777.5 1229.5 c 128,-1,23
 886 1150 886 1150 943.5 1000 c 128,-1,24
 1001 850 1001 850 1001 641 c 0,25,26
 1001 429 1001 429 943.5 276.5 c 128,-1,27
 886 124 886 124 777.5 43.5 c 128,-1,28
 669 -37 669 -37 518 -37 c 256,29,14
 367 -37 367 -37 258.5 43.5 c 128,-1,15
649.5 209.5 m 128,-1,31
 705 272 705 272 734.5 386.5 c 128,-1,32
 764 501 764 501 764 653 c 0,33,34
 764 794 764 794 734.5 900.5 c 128,-1,35
 705 1007 705 1007 649.5 1065.5 c 128,-1,36
 594 1124 594 1124 518 1124 c 0,37,38
 443 1124 443 1124 387 1065.5 c 128,-1,39
 331 1007 331 1007 301.5 900.5 c 128,-1,40
 272 794 272 794 272 653 c 0,41,42
 272 501 272 501 301.5 386.5 c 128,-1,43
 331 272 331 272 386.5 209.5 c 128,-1,44
 442 147 442 147 518 147 c 256,45,30
 594 147 594 147 649.5 209.5 c 128,-1,31
EndSplineSet
EndChar

StartChar: Ohungarumlaut
Encoding: 336 336 272
Width: 1024
GlyphClass: 2
Flags: W
LayerCount: 2
Fore
SplineSet
136 1405 m 1,0,-1
 412 1686 l 1,1,-1
 531 1516 l 1,2,-1
 213 1307 l 1,3,-1
 136 1405 l 1,0,-1
502 1405 m 1,4,-1
 779 1686 l 1,5,-1
 897 1516 l 1,6,-1
 580 1307 l 1,7,-1
 502 1405 l 1,4,-1
258.5 43.5 m 128,-1,9
 150 124 150 124 92.5 276.5 c 128,-1,10
 35 429 35 429 35 641 c 0,11,12
 35 850 35 850 92.5 1000 c 128,-1,13
 150 1150 150 1150 258.5 1229.5 c 128,-1,14
 367 1309 367 1309 518 1309 c 256,15,16
 669 1309 669 1309 777.5 1229.5 c 128,-1,17
 886 1150 886 1150 943.5 1000 c 128,-1,18
 1001 850 1001 850 1001 641 c 0,19,20
 1001 429 1001 429 943.5 276.5 c 128,-1,21
 886 124 886 124 777.5 43.5 c 128,-1,22
 669 -37 669 -37 518 -37 c 256,23,8
 367 -37 367 -37 258.5 43.5 c 128,-1,9
649.5 209.5 m 128,-1,25
 705 272 705 272 734.5 386.5 c 128,-1,26
 764 501 764 501 764 653 c 0,27,28
 764 794 764 794 734.5 900.5 c 128,-1,29
 705 1007 705 1007 649.5 1065.5 c 128,-1,30
 594 1124 594 1124 518 1124 c 0,31,32
 443 1124 443 1124 387 1065.5 c 128,-1,33
 331 1007 331 1007 301.5 900.5 c 128,-1,34
 272 794 272 794 272 653 c 0,35,36
 272 501 272 501 301.5 386.5 c 128,-1,37
 331 272 331 272 386.5 209.5 c 128,-1,38
 442 147 442 147 518 147 c 256,39,24
 594 147 594 147 649.5 209.5 c 128,-1,25
EndSplineSet
EndChar

StartChar: OE
Encoding: 338 338 274
Width: 1024
GlyphClass: 2
Flags: W
LayerCount: 2
Fore
SplineSet
172.5 57 m 128,-1,1
 93 128 93 128 49.5 273.5 c 128,-1,2
 6 419 6 419 6 639 c 0,3,4
 6 962 6 962 99.5 1128 c 128,-1,5
 193 1294 193 1294 369 1294 c 0,6,7
 398 1294 398 1294 431.5 1281.5 c 128,-1,8
 465 1269 465 1269 489 1247 c 1,9,-1
 489 1278 l 1,10,-1
 1010 1278 l 1,11,-1
 1010 1081 l 1,12,-1
 692 1081 l 1,13,-1
 692 764 l 1,14,-1
 961 764 l 1,15,-1
 961 565 l 1,16,-1
 692 565 l 1,17,-1
 692 197 l 1,18,-1
 1006 197 l 1,19,-1
 1006 0 l 1,20,-1
 487 0 l 1,21,-1
 487 33 l 1,22,23
 460 12 460 12 426 -1 c 128,-1,24
 392 -14 392 -14 362 -14 c 0,25,0
 252 -14 252 -14 172.5 57 c 128,-1,1
447 212 m 128,-1,27
 471 242 471 242 477 295 c 1,28,-1
 477 977 l 1,29,30
 466 1034 466 1034 438.5 1069 c 128,-1,31
 411 1104 411 1104 369 1104 c 0,32,33
 302 1104 302 1104 263.5 998 c 128,-1,34
 225 892 225 892 225 641 c 0,35,36
 225 182 225 182 385 182 c 0,37,26
 423 182 423 182 447 212 c 128,-1,27
EndSplineSet
EndChar

StartChar: oe
Encoding: 339 339 275
Width: 1024
GlyphClass: 2
Flags: W
LayerCount: 2
Fore
SplineSet
618 -6 m 128,-1,1
 552 19 552 19 518 53 c 1,2,3
 481 16 481 16 432 -6.5 c 128,-1,4
 383 -29 383 -29 332 -29 c 0,5,6
 246 -29 246 -29 172.5 18.5 c 128,-1,7
 99 66 99 66 52.5 178.5 c 128,-1,8
 6 291 6 291 6 475 c 0,9,10
 6 647 6 647 52.5 758.5 c 128,-1,11
 99 870 99 870 175.5 921.5 c 128,-1,12
 252 973 252 973 344 973 c 0,13,14
 394 973 394 973 442 947.5 c 128,-1,15
 490 922 490 922 524 885 c 1,16,17
 560 921 560 921 610.5 947 c 128,-1,18
 661 973 661 973 711 973 c 0,19,20
 805 973 805 973 872.5 927 c 128,-1,21
 940 881 940 881 976 792.5 c 128,-1,22
 1012 704 1012 704 1012 580 c 2,23,-1
 1012 424 l 1,24,-1
 582 424 l 1,25,26
 585 277 585 277 623.5 217.5 c 128,-1,27
 662 158 662 158 735 158 c 0,28,29
 785 158 785 158 821.5 182 c 128,-1,30
 858 206 858 206 913 264 c 1,31,-1
 1032 115 l 1,32,33
 962 44 962 44 891.5 6.5 c 128,-1,34
 821 -31 821 -31 741 -31 c 0,35,0
 684 -31 684 -31 618 -6 c 128,-1,1
805 606 m 1,36,37
 804 706 804 706 777 750.5 c 128,-1,38
 750 795 750 795 698 795 c 0,39,40
 638 795 638 795 612.5 747 c 128,-1,41
 587 699 587 699 584 606 c 1,42,-1
 805 606 l 1,36,37
385.5 174.5 m 128,-1,44
 396 185 396 185 396 205 c 0,45,46
 396 221 396 221 391 244 c 0,47,48
 373 355 373 355 373 494 c 256,49,50
 373 633 373 633 387 715 c 0,51,52
 389 727 389 727 389 733 c 0,53,54
 389 754 389 754 377 769 c 128,-1,55
 365 784 365 784 342 784 c 0,56,57
 306 784 306 784 277 753 c 128,-1,58
 248 722 248 722 230.5 657.5 c 128,-1,59
 213 593 213 593 213 496 c 0,60,61
 213 335 213 335 248 249.5 c 128,-1,62
 283 164 283 164 348 164 c 0,63,43
 375 164 375 164 385.5 174.5 c 128,-1,44
EndSplineSet
EndChar

StartChar: Racute
Encoding: 340 340 276
Width: 1024
GlyphClass: 2
Flags: W
LayerCount: 2
Fore
SplineSet
313 1413 m 1,0,-1
 627 1645 l 1,1,-1
 723 1468 l 1,2,-1
 354 1339 l 1,3,-1
 313 1413 l 1,0,-1
96 1276 m 1,4,-1
 500 1276 l 2,5,6
 729 1276 729 1276 837.5 1175.5 c 128,-1,7
 946 1075 946 1075 946 895 c 0,8,9
 946 825 946 825 915.5 755 c 128,-1,10
 885 685 885 685 829.5 631.5 c 128,-1,11
 774 578 774 578 702 555 c 1,12,-1
 1001 0 l 1,13,-1
 743 0 l 1,14,-1
 479 528 l 1,15,-1
 330 528 l 1,16,-1
 330 0 l 1,17,-1
 96 0 l 1,18,-1
 96 1276 l 1,4,-1
514 723 m 2,19,20
 613 723 613 723 662 769 c 128,-1,21
 711 815 711 815 711 895 c 0,22,23
 711 985 711 985 663.5 1029 c 128,-1,24
 616 1073 616 1073 514 1073 c 2,25,-1
 330 1073 l 1,26,-1
 330 723 l 1,27,-1
 514 723 l 2,19,20
EndSplineSet
EndChar

StartChar: Rcaron
Encoding: 344 344 280
Width: 1024
GlyphClass: 2
Flags: W
LayerCount: 2
Fore
SplineSet
219 1607 m 1,0,-1
 296 1699 l 1,1,-1
 511 1564 l 1,2,-1
 743 1693 l 1,3,-1
 812 1611 l 1,4,-1
 540 1390 l 1,5,-1
 477 1390 l 1,6,-1
 219 1607 l 1,0,-1
96 1276 m 1,7,-1
 500 1276 l 2,8,9
 729 1276 729 1276 837.5 1175.5 c 128,-1,10
 946 1075 946 1075 946 895 c 0,11,12
 946 825 946 825 915.5 755 c 128,-1,13
 885 685 885 685 829.5 631.5 c 128,-1,14
 774 578 774 578 702 555 c 1,15,-1
 1001 0 l 1,16,-1
 743 0 l 1,17,-1
 479 528 l 1,18,-1
 330 528 l 1,19,-1
 330 0 l 1,20,-1
 96 0 l 1,21,-1
 96 1276 l 1,7,-1
514 723 m 2,22,23
 613 723 613 723 662 769 c 128,-1,24
 711 815 711 815 711 895 c 0,25,26
 711 985 711 985 663.5 1029 c 128,-1,27
 616 1073 616 1073 514 1073 c 2,28,-1
 330 1073 l 1,29,-1
 330 723 l 1,30,-1
 514 723 l 2,22,23
EndSplineSet
EndChar

StartChar: Sacute
Encoding: 346 346 282
Width: 1024
GlyphClass: 2
Flags: W
LayerCount: 2
Fore
SplineSet
313 1413 m 1,0,-1
 627 1645 l 1,1,-1
 723 1468 l 1,2,-1
 354 1339 l 1,3,-1
 313 1413 l 1,0,-1
57 141 m 1,4,-1
 157 315 l 1,5,-1
 166 331 l 1,6,-1
 186 319 l 2,7,8
 187 315 187 315 191.5 302 c 128,-1,9
 196 289 196 289 205 276.5 c 128,-1,10
 214 264 214 264 230 252 c 0,11,12
 354 160 354 160 508 160 c 0,13,14
 604 160 604 160 656.5 205 c 128,-1,15
 709 250 709 250 709 340 c 0,16,17
 709 385 709 385 686.5 421.5 c 128,-1,18
 664 458 664 458 609.5 495 c 128,-1,19
 555 532 555 532 459 575 c 0,20,21
 281 652 281 652 201 748 c 128,-1,22
 121 844 121 844 121 971 c 0,23,24
 121 1063 121 1063 172.5 1140.5 c 128,-1,25
 224 1218 224 1218 314.5 1263.5 c 128,-1,26
 405 1309 405 1309 518 1309 c 0,27,28
 645 1309 645 1309 737 1267 c 128,-1,29
 829 1225 829 1225 913 1137 c 1,30,-1
 798 977 l 1,31,-1
 788 962 l 1,32,-1
 769 975 l 1,33,34
 768 981 768 981 765.5 995 c 128,-1,35
 763 1009 763 1009 755.5 1022.5 c 128,-1,36
 748 1036 748 1036 733 1049 c 0,37,38
 647 1120 647 1120 516 1120 c 0,39,40
 460 1120 460 1120 419.5 1100.5 c 128,-1,41
 379 1081 379 1081 358.5 1049 c 128,-1,42
 338 1017 338 1017 338 979 c 0,43,44
 338 934 338 934 361.5 899.5 c 128,-1,45
 385 865 385 865 442 828.5 c 128,-1,46
 499 792 499 792 608 739 c 0,47,48
 738 677 738 677 810 619.5 c 128,-1,49
 882 562 882 562 912 499 c 128,-1,50
 942 436 942 436 942 352 c 0,51,52
 942 250 942 250 895 161.5 c 128,-1,53
 848 73 848 73 746.5 18 c 128,-1,54
 645 -37 645 -37 489 -37 c 0,55,56
 240 -37 240 -37 57 141 c 1,4,-1
EndSplineSet
EndChar

StartChar: Scircumflex
Encoding: 348 348 284
Width: 1024
GlyphClass: 2
Flags: W
LayerCount: 2
Fore
SplineSet
150 1417 m 1,0,-1
 479 1638 l 1,1,-1
 543 1638 l 1,2,-1
 866 1421 l 1,3,-1
 789 1329 l 1,4,-1
 512 1464 l 1,5,-1
 223 1329 l 1,6,-1
 150 1417 l 1,0,-1
57 141 m 1,7,-1
 157 315 l 1,8,-1
 166 331 l 1,9,-1
 186 319 l 2,10,11
 187 315 187 315 191.5 302 c 128,-1,12
 196 289 196 289 205 276.5 c 128,-1,13
 214 264 214 264 230 252 c 0,14,15
 354 160 354 160 508 160 c 0,16,17
 604 160 604 160 656.5 205 c 128,-1,18
 709 250 709 250 709 340 c 0,19,20
 709 385 709 385 686.5 421.5 c 128,-1,21
 664 458 664 458 609.5 495 c 128,-1,22
 555 532 555 532 459 575 c 0,23,24
 281 652 281 652 201 748 c 128,-1,25
 121 844 121 844 121 971 c 0,26,27
 121 1063 121 1063 172.5 1140.5 c 128,-1,28
 224 1218 224 1218 314.5 1263.5 c 128,-1,29
 405 1309 405 1309 518 1309 c 0,30,31
 645 1309 645 1309 737 1267 c 128,-1,32
 829 1225 829 1225 913 1137 c 1,33,-1
 798 977 l 1,34,-1
 788 962 l 1,35,-1
 769 975 l 1,36,37
 768 981 768 981 765.5 995 c 128,-1,38
 763 1009 763 1009 755.5 1022.5 c 128,-1,39
 748 1036 748 1036 733 1049 c 0,40,41
 647 1120 647 1120 516 1120 c 0,42,43
 460 1120 460 1120 419.5 1100.5 c 128,-1,44
 379 1081 379 1081 358.5 1049 c 128,-1,45
 338 1017 338 1017 338 979 c 0,46,47
 338 934 338 934 361.5 899.5 c 128,-1,48
 385 865 385 865 442 828.5 c 128,-1,49
 499 792 499 792 608 739 c 0,50,51
 738 677 738 677 810 619.5 c 128,-1,52
 882 562 882 562 912 499 c 128,-1,53
 942 436 942 436 942 352 c 0,54,55
 942 250 942 250 895 161.5 c 128,-1,56
 848 73 848 73 746.5 18 c 128,-1,57
 645 -37 645 -37 489 -37 c 0,58,59
 240 -37 240 -37 57 141 c 1,7,-1
EndSplineSet
EndChar

StartChar: Scedilla
Encoding: 350 350 286
Width: 1024
GlyphClass: 2
Flags: W
LayerCount: 2
Fore
SplineSet
910 191 m 128,-1,1
 878 115 878 115 809 58 c 128,-1,2
 740 1 740 1 634 -22 c 1,3,-1
 628 -63 l 1,4,5
 705 -71 705 -71 746.5 -109.5 c 128,-1,6
 788 -148 788 -148 788 -209 c 0,7,8
 788 -260 788 -260 758.5 -308.5 c 128,-1,9
 729 -357 729 -357 669.5 -388.5 c 128,-1,10
 610 -420 610 -420 526 -420 c 0,11,12
 383 -420 383 -420 268 -305 c 1,13,-1
 344 -172 l 1,14,15
 402 -233 402 -233 449.5 -257 c 128,-1,16
 497 -281 497 -281 551 -281 c 0,17,18
 597 -281 597 -281 621 -266.5 c 128,-1,19
 645 -252 645 -252 645 -227 c 0,20,21
 645 -204 645 -204 623 -193 c 128,-1,22
 601 -182 601 -182 548 -182 c 2,23,-1
 448 -182 l 1,24,-1
 468 -37 l 1,25,26
 232 -30 232 -30 57 141 c 1,27,-1
 157 315 l 1,28,-1
 166 331 l 1,29,-1
 186 319 l 2,30,31
 187 315 187 315 191.5 302 c 128,-1,32
 196 289 196 289 205 276.5 c 128,-1,33
 214 264 214 264 230 252 c 0,34,35
 354 160 354 160 508 160 c 0,36,37
 604 160 604 160 656.5 205 c 128,-1,38
 709 250 709 250 709 340 c 0,39,40
 709 385 709 385 686.5 421.5 c 128,-1,41
 664 458 664 458 609.5 495 c 128,-1,42
 555 532 555 532 459 575 c 0,43,44
 281 652 281 652 201 748 c 128,-1,45
 121 844 121 844 121 971 c 0,46,47
 121 1063 121 1063 172.5 1140.5 c 128,-1,48
 224 1218 224 1218 314.5 1263.5 c 128,-1,49
 405 1309 405 1309 518 1309 c 0,50,51
 645 1309 645 1309 737 1267 c 128,-1,52
 829 1225 829 1225 913 1137 c 1,53,-1
 798 977 l 1,54,-1
 788 962 l 1,55,-1
 769 975 l 1,56,57
 768 981 768 981 765.5 995 c 128,-1,58
 763 1009 763 1009 755.5 1022.5 c 128,-1,59
 748 1036 748 1036 733 1049 c 0,60,61
 647 1120 647 1120 516 1120 c 0,62,63
 460 1120 460 1120 419.5 1100.5 c 128,-1,64
 379 1081 379 1081 358.5 1049 c 128,-1,65
 338 1017 338 1017 338 979 c 0,66,67
 338 934 338 934 361.5 899.5 c 128,-1,68
 385 865 385 865 442 828.5 c 128,-1,69
 499 792 499 792 608 739 c 0,70,71
 738 677 738 677 810 619.5 c 128,-1,72
 882 562 882 562 912 499 c 128,-1,73
 942 436 942 436 942 352 c 0,74,0
 942 267 942 267 910 191 c 128,-1,1
EndSplineSet
EndChar

StartChar: scedilla
Encoding: 351 351 287
Width: 1024
GlyphClass: 2
Flags: W
LayerCount: 2
Fore
SplineSet
887.5 156 m 128,-1,1
 855 95 855 95 796.5 49.5 c 128,-1,2
 738 4 738 4 662 -17 c 1,3,-1
 655 -63 l 1,4,5
 732 -71 732 -71 773.5 -109.5 c 128,-1,6
 815 -148 815 -148 815 -209 c 0,7,8
 815 -260 815 -260 785.5 -308.5 c 128,-1,9
 756 -357 756 -357 696.5 -388.5 c 128,-1,10
 637 -420 637 -420 553 -420 c 0,11,12
 410 -420 410 -420 295 -305 c 1,13,-1
 371 -172 l 1,14,15
 429 -233 429 -233 476.5 -257 c 128,-1,16
 524 -281 524 -281 578 -281 c 0,17,18
 624 -281 624 -281 648 -266.5 c 128,-1,19
 672 -252 672 -252 672 -227 c 0,20,21
 672 -204 672 -204 650 -193 c 128,-1,22
 628 -182 628 -182 575 -182 c 2,23,-1
 475 -182 l 1,24,-1
 496 -32 l 1,25,26
 371 -26 371 -26 274.5 13 c 128,-1,27
 178 52 178 52 96 129 c 1,28,-1
 192 297 l 1,29,-1
 201 313 l 1,30,-1
 221 301 l 2,31,32
 223 296 223 296 226.5 283 c 128,-1,33
 230 270 230 270 239.5 257.5 c 128,-1,34
 249 245 249 245 265 233 c 0,35,36
 321 191 321 191 388.5 171.5 c 128,-1,37
 456 152 456 152 545 152 c 0,38,39
 709 152 709 152 709 260 c 0,40,41
 709 293 709 293 689 317 c 128,-1,42
 669 341 669 341 625 361 c 128,-1,43
 581 381 581 381 504 403 c 0,44,45
 339 446 339 446 247.5 511.5 c 128,-1,46
 156 577 156 577 156 692 c 0,47,48
 156 775 156 775 200.5 839.5 c 128,-1,49
 245 904 245 904 328.5 940.5 c 128,-1,50
 412 977 412 977 524 977 c 256,51,52
 636 977 636 977 728.5 940.5 c 128,-1,53
 821 904 821 904 899 829 c 1,54,-1
 783 668 l 1,55,-1
 773 653 l 1,56,-1
 754 666 l 2,57,58
 753 671 753 671 750.5 684.5 c 128,-1,59
 748 698 748 698 739 711 c 128,-1,60
 730 724 730 724 714 735 c 0,61,62
 633 793 633 793 528 793 c 0,63,64
 467 793 467 793 426 772 c 128,-1,65
 385 751 385 751 385 715 c 0,66,67
 385 682 385 682 407.5 658.5 c 128,-1,68
 430 635 430 635 475.5 616 c 128,-1,69
 521 597 521 597 606 571 c 0,70,71
 724 535 724 535 791 498.5 c 128,-1,72
 858 462 858 462 889 411 c 128,-1,73
 920 360 920 360 920 283 c 0,74,0
 920 217 920 217 887.5 156 c 128,-1,1
EndSplineSet
EndChar

StartChar: Scaron
Encoding: 352 352 288
Width: 1024
GlyphClass: 2
Flags: W
LayerCount: 2
Fore
SplineSet
219 1607 m 1,0,-1
 296 1699 l 1,1,-1
 511 1564 l 1,2,-1
 743 1693 l 1,3,-1
 812 1611 l 1,4,-1
 540 1390 l 1,5,-1
 477 1390 l 1,6,-1
 219 1607 l 1,0,-1
57 141 m 1,7,-1
 157 315 l 1,8,-1
 166 331 l 1,9,-1
 186 319 l 2,10,11
 187 315 187 315 191.5 302 c 128,-1,12
 196 289 196 289 205 276.5 c 128,-1,13
 214 264 214 264 230 252 c 0,14,15
 354 160 354 160 508 160 c 0,16,17
 604 160 604 160 656.5 205 c 128,-1,18
 709 250 709 250 709 340 c 0,19,20
 709 385 709 385 686.5 421.5 c 128,-1,21
 664 458 664 458 609.5 495 c 128,-1,22
 555 532 555 532 459 575 c 0,23,24
 281 652 281 652 201 748 c 128,-1,25
 121 844 121 844 121 971 c 0,26,27
 121 1063 121 1063 172.5 1140.5 c 128,-1,28
 224 1218 224 1218 314.5 1263.5 c 128,-1,29
 405 1309 405 1309 518 1309 c 0,30,31
 645 1309 645 1309 737 1267 c 128,-1,32
 829 1225 829 1225 913 1137 c 1,33,-1
 798 977 l 1,34,-1
 788 962 l 1,35,-1
 769 975 l 1,36,37
 768 981 768 981 765.5 995 c 128,-1,38
 763 1009 763 1009 755.5 1022.5 c 128,-1,39
 748 1036 748 1036 733 1049 c 0,40,41
 647 1120 647 1120 516 1120 c 0,42,43
 460 1120 460 1120 419.5 1100.5 c 128,-1,44
 379 1081 379 1081 358.5 1049 c 128,-1,45
 338 1017 338 1017 338 979 c 0,46,47
 338 934 338 934 361.5 899.5 c 128,-1,48
 385 865 385 865 442 828.5 c 128,-1,49
 499 792 499 792 608 739 c 0,50,51
 738 677 738 677 810 619.5 c 128,-1,52
 882 562 882 562 912 499 c 128,-1,53
 942 436 942 436 942 352 c 0,54,55
 942 250 942 250 895 161.5 c 128,-1,56
 848 73 848 73 746.5 18 c 128,-1,57
 645 -37 645 -37 489 -37 c 0,58,59
 240 -37 240 -37 57 141 c 1,7,-1
EndSplineSet
EndChar

StartChar: uni0163
Encoding: 355 355 291
Width: 1024
GlyphClass: 2
Flags: W
LayerCount: 2
Fore
SplineSet
812.5 -109.5 m 128,-1,1
 854 -148 854 -148 854 -209 c 0,2,3
 854 -260 854 -260 824.5 -308.5 c 128,-1,4
 795 -357 795 -357 735.5 -388.5 c 128,-1,5
 676 -420 676 -420 592 -420 c 0,6,7
 449 -420 449 -420 334 -305 c 1,8,-1
 410 -172 l 1,9,10
 468 -233 468 -233 515.5 -257 c 128,-1,11
 563 -281 563 -281 617 -281 c 0,12,13
 663 -281 663 -281 687 -266.5 c 128,-1,14
 711 -252 711 -252 711 -227 c 0,15,16
 711 -204 711 -204 689 -193 c 128,-1,17
 667 -182 667 -182 614 -182 c 2,18,-1
 514 -182 l 1,19,-1
 536 -25 l 1,20,21
 419 -8 419 -8 357 82 c 128,-1,22
 295 172 295 172 295 362 c 0,23,24
 295 417 295 417 301 483 c 2,25,-1
 318 770 l 1,26,-1
 111 770 l 1,27,-1
 115 956 l 1,28,-1
 329 956 l 1,29,-1
 342 1180 l 1,30,-1
 594 1222 l 1,31,-1
 598 1199 l 2,32,33
 596 1196 596 1196 588 1184.5 c 128,-1,34
 580 1173 580 1173 575 1157.5 c 128,-1,35
 570 1142 570 1142 569 1121 c 2,36,-1
 554 956 l 1,37,-1
 848 956 l 1,38,-1
 844 770 l 1,39,-1
 550 770 l 1,40,-1
 528 498 l 2,41,42
 523 428 523 428 523 386 c 0,43,44
 523 259 523 259 554 208.5 c 128,-1,45
 585 158 585 158 651 158 c 0,46,47
 713 158 713 158 766 182 c 128,-1,48
 819 206 819 206 883 262 c 1,49,-1
 932 86 l 1,50,51
 821 2 821 2 700 -20 c 1,52,-1
 694 -63 l 1,53,0
 771 -71 771 -71 812.5 -109.5 c 128,-1,1
EndSplineSet
EndChar

StartChar: Tcaron
Encoding: 356 356 292
Width: 1024
GlyphClass: 2
Flags: W
LayerCount: 2
Fore
SplineSet
219 1607 m 1,0,-1
 296 1699 l 1,1,-1
 511 1564 l 1,2,-1
 743 1693 l 1,3,-1
 812 1611 l 1,4,-1
 540 1390 l 1,5,-1
 477 1390 l 1,6,-1
 219 1607 l 1,0,-1
387 1077 m 1,7,-1
 41 1077 l 1,8,-1
 41 1276 l 1,9,-1
 981 1276 l 1,10,-1
 981 1077 l 1,11,-1
 621 1077 l 1,12,-1
 621 0 l 1,13,-1
 387 0 l 1,14,-1
 387 1077 l 1,7,-1
EndSplineSet
EndChar

StartChar: Tbar
Encoding: 358 358 294
Width: 1024
GlyphClass: 2
Flags: W
LayerCount: 2
Fore
SplineSet
621 1077 m 1,0,-1
 621 711 l 1,1,-1
 867 711 l 1,2,-1
 867 566 l 1,3,-1
 621 566 l 1,4,-1
 621 0 l 1,5,-1
 387 0 l 1,6,-1
 387 566 l 1,7,-1
 134 566 l 1,8,-1
 134 711 l 1,9,-1
 387 711 l 1,10,-1
 387 1077 l 1,11,-1
 41 1077 l 1,12,-1
 41 1276 l 1,13,-1
 981 1276 l 1,14,-1
 981 1077 l 1,15,-1
 621 1077 l 1,0,-1
EndSplineSet
EndChar

